<?xml version="1.0" encoding="utf-8"?>
<!-- Generator: Adobe Illustrator 23.1.1, SVG Export Plug-In . SVG Version: 6.00 Build 0)  -->
<svg version="1.1" id="Layer_1" xmlns="http://www.w3.org/2000/svg" xmlns:xlink="http://www.w3.org/1999/xlink" x="0px" y="0px"
	 viewBox="0 0 423.3 423.3" style="enable-background:new 0 0 423.3 423.3;" xml:space="preserve">
<style type="text/css">
	.st0{fill:#FDD106;}
	.st1{fill:#F05825;}
	.st2{fill:#B3B3B3;}
	.st3{fill:#CCCCCC;}
	.st4{fill:#808080;}
	.st5{fill:#FFE401;}
	.st6{fill:#ECEC89;}
	.st7{fill:#FDC605;}
	.st8{fill:#333333;}
</style>
<title>icon-sword</title>
<g>
	<g id="Layer_1-2">
		
			<rect x="87" y="83.5" transform="matrix(1.500928e-02 -0.9999 0.9999 1.500928e-02 2.056 188.229)" class="st0" width="19.1" height="19.1"/>
		
			<rect x="103.9" y="100.9" transform="matrix(1.500928e-02 -0.9999 0.9999 1.500928e-02 1.2947 222.2753)" class="st1" width="19.1" height="19.1"/>
		
			<rect x="136.4" y="134.4" transform="matrix(1.500928e-02 -0.9999 0.9999 1.500928e-02 -0.1852 287.7841)" class="st1" width="19.1" height="19.1"/>
		
			<rect x="120.2" y="117.7" transform="matrix(1.500928e-02 -0.9999 0.9999 1.500928e-02 0.5607 255.0358)" class="st1" width="19.1" height="19.1"/>
		
			<rect x="316.9" y="320.7" transform="matrix(1.500928e-02 -0.9999 0.9999 1.500928e-02 -8.6307 651.7368)" class="st2" width="19.1" height="19.1"/>
		
			<rect x="218.1" y="203.7" transform="matrix(1.500928e-02 -0.9999 0.9999 1.500928e-02 11.0922 437.6574)" class="st3" width="19.1" height="19.1"/>
		
			<rect x="201.9" y="186.9" transform="matrix(1.500928e-02 -0.9999 0.9999 1.500928e-02 11.8442 404.9032)" class="st3" width="19.1" height="19.1"/>
		
			<rect x="250.7" y="237.2" transform="matrix(1.500928e-02 -0.9999 0.9999 1.500928e-02 9.6182 503.1722)" class="st3" width="19.1" height="19.1"/>
		
			<rect x="234.4" y="220.4" transform="matrix(1.500928e-02 -0.9999 0.9999 1.500928e-02 10.3582 470.4178)" class="st3" width="19.1" height="19.1"/>
		
			<rect x="266.9" y="253.9" transform="matrix(1.500928e-02 -0.9999 0.9999 1.500928e-02 8.8842 535.9327)" class="st3" width="19.1" height="19.1"/>
		
			<rect x="299.4" y="287.4" transform="matrix(1.500928e-02 -0.9999 0.9999 1.500928e-02 7.3981 601.4473)" class="st3" width="19.1" height="19.1"/>
		
			<rect x="283.2" y="270.7" transform="matrix(1.500928e-02 -0.9999 0.9999 1.500928e-02 8.1321 568.6868)" class="st3" width="19.1" height="19.1"/>
		
			<rect x="317.2" y="302.7" transform="matrix(1.500928e-02 -0.9999 0.9999 1.500928e-02 9.6445 634.2713)" class="st3" width="19.1" height="19.1"/>
		
			<rect x="201.4" y="219.9" transform="matrix(1.500928e-02 -0.9999 0.9999 1.500928e-02 -21.6621 436.9174)" class="st4" width="19.1" height="19.1"/>
		
			<rect x="185.1" y="203.2" transform="matrix(1.500928e-02 -0.9999 0.9999 1.500928e-02 -20.9221 404.1631)" class="st4" width="19.1" height="19.1"/>
		
			<rect x="233.9" y="253.4" transform="matrix(1.500928e-02 -0.9999 0.9999 1.500928e-02 -23.1423 502.4382)" class="st4" width="19.1" height="19.1"/>
		
			<rect x="217.6" y="236.7" transform="matrix(1.500928e-02 -0.9999 0.9999 1.500928e-02 -22.4023 469.6838)" class="st4" width="19.1" height="19.1"/>
		
			<rect x="282.7" y="303.7" transform="matrix(1.500928e-02 -0.9999 0.9999 1.500928e-02 -25.3563 600.7073)" class="st4" width="19.1" height="19.1"/>
		
			<rect x="266.4" y="286.9" transform="matrix(1.500928e-02 -0.9999 0.9999 1.500928e-02 -24.6161 567.941)" class="st4" width="19.1" height="19.1"/>
		
			<rect x="298.9" y="320.4" transform="matrix(1.500928e-02 -0.9999 0.9999 1.500928e-02 -26.0963 633.4617)" class="st4" width="19.1" height="19.1"/>
		
			<rect x="170.1" y="169.2" transform="matrix(1.500928e-02 -0.9999 0.9999 1.500928e-02 -1.7186 355.7104)" class="st5" width="19.1" height="19.1"/>
		
			<rect x="188.5" y="170.2" transform="matrix(1.500928e-02 -0.9999 0.9999 1.500928e-02 15.4008 375.1031)" class="st6" width="19.1" height="19.1"/>
		
			<rect x="170.1" y="152" transform="matrix(1.500928e-02 -0.9999 0.9999 1.500928e-02 15.3733 338.7516)" class="st7" width="19.1" height="19.1"/>
		
			<rect x="171.5" y="187" transform="matrix(1.500928e-02 -0.9999 0.9999 1.500928e-02 -18.2088 374.6294)" class="st6" width="19.1" height="19.1"/>
		
			<rect x="153" y="168.4" transform="matrix(1.500928e-02 -0.9999 0.9999 1.500928e-02 -17.8114 337.7181)" class="st5" width="19.1" height="19.1"/>
		
			<rect x="153.2" y="151.8" transform="matrix(1.500928e-02 -0.9999 0.9999 1.500928e-02 -0.9453 321.6643)" class="st1" width="19.1" height="19.1"/>
		
			<rect x="205.6" y="135.9" transform="matrix(1.500928e-02 -0.9999 0.9999 1.500928e-02 66.5128 358.4609)" class="st7" width="19.1" height="19.1"/>
		
			<rect x="188.9" y="152.2" transform="matrix(1.500928e-02 -0.9999 0.9999 1.500928e-02 33.7584 357.7209)" class="st7" width="19.1" height="19.1"/>
		
			<rect x="152.7" y="186.7" transform="matrix(1.500928e-02 -0.9999 0.9999 1.500928e-02 -36.4273 355.5782)" class="st0" width="19.1" height="19.1"/>
		
			<rect x="135.6" y="203.9" transform="matrix(1.500928e-02 -0.9999 0.9999 1.500928e-02 -70.4717 355.38)" class="st0" width="19.1" height="19.1"/>
		
			<rect x="250.2" y="270.2" transform="matrix(1.500928e-02 -0.9999 0.9999 1.500928e-02 -23.8762 535.1866)" class="st4" width="19.1" height="19.1"/>
		
			<rect x="216.4" y="220.1" transform="matrix(1.500928e-02 -0.9999 0.9999 1.500928e-02 -7.1075 452.1427)" class="st2" width="19.1" height="19.1"/>
		
			<rect x="200.1" y="203.4" transform="matrix(1.500928e-02 -0.9999 0.9999 1.500928e-02 -6.3674 419.3883)" class="st2" width="19.1" height="19.1"/>
		
			<rect x="248.9" y="253.6" transform="matrix(1.500928e-02 -0.9999 0.9999 1.500928e-02 -8.5935 517.6573)" class="st2" width="19.1" height="19.1"/>
		
			<rect x="232.6" y="236.9" transform="matrix(1.500928e-02 -0.9999 0.9999 1.500928e-02 -7.8415 484.9032)" class="st2" width="19.1" height="19.1"/>
		
			<rect x="265.2" y="270.4" transform="matrix(1.500928e-02 -0.9999 0.9999 1.500928e-02 -9.3276 550.4178)" class="st2" width="19.1" height="19.1"/>
		
			<rect x="299.2" y="302.4" transform="matrix(1.500928e-02 -0.9999 0.9999 1.500928e-02 -7.8332 615.9959)" class="st2" width="19.1" height="19.1"/>
		
			<rect x="281.4" y="287.1" transform="matrix(1.500928e-02 -0.9999 0.9999 1.500928e-02 -10.0616 583.1782)" class="st2" width="19.1" height="19.1"/>
		
			<rect x="188.3" y="187.3" transform="matrix(1.500928e-02 -0.9999 0.9999 1.500928e-02 -1.884 391.7108)" class="st8" width="19.1" height="19.1"/>
	</g>
</g>
</svg>
