<?xml version="1.0" encoding="utf-8"?>
<!-- Generator: Adobe Illustrator 23.1.1, SVG Export Plug-In . SVG Version: 6.00 Build 0)  -->
<svg version="1.1" id="Layer_1" xmlns="http://www.w3.org/2000/svg" xmlns:xlink="http://www.w3.org/1999/xlink" x="0px" y="0px"
	 viewBox="0 0 558.5 558.5" style="enable-background:new 0 0 558.5 558.5;" xml:space="preserve">
<style type="text/css">
	.st0{fill:#FFE401;}
	.st1{fill:#F3A34D;}
	.st2{fill:#ECEC89;}
	.st3{fill:#F05825;}
	.st4{fill:#FDD106;}
	.st5{fill:#D25825;}
	.st6{fill:#333333;}
</style>
<title>icon-fish</title>
<g>
	<g id="Layer_1-2">
		<path class="st0" d="M413.6,313.1H281.7l0.8,30.7h-42.2l0.9-30.7l-77.9-0.7c-7.9,0-16.7-12.9-16.7-19.9v-43.4h267V313.1z"/>
		<path class="st1" d="M410.3,312.3l0.1,17.2l-19.4,0.1c-0.1-0.2-0.1-0.4-0.1-0.6c0-5.4-0.1-10.7-0.1-16.1c0-0.2,0-0.4,0.1-0.5
			L410.3,312.3z"/>
		<path class="st2" d="M301.5,198.7l0.1,17.2l-19.4,0.1c-0.1-0.2-0.1-0.4-0.1-0.6c0-5.4-0.1-10.7-0.1-16.1c0-0.2,0-0.4,0.1-0.5
			L301.5,198.7z"/>
		<path class="st2" d="M320.7,198.7l0.1,17.2l-19.4,0.1c-0.1-0.2-0.1-0.4-0.1-0.6c0-5.4-0.1-10.7-0.1-16.1c0-0.2,0-0.3,0.1-0.5
			L320.7,198.7z"/>
		<path class="st2" d="M340,198.7l0.1,17.2l-19.4,0.1c-0.1-0.2-0.1-0.4-0.1-0.6c0-5.4-0.1-10.7-0.1-16.1c0-0.2,0-0.4,0.1-0.5
			L340,198.7z"/>
		<path class="st3" d="M166.4,232l0.1,17.2l-19.4,0.1c-0.1-0.2-0.1-0.4-0.1-0.6c0-5.4-0.1-10.7-0.1-16.1c0-0.2,0-0.4,0.1-0.5
			L166.4,232z"/>
		<path class="st3" d="M185.8,232l0.1,17.2l-19.4,0.1c-0.1-0.2-0.1-0.4-0.1-0.6c0-5.4-0.1-10.7-0.1-16.1c0-0.2,0-0.4,0.1-0.5
			L185.8,232z"/>
		<path class="st3" d="M205.3,232l0.1,17.2l-19.4,0.1c-0.1-0.2-0.1-0.4-0.1-0.6c0-5.4-0.1-10.7-0.1-16.1c0-0.2,0-0.4,0.1-0.5
			L205.3,232z"/>
		<path class="st3" d="M223.7,327.5l0.1,17.2l-19.4,0.1c-0.1-0.2-0.1-0.4-0.1-0.6c0-5.4-0.1-10.8-0.1-16.1c0-0.2,0-0.4,0.1-0.5
			L223.7,327.5z"/>
		<path class="st4" d="M280.8,327.5l0.1,17.2l-19.4,0.1c-0.1-0.2-0.1-0.4-0.1-0.6c0-5.4-0.1-10.8-0.1-16.1c0-0.2,0-0.4,0.1-0.5
			L280.8,327.5z"/>
		<path class="st4" d="M262.5,327.5l0.1,17.2l-19.4,0.1c-0.1-0.2-0.1-0.4-0.1-0.6c0-5.4-0.1-10.8-0.1-16.1c0-0.2,0-0.4,0.1-0.5
			L262.5,327.5z"/>
		<path class="st3" d="M243.1,327.5l0.1,17.2l-19.4,0.1c-0.1-0.2-0.1-0.4-0.1-0.6c0-5.4-0.1-10.8-0.1-16.1c0-0.2,0-0.4,0.1-0.5
			L243.1,327.5z"/>
		<path class="st3" d="M263,343.3l0.1,17.2l-19.4,0.1c-0.1-0.2-0.1-0.4-0.1-0.6c0-5.4-0.1-10.8-0.1-16.1c0-0.2,0-0.4,0.1-0.5
			L263,343.3z"/>
		<path class="st3" d="M282.5,343.3l0.1,17.2l-19.4,0.1c-0.1-0.2-0.1-0.4-0.1-0.6c0-5.4-0.1-10.8-0.1-16.1c0-0.2,0-0.4,0.1-0.5
			L282.5,343.3z"/>
		<path class="st3" d="M299.4,328.1l0.1,17.2l-19.4,0.1c-0.1-0.2-0.1-0.4-0.1-0.6c0-5.4-0.1-10.7-0.1-16.1c0-0.2,0-0.4,0.1-0.5
			L299.4,328.1z"/>
		<path class="st3" d="M375.1,215.3l0.1,17.2l-19.4,0.1c-0.1-0.2-0.1-0.4-0.1-0.6c0-5.4-0.1-10.7-0.1-16.1c0-0.2,0-0.4,0.1-0.5
			L375.1,215.3z"/>
		<path class="st3" d="M372.8,248.7l0.1,17.2l-19.4,0.1c-0.1-0.2-0.1-0.4-0.1-0.6c-0.1-5.4-0.1-10.7-0.1-16.1c0-0.2,0-0.4,0.1-0.5
			L372.8,248.7z"/>
		<path class="st3" d="M319.1,328.1l0.1,17.2l-19.4,0.1c-0.1-0.2-0.1-0.4-0.1-0.6c0-5.4-0.1-10.7-0.1-16.1c0-0.2,0-0.4,0.1-0.5
			L319.1,328.1z"/>
		<path class="st3" d="M338.8,328.1l0.1,17.2l-19.4,0.1c-0.1-0.2-0.1-0.4-0.1-0.6c0-5.4-0.1-10.7-0.1-16.1c0-0.2,0-0.4,0.1-0.5
			L338.8,328.1z"/>
		<path class="st3" d="M392.2,248.7l0.1,17.2l-19.4,0.1c-0.1-0.2-0.1-0.4-0.1-0.6c0-5.4-0.1-10.7-0.1-16.1c0-0.2,0-0.4,0.1-0.5
			L392.2,248.7z"/>
		<path class="st5" d="M411,329l0.1,17.2l-19.4,0.1c-0.1-0.2-0.1-0.4-0.1-0.6c0-5.4-0.1-10.8-0.1-16.1c0-0.2,0-0.4,0.1-0.5L411,329z
			"/>
		<path class="st3" d="M411,232l0.1,17.2l-19.4,0.1c-0.1-0.2-0.1-0.4-0.1-0.6c0-5.4-0.1-10.7-0.1-16.1c0-0.2,0-0.4,0.1-0.5L411,232z
			"/>
		<path class="st3" d="M429.5,216.2l0.1,17.2l-19.4,0.1c-0.1-0.2-0.1-0.4-0.1-0.6c0-5.4-0.1-10.7-0.1-16.1c0-0.2,0-0.4,0.1-0.5
			L429.5,216.2z"/>
		<path class="st5" d="M429.5,345.1l0.1,17.2l-19.4,0.1c-0.1-0.2-0.1-0.4-0.1-0.6c0-5.4-0.1-10.7-0.1-16.1c0-0.2,0-0.4,0.1-0.5
			L429.5,345.1z"/>
		<path class="st3" d="M448.4,329l0.1,17.2l-19.4,0.1c-0.1-0.2-0.1-0.4-0.1-0.6c-0.1-5.4-0.1-10.8-0.1-16.1c0-0.2,0-0.4,0.1-0.5
			L448.4,329z"/>
		<path class="st3" d="M448.4,232l0.1,17.2l-19.4,0.1c-0.1-0.2-0.1-0.4-0.1-0.6c-0.1-5.4-0.1-10.7-0.1-16.1c0-0.2,0-0.4,0.1-0.5
			L448.4,232z"/>
		<path class="st3" d="M448.4,247.8l0.1,17.2l-19.4,0.1c-0.1-0.2-0.1-0.4-0.1-0.6c-0.1-5.4-0.1-10.7-0.1-16.1c0-0.2,0-0.4,0.1-0.5
			L448.4,247.8z"/>
		<path class="st3" d="M429.5,264.6l0.1,17.2l-19.4,0.1c-0.1-0.2-0.1-0.4-0.1-0.6c0-5.4-0.1-10.7-0.1-16.1c0-0.2,0-0.4,0.1-0.5
			L429.5,264.6z"/>
		<path class="st3" d="M429.5,280.7l0.1,17.2l-19.4,0.1c-0.1-0.2-0.1-0.4-0.1-0.6c0-5.4-0.1-10.8-0.1-16.1c0-0.2,0-0.4,0.1-0.5
			L429.5,280.7z"/>
		<path class="st3" d="M429.5,296.8l0.1,17.2l-19.4,0.1c-0.1-0.2-0.1-0.4-0.1-0.6c0-5.4-0.1-10.7-0.1-16.1c0-0.2,0-0.3,0.1-0.5
			L429.5,296.8z"/>
		<path class="st3" d="M240.1,261.8l0.1,17.2l-19.4,0.1c-0.1-0.2-0.1-0.4-0.1-0.6c0-5.4-0.1-10.8-0.1-16.1c0-0.2,0-0.4,0.1-0.5
			L240.1,261.8z"/>
		<path class="st3" d="M240.1,278.7l0.1,17.2l-19.4,0.1c-0.1-0.2-0.1-0.4-0.1-0.6c0-5.4-0.1-10.7-0.1-16.1c0-0.2,0-0.4,0.1-0.5
			L240.1,278.7z"/>
		<path class="st5" d="M221.2,295.3l0.1,17.2l-19.4,0.1c-0.1-0.2-0.1-0.4-0.1-0.6c0-5.4-0.1-10.7-0.1-16.1c0-0.2,0-0.4,0.1-0.5
			L221.2,295.3z"/>
		<path class="st4" d="M147.5,263.6l0.1,17.2l-19.4,0.1c-0.1-0.2-0.1-0.4-0.1-0.6c0-5.4-0.1-10.8-0.1-16.1c0-0.2,0-0.4,0.1-0.5
			L147.5,263.6z"/>
		<path class="st2" d="M166.4,247.8l0.1,17.2l-19.4,0.1c-0.1-0.2-0.1-0.4-0.1-0.6c0-5.4-0.1-10.7-0.1-16.1c0-0.2,0-0.4,0.1-0.5
			L166.4,247.8z"/>
		<path class="st2" d="M185.8,247.8L186,265l-19.4,0.1c-0.1-0.2-0.1-0.4-0.1-0.6c0-5.4-0.1-10.7-0.1-16.1c0-0.2,0-0.4,0.1-0.5
			L185.8,247.8z"/>
		<path class="st2" d="M205.3,247.8l0.1,17.2l-19.4,0.1c-0.1-0.2-0.1-0.4-0.1-0.6c0-5.4-0.1-10.7-0.1-16.1c0-0.2,0-0.4,0.1-0.5
			L205.3,247.8z"/>
		<path class="st2" d="M224.2,232l0.1,17.2l-19.4,0.1c-0.1-0.2-0.1-0.4-0.1-0.6c0-5.4-0.1-10.7-0.1-16.1c0-0.2,0-0.4,0.1-0.5
			L224.2,232z"/>
		<path class="st2" d="M242.9,232l0.1,17.2l-19.4,0.1c-0.1-0.2-0.1-0.4-0.1-0.6c0-5.4-0.1-10.7-0.1-16.1c0-0.2,0-0.4,0.1-0.5
			L242.9,232z"/>
		<path class="st2" d="M261.7,232l0.1,17.2l-19.4,0.1c-0.1-0.2-0.1-0.4-0.1-0.6c0-5.4-0.1-10.7-0.1-16.1c0-0.2,0-0.4,0.1-0.5
			L261.7,232z"/>
		<path class="st2" d="M280.4,232l0.1,17.2l-19.4,0.1c-0.1-0.2-0.1-0.4-0.1-0.6c0-5.4-0.1-10.7-0.1-16.1c0-0.2,0-0.4,0.1-0.5
			L280.4,232z"/>
		<path class="st2" d="M299.1,232l0.1,17.2l-19.4,0.1c-0.1-0.2-0.1-0.4-0.1-0.6c0-5.4-0.1-10.7-0.1-16.1c0-0.2,0-0.4,0.1-0.5
			L299.1,232z"/>
		<path class="st2" d="M317.8,232l0.1,17.2l-19.4,0.1c-0.1-0.2-0.1-0.4-0.1-0.6c0-5.4-0.1-10.7-0.1-16.1c0-0.2,0-0.4,0.1-0.5
			L317.8,232z"/>
		<path class="st2" d="M264.1,215.3l0.1,17.2l-21.9,0.1c-0.1-0.2-0.1-0.4-0.1-0.6c0-5.4-0.1-10.7-0.1-16.1c0-0.2,0-0.4,0.1-0.5
			L264.1,215.3z"/>
		<path class="st2" d="M282.4,215.3l0.1,17.2l-19.4,0.1c-0.1-0.2-0.1-0.4-0.1-0.6c0-5.4-0.1-10.7-0.1-16.1c0-0.2,0-0.4,0.1-0.5
			L282.4,215.3z"/>
		<path class="st2" d="M334.3,247.8l0.1,17.2l-19.4,0.1c-0.1-0.2-0.1-0.4-0.1-0.6c0-5.4-0.1-10.7-0.1-16.1c0-0.2,0-0.4,0.1-0.5
			L334.3,247.8z"/>
		<path class="st2" d="M353.7,247.8l0.1,17.2l-19.4,0.1c-0.1-0.2-0.1-0.4-0.1-0.6c0-5.4-0.1-10.7-0.1-16.1c0-0.2,0-0.4,0.1-0.5
			L353.7,247.8z"/>
		<path class="st2" d="M372.8,265.3l0.1,17.2l-19.4,0.1c-0.1-0.2-0.1-0.4-0.1-0.6c-0.1-5.4-0.1-10.8-0.1-16.1c0-0.2,0-0.4,0.1-0.5
			L372.8,265.3z"/>
		<path class="st2" d="M392.2,265.3l0.1,17.2l-19.4,0.1c-0.1-0.2-0.1-0.4-0.1-0.6c0-5.4-0.1-10.8-0.1-16.1c0-0.2,0-0.4,0.1-0.5
			L392.2,265.3z"/>
		<path class="st2" d="M411,248.2l0.1,17.2l-19.4,0.1c-0.1-0.2-0.1-0.4-0.1-0.6c0-5.4-0.1-10.7-0.1-16.1c0-0.2,0-0.4,0.1-0.5
			L411,248.2z"/>
		<path class="st2" d="M429.5,232.4l0.1,17.2l-19.4,0.1c-0.1-0.2-0.1-0.4-0.1-0.6c0-5.4-0.1-10.7-0.1-16.1c0-0.2,0-0.4,0.1-0.5
			L429.5,232.4z"/>
		<path class="st1" d="M429.5,248.5l0.1,17.2l-19.4,0.1c-0.1-0.2-0.1-0.4-0.1-0.6c0-5.4-0.1-10.7-0.1-16.1c0-0.2,0-0.3,0.1-0.5
			L429.5,248.5z"/>
		<path class="st1" d="M338,215.3l0.1,17.2l-19.4,0.1c-0.1-0.2-0.1-0.4-0.1-0.6c0-5.4-0.1-10.7-0.1-16.1c0-0.2,0-0.3,0.1-0.5
			L338,215.3z"/>
		<path class="st1" d="M356.7,215.3l0.1,17.2l-19.4,0.1c-0.1-0.2-0.1-0.4-0.1-0.6c0-5.4-0.1-10.7-0.1-16.1c0-0.2,0-0.4,0.1-0.5
			L356.7,215.3z"/>
		<path class="st1" d="M354.2,295.3l0.1,17.2l-19.4,0.1c-0.1-0.2-0.1-0.4-0.1-0.6c0-5.4-0.1-10.7-0.1-16.1c0-0.2,0-0.4,0.1-0.5
			L354.2,295.3z"/>
		<path class="st1" d="M372.8,295.3l0.1,17.2l-19.4,0.1c-0.1-0.2-0.1-0.4-0.1-0.6c-0.1-5.4-0.1-10.7-0.1-16.1c0-0.2,0-0.4,0.1-0.5
			L372.8,295.3z"/>
		<path class="st1" d="M392.2,295.3l0.1,17.2l-19.4,0.1c-0.1-0.2-0.1-0.4-0.1-0.6c0-5.4-0.1-10.7-0.1-16.1c0-0.2,0-0.4,0.1-0.5
			L392.2,295.3z"/>
		<path class="st1" d="M240.1,295.3l0.1,17.2l-19.4,0.1c-0.1-0.2-0.1-0.4-0.1-0.6c0-5.4-0.1-10.7-0.1-16.1c0-0.2,0-0.4,0.1-0.5
			L240.1,295.3z"/>
		<path class="st1" d="M429.5,329l0.1,17.2l-19.4,0.1c-0.1-0.2-0.1-0.4-0.1-0.6c0-5.4-0.1-10.8-0.1-16.1c0-0.2,0-0.4,0.1-0.5
			L429.5,329z"/>
		<path class="st3" d="M263,198.7l0.1,17.2l-19.4,0.1c-0.1-0.2-0.1-0.4-0.1-0.6c0-5.4-0.1-10.7-0.1-16.1c0-0.2,0-0.3,0.1-0.5
			L263,198.7z"/>
		<path class="st3" d="M282.3,198.7l0.1,17.2l-19.4,0.1c-0.1-0.2-0.1-0.4-0.1-0.6c-0.1-5.4-0.1-10.7-0.1-16.1c0-0.2,0-0.3,0.1-0.5
			L282.3,198.7z"/>
		<path class="st3" d="M301.9,182.1l0.1,17.2l-19.4,0.1c-0.1-0.2-0.1-0.4-0.1-0.6c0-5.4-0.1-10.7-0.1-16.1c0-0.2,0-0.4,0.1-0.5
			L301.9,182.1z"/>
		<path class="st3" d="M321.3,182.1l0.1,17.2l-19.4,0.1c-0.1-0.2-0.1-0.4-0.1-0.6c0-5.4-0.1-10.7-0.1-16.1c0-0.2,0-0.4,0.1-0.5
			L321.3,182.1z"/>
		<path class="st3" d="M340.8,182.1l0.2,17.2l-19.4,0.1c-0.1-0.2-0.1-0.4-0.1-0.6c0-5.4-0.1-10.7-0.1-16.1c0-0.2,0-0.4,0.1-0.5
			L340.8,182.1z"/>
		<path class="st3" d="M359.2,198.7l0.1,17.2l-19.4,0.1c-0.1-0.2-0.1-0.4-0.1-0.6c0-5.4-0.1-10.7-0.1-16.1c0-0.2,0-0.4,0.1-0.5
			L359.2,198.7z"/>
		<path class="st3" d="M224.2,215.3l0.1,17.2l-19.4,0.1c-0.1-0.2-0.1-0.4-0.1-0.6c0-5.4-0.1-10.7-0.1-16.1c0-0.2,0-0.4,0.1-0.5
			L224.2,215.3z"/>
		<path class="st3" d="M243.6,215.3l0.1,17.2l-19.4,0.1c-0.1-0.2-0.1-0.4-0.1-0.6c0-5.4-0.1-10.7-0.1-16.1c0-0.2,0-0.4,0.1-0.5
			L243.6,215.3z"/>
		<path class="st3" d="M300.9,215.3l0.1,17.2l-19.4,0.1c-0.1-0.2-0.1-0.4-0.1-0.6c-0.1-5.4-0.1-10.7-0.1-16.1c0-0.2,0-0.4,0.1-0.5
			L300.9,215.3z"/>
		<path class="st3" d="M320.3,215.3l0.1,17.2l-19.4,0.1c-0.1-0.2-0.1-0.4-0.1-0.6c0-5.4-0.1-10.7-0.1-16.1c0-0.2,0-0.4,0.1-0.5
			L320.3,215.3z"/>
		<path class="st5" d="M334.3,232l0.1,17.2l-19.4,0.1c-0.1-0.2-0.1-0.4-0.1-0.6c0-5.4-0.1-10.7-0.1-16.1c0-0.2,0-0.4,0.1-0.5
			L334.3,232z"/>
		<path class="st5" d="M353.7,232l0.1,17.2l-19.4,0.1c-0.1-0.2-0.1-0.4-0.1-0.6c0-5.4-0.1-10.7-0.1-16.1c0-0.2,0-0.4,0.1-0.5
			L353.7,232z"/>
		<path class="st3" d="M181.9,312.3l0.1,17.2l-19.4,0.1c-0.1-0.2-0.1-0.4-0.1-0.6c-0.1-5.4-0.1-10.7-0.1-16.1c0-0.2,0-0.4,0.1-0.5
			L181.9,312.3z"/>
		<path class="st3" d="M200.9,312.3l0.1,17.2l-19.4,0.1c-0.1-0.2-0.1-0.4-0.1-0.6c0-5.4-0.1-10.7-0.1-16.1c0-0.2,0-0.4,0.1-0.5
			L200.9,312.3z"/>
		<path class="st5" d="M353.2,312.3l0.1,17.2l-19.4,0.1c-0.1-0.2-0.1-0.4-0.1-0.6c0-5.4-0.1-10.7-0.1-16.1c0-0.2,0-0.4,0.1-0.5
			L353.2,312.3z"/>
		<path class="st5" d="M372.2,312.3l0.1,17.2l-19.4,0.1c-0.1-0.2-0.1-0.4-0.1-0.6c0-5.4-0.1-10.7-0.1-16.1c0-0.2,0-0.4,0.1-0.5
			L372.2,312.3z"/>
		<path class="st5" d="M391.2,312.3l0.1,17.2l-19.4,0.1c-0.1-0.2-0.1-0.4-0.1-0.6c0-5.4-0.1-10.7-0.1-16.1c0-0.2,0-0.4,0.1-0.5
			L391.2,312.3z"/>
		<path class="st3" d="M448.4,312.4l0.1,17.2l-19.4,0.1c-0.1-0.2-0.1-0.4-0.1-0.6c-0.1-5.4-0.1-10.7-0.1-16.1c0-0.2,0-0.3,0.1-0.5
			L448.4,312.4z"/>
		<path class="st1" d="M296.1,312.3l0.1,17.2l-19.4,0.1c-0.1-0.2-0.1-0.4-0.1-0.6c0-5.4-0.1-10.7-0.1-16.1c0-0.2,0-0.4,0.1-0.5
			L296.1,312.3z"/>
		<path class="st1" d="M315.1,312.3l0.1,17.2l-19.4,0.1c-0.1-0.2-0.1-0.4-0.1-0.6c0-5.4-0.1-10.7-0.1-16.1c0-0.2,0-0.4,0.1-0.5
			L315.1,312.3z"/>
		<path class="st1" d="M334.1,312.3l0.1,17.2l-19.4,0.1c-0.1-0.2-0.1-0.4-0.1-0.6c0-5.4-0.1-10.7-0.1-16.1c0-0.2,0-0.4,0.1-0.5
			L334.1,312.3z"/>
		<path class="st1" d="M239,312.3l0.1,17.2l-19.4,0.1c-0.1-0.2-0.1-0.4-0.1-0.6c0-5.4-0.1-10.7-0.1-16.1c0-0.2,0-0.4,0.1-0.5
			L239,312.3z"/>
		<path class="st1" d="M258,312.3l0.1,17.2l-19.4,0.1c-0.1-0.2-0.1-0.4-0.1-0.6c0-5.4-0.1-10.7-0.1-16.1c0-0.2,0-0.4,0.1-0.5
			L258,312.3z"/>
		<path class="st1" d="M277,312.3l0.1,17.2l-19.4,0.1c-0.1-0.2-0.1-0.4-0.1-0.6c0-5.4-0.1-10.7-0.1-16.1c0-0.2,0-0.4,0.1-0.5
			L277,312.3z"/>
		<path class="st1" d="M219.9,312.3l0.1,17.2l-19.4,0.1c-0.1-0.2-0.1-0.4-0.1-0.6c0-5.4-0.1-10.7-0.1-16.1c0-0.2,0-0.4,0.1-0.5
			L219.9,312.3z"/>
		<path class="st3" d="M429.3,312.9l0.1,17.2l-19.4,0.1c-0.1-0.2-0.1-0.4-0.1-0.6c0-5.4-0.1-10.7-0.1-16.1c0-0.2,0-0.4,0.1-0.5
			L429.3,312.9z"/>
		<path class="st4" d="M166.4,279.3l0.1,17.2l-19.4,0.1c-0.1-0.2-0.1-0.4-0.1-0.6c0-5.4-0.1-10.8-0.1-16.1c0-0.2,0-0.4,0.1-0.5
			L166.4,279.3z"/>
		<path class="st3" d="M147.5,279.3l0.1,17.2l-19.4,0.1c-0.1-0.2-0.1-0.4-0.1-0.6c0-5.4-0.1-10.8-0.1-16.1c0-0.2,0-0.4,0.1-0.5
			L147.5,279.3z"/>
		<path class="st3" d="M166.4,295.3l0.1,17.2l-19.4,0.1c-0.1-0.2-0.1-0.4-0.1-0.6c0-5.4-0.1-10.7-0.1-16.1c0-0.2,0.1-0.4,0.1-0.5
			L166.4,295.3z"/>
		<path class="st3" d="M147.5,247.8l0.1,17.2l-19.4,0.1c-0.1-0.2-0.1-0.4-0.1-0.6c0-5.4-0.1-10.7-0.1-16.1c0-0.2,0-0.4,0.1-0.5
			L147.5,247.8z"/>
		<path class="st3" d="M129.5,263.6l0.1,17.2l-19.4,0.1c-0.1-0.2-0.1-0.4-0.1-0.6c0-5.4-0.1-10.7-0.1-16.1c0-0.2,0-0.4,0.1-0.5
			L129.5,263.6z"/>
		<path class="st6" d="M185.9,264.5l0,17.2l-19.4,0c-0.1-0.2-0.1-0.4-0.1-0.6c0-5.4,0-10.8,0-16.1c0-0.2,0-0.4,0.1-0.5L185.9,264.5z
			"/>
		<path class="st3" d="M282.5,359.1l0.1,17.2l-19.4,0.1c-0.1-0.2-0.1-0.4-0.1-0.6c0-5.4-0.1-10.7-0.1-16.1c0-0.2,0-0.4,0.1-0.5
			L282.5,359.1z"/>
		<path class="st3" d="M300.4,359.1l0.1,17.2l-19.4,0.1c-0.1-0.2-0.1-0.4-0.1-0.6c0-5.4-0.1-10.7-0.1-16.1c0-0.2,0-0.4,0.1-0.5
			L300.4,359.1z"/>
		<path class="st0" d="M413.6,313.1H281.7l0.8,30.7h-42.2l0.9-30.7l-77.9-0.7c-7.9,0-16.7-12.9-16.7-19.9v-43.4h267V313.1z"/>
		<path class="st1" d="M410.3,312.3l0.1,17.2l-19.4,0.1c-0.1-0.2-0.1-0.4-0.1-0.6c0-5.4-0.1-10.7-0.1-16.1c0-0.2,0-0.4,0.1-0.5
			L410.3,312.3z"/>
		<path class="st2" d="M301.5,198.7l0.1,17.2l-19.4,0.1c-0.1-0.2-0.1-0.4-0.1-0.6c0-5.4-0.1-10.7-0.1-16.1c0-0.2,0-0.4,0.1-0.5
			L301.5,198.7z"/>
		<path class="st2" d="M320.7,198.7l0.1,17.2l-19.4,0.1c-0.1-0.2-0.1-0.4-0.1-0.6c0-5.4-0.1-10.7-0.1-16.1c0-0.2,0-0.3,0.1-0.5
			L320.7,198.7z"/>
		<path class="st2" d="M340,198.7l0.1,17.2l-19.4,0.1c-0.1-0.2-0.1-0.4-0.1-0.6c0-5.4-0.1-10.7-0.1-16.1c0-0.2,0-0.4,0.1-0.5
			L340,198.7z"/>
		<path class="st3" d="M166.4,232l0.1,17.2l-19.4,0.1c-0.1-0.2-0.1-0.4-0.1-0.6c0-5.4-0.1-10.7-0.1-16.1c0-0.2,0-0.4,0.1-0.5
			L166.4,232z"/>
		<path class="st3" d="M185.8,232l0.1,17.2l-19.4,0.1c-0.1-0.2-0.1-0.4-0.1-0.6c0-5.4-0.1-10.7-0.1-16.1c0-0.2,0-0.4,0.1-0.5
			L185.8,232z"/>
		<path class="st3" d="M205.3,232l0.1,17.2l-19.4,0.1c-0.1-0.2-0.1-0.4-0.1-0.6c0-5.4-0.1-10.7-0.1-16.1c0-0.2,0-0.4,0.1-0.5
			L205.3,232z"/>
		<path class="st3" d="M223.7,327.5l0.1,17.2l-19.4,0.1c-0.1-0.2-0.1-0.4-0.1-0.6c0-5.4-0.1-10.8-0.1-16.1c0-0.2,0-0.4,0.1-0.5
			L223.7,327.5z"/>
		<path class="st4" d="M280.8,327.5l0.1,17.2l-19.4,0.1c-0.1-0.2-0.1-0.4-0.1-0.6c0-5.4-0.1-10.8-0.1-16.1c0-0.2,0-0.4,0.1-0.5
			L280.8,327.5z"/>
		<path class="st4" d="M262.5,327.5l0.1,17.2l-19.4,0.1c-0.1-0.2-0.1-0.4-0.1-0.6c0-5.4-0.1-10.8-0.1-16.1c0-0.2,0-0.4,0.1-0.5
			L262.5,327.5z"/>
		<path class="st3" d="M243.1,327.5l0.1,17.2l-19.4,0.1c-0.1-0.2-0.1-0.4-0.1-0.6c0-5.4-0.1-10.8-0.1-16.1c0-0.2,0-0.4,0.1-0.5
			L243.1,327.5z"/>
		<path class="st3" d="M263,343.3l0.1,17.2l-19.4,0.1c-0.1-0.2-0.1-0.4-0.1-0.6c0-5.4-0.1-10.8-0.1-16.1c0-0.2,0-0.4,0.1-0.5
			L263,343.3z"/>
		<path class="st3" d="M282.5,343.3l0.1,17.2l-19.4,0.1c-0.1-0.2-0.1-0.4-0.1-0.6c0-5.4-0.1-10.8-0.1-16.1c0-0.2,0-0.4,0.1-0.5
			L282.5,343.3z"/>
		<path class="st3" d="M299.4,328.1l0.1,17.2l-19.4,0.1c-0.1-0.2-0.1-0.4-0.1-0.6c0-5.4-0.1-10.7-0.1-16.1c0-0.2,0-0.4,0.1-0.5
			L299.4,328.1z"/>
		<path class="st3" d="M375.1,215.3l0.1,17.2l-19.4,0.1c-0.1-0.2-0.1-0.4-0.1-0.6c0-5.4-0.1-10.7-0.1-16.1c0-0.2,0-0.4,0.1-0.5
			L375.1,215.3z"/>
		<path class="st3" d="M372.8,248.7l0.1,17.2l-19.4,0.1c-0.1-0.2-0.1-0.4-0.1-0.6c-0.1-5.4-0.1-10.7-0.1-16.1c0-0.2,0-0.4,0.1-0.5
			L372.8,248.7z"/>
		<path class="st3" d="M319.1,328.1l0.1,17.2l-19.4,0.1c-0.1-0.2-0.1-0.4-0.1-0.6c0-5.4-0.1-10.7-0.1-16.1c0-0.2,0-0.4,0.1-0.5
			L319.1,328.1z"/>
		<path class="st3" d="M338.8,328.1l0.1,17.2l-19.4,0.1c-0.1-0.2-0.1-0.4-0.1-0.6c0-5.4-0.1-10.7-0.1-16.1c0-0.2,0-0.4,0.1-0.5
			L338.8,328.1z"/>
		<path class="st3" d="M392.2,248.7l0.1,17.2l-19.4,0.1c-0.1-0.2-0.1-0.4-0.1-0.6c0-5.4-0.1-10.7-0.1-16.1c0-0.2,0-0.4,0.1-0.5
			L392.2,248.7z"/>
		<path class="st5" d="M411,329l0.1,17.2l-19.4,0.1c-0.1-0.2-0.1-0.4-0.1-0.6c0-5.4-0.1-10.8-0.1-16.1c0-0.2,0-0.4,0.1-0.5L411,329z
			"/>
		<path class="st3" d="M411,232l0.1,17.2l-19.4,0.1c-0.1-0.2-0.1-0.4-0.1-0.6c0-5.4-0.1-10.7-0.1-16.1c0-0.2,0-0.4,0.1-0.5L411,232z
			"/>
		<path class="st3" d="M429.5,216.2l0.1,17.2l-19.4,0.1c-0.1-0.2-0.1-0.4-0.1-0.6c0-5.4-0.1-10.7-0.1-16.1c0-0.2,0-0.4,0.1-0.5
			L429.5,216.2z"/>
		<path class="st5" d="M429.5,345.1l0.1,17.2l-19.4,0.1c-0.1-0.2-0.1-0.4-0.1-0.6c0-5.4-0.1-10.7-0.1-16.1c0-0.2,0-0.4,0.1-0.5
			L429.5,345.1z"/>
		<path class="st3" d="M448.4,329l0.1,17.2l-19.4,0.1c-0.1-0.2-0.1-0.4-0.1-0.6c-0.1-5.4-0.1-10.8-0.1-16.1c0-0.2,0-0.4,0.1-0.5
			L448.4,329z"/>
		<path class="st3" d="M448.4,232l0.1,17.2l-19.4,0.1c-0.1-0.2-0.1-0.4-0.1-0.6c-0.1-5.4-0.1-10.7-0.1-16.1c0-0.2,0-0.4,0.1-0.5
			L448.4,232z"/>
		<path class="st3" d="M448.4,247.8l0.1,17.2l-19.4,0.1c-0.1-0.2-0.1-0.4-0.1-0.6c-0.1-5.4-0.1-10.7-0.1-16.1c0-0.2,0-0.4,0.1-0.5
			L448.4,247.8z"/>
		<path class="st3" d="M429.5,264.6l0.1,17.2l-19.4,0.1c-0.1-0.2-0.1-0.4-0.1-0.6c0-5.4-0.1-10.7-0.1-16.1c0-0.2,0-0.4,0.1-0.5
			L429.5,264.6z"/>
		<path class="st3" d="M429.5,280.7l0.1,17.2l-19.4,0.1c-0.1-0.2-0.1-0.4-0.1-0.6c0-5.4-0.1-10.8-0.1-16.1c0-0.2,0-0.4,0.1-0.5
			L429.5,280.7z"/>
		<path class="st3" d="M429.5,296.8l0.1,17.2l-19.4,0.1c-0.1-0.2-0.1-0.4-0.1-0.6c0-5.4-0.1-10.7-0.1-16.1c0-0.2,0-0.3,0.1-0.5
			L429.5,296.8z"/>
		<path class="st3" d="M240.1,261.8l0.1,17.2l-19.4,0.1c-0.1-0.2-0.1-0.4-0.1-0.6c0-5.4-0.1-10.8-0.1-16.1c0-0.2,0-0.4,0.1-0.5
			L240.1,261.8z"/>
		<path class="st3" d="M240.1,278.7l0.1,17.2l-19.4,0.1c-0.1-0.2-0.1-0.4-0.1-0.6c0-5.4-0.1-10.7-0.1-16.1c0-0.2,0-0.4,0.1-0.5
			L240.1,278.7z"/>
		<path class="st5" d="M221.2,295.3l0.1,17.2l-19.4,0.1c-0.1-0.2-0.1-0.4-0.1-0.6c0-5.4-0.1-10.7-0.1-16.1c0-0.2,0-0.4,0.1-0.5
			L221.2,295.3z"/>
		<path class="st4" d="M147.5,263.6l0.1,17.2l-19.4,0.1c-0.1-0.2-0.1-0.4-0.1-0.6c0-5.4-0.1-10.8-0.1-16.1c0-0.2,0-0.4,0.1-0.5
			L147.5,263.6z"/>
		<path class="st2" d="M166.4,247.8l0.1,17.2l-19.4,0.1c-0.1-0.2-0.1-0.4-0.1-0.6c0-5.4-0.1-10.7-0.1-16.1c0-0.2,0-0.4,0.1-0.5
			L166.4,247.8z"/>
		<path class="st2" d="M185.8,247.8L186,265l-19.4,0.1c-0.1-0.2-0.1-0.4-0.1-0.6c0-5.4-0.1-10.7-0.1-16.1c0-0.2,0-0.4,0.1-0.5
			L185.8,247.8z"/>
		<path class="st2" d="M205.3,247.8l0.1,17.2l-19.4,0.1c-0.1-0.2-0.1-0.4-0.1-0.6c0-5.4-0.1-10.7-0.1-16.1c0-0.2,0-0.4,0.1-0.5
			L205.3,247.8z"/>
		<path class="st2" d="M224.2,232l0.1,17.2l-19.4,0.1c-0.1-0.2-0.1-0.4-0.1-0.6c0-5.4-0.1-10.7-0.1-16.1c0-0.2,0-0.4,0.1-0.5
			L224.2,232z"/>
		<path class="st2" d="M242.9,232l0.1,17.2l-19.4,0.1c-0.1-0.2-0.1-0.4-0.1-0.6c0-5.4-0.1-10.7-0.1-16.1c0-0.2,0-0.4,0.1-0.5
			L242.9,232z"/>
		<path class="st2" d="M261.7,232l0.1,17.2l-19.4,0.1c-0.1-0.2-0.1-0.4-0.1-0.6c0-5.4-0.1-10.7-0.1-16.1c0-0.2,0-0.4,0.1-0.5
			L261.7,232z"/>
		<path class="st2" d="M280.4,232l0.1,17.2l-19.4,0.1c-0.1-0.2-0.1-0.4-0.1-0.6c0-5.4-0.1-10.7-0.1-16.1c0-0.2,0-0.4,0.1-0.5
			L280.4,232z"/>
		<path class="st2" d="M299.1,232l0.1,17.2l-19.4,0.1c-0.1-0.2-0.1-0.4-0.1-0.6c0-5.4-0.1-10.7-0.1-16.1c0-0.2,0-0.4,0.1-0.5
			L299.1,232z"/>
		<path class="st2" d="M317.8,232l0.1,17.2l-19.4,0.1c-0.1-0.2-0.1-0.4-0.1-0.6c0-5.4-0.1-10.7-0.1-16.1c0-0.2,0-0.4,0.1-0.5
			L317.8,232z"/>
		<path class="st2" d="M264.1,215.3l0.1,17.2l-21.9,0.1c-0.1-0.2-0.1-0.4-0.1-0.6c0-5.4-0.1-10.7-0.1-16.1c0-0.2,0-0.4,0.1-0.5
			L264.1,215.3z"/>
		<path class="st2" d="M282.4,215.3l0.1,17.2l-19.4,0.1c-0.1-0.2-0.1-0.4-0.1-0.6c0-5.4-0.1-10.7-0.1-16.1c0-0.2,0-0.4,0.1-0.5
			L282.4,215.3z"/>
		<path class="st2" d="M334.3,247.8l0.1,17.2l-19.4,0.1c-0.1-0.2-0.1-0.4-0.1-0.6c0-5.4-0.1-10.7-0.1-16.1c0-0.2,0-0.4,0.1-0.5
			L334.3,247.8z"/>
		<path class="st2" d="M353.7,247.8l0.1,17.2l-19.4,0.1c-0.1-0.2-0.1-0.4-0.1-0.6c0-5.4-0.1-10.7-0.1-16.1c0-0.2,0-0.4,0.1-0.5
			L353.7,247.8z"/>
		<path class="st2" d="M372.8,265.3l0.1,17.2l-19.4,0.1c-0.1-0.2-0.1-0.4-0.1-0.6c-0.1-5.4-0.1-10.8-0.1-16.1c0-0.2,0-0.4,0.1-0.5
			L372.8,265.3z"/>
		<path class="st2" d="M392.2,265.3l0.1,17.2l-19.4,0.1c-0.1-0.2-0.1-0.4-0.1-0.6c0-5.4-0.1-10.8-0.1-16.1c0-0.2,0-0.4,0.1-0.5
			L392.2,265.3z"/>
		<path class="st2" d="M411,248.2l0.1,17.2l-19.4,0.1c-0.1-0.2-0.1-0.4-0.1-0.6c0-5.4-0.1-10.7-0.1-16.1c0-0.2,0-0.4,0.1-0.5
			L411,248.2z"/>
		<path class="st2" d="M429.5,232.4l0.1,17.2l-19.4,0.1c-0.1-0.2-0.1-0.4-0.1-0.6c0-5.4-0.1-10.7-0.1-16.1c0-0.2,0-0.4,0.1-0.5
			L429.5,232.4z"/>
		<path class="st1" d="M429.5,248.5l0.1,17.2l-19.4,0.1c-0.1-0.2-0.1-0.4-0.1-0.6c0-5.4-0.1-10.7-0.1-16.1c0-0.2,0-0.3,0.1-0.5
			L429.5,248.5z"/>
		<path class="st1" d="M338,215.3l0.1,17.2l-19.4,0.1c-0.1-0.2-0.1-0.4-0.1-0.6c0-5.4-0.1-10.7-0.1-16.1c0-0.2,0-0.3,0.1-0.5
			L338,215.3z"/>
		<path class="st1" d="M356.7,215.3l0.1,17.2l-19.4,0.1c-0.1-0.2-0.1-0.4-0.1-0.6c0-5.4-0.1-10.7-0.1-16.1c0-0.2,0-0.4,0.1-0.5
			L356.7,215.3z"/>
		<path class="st1" d="M354.2,295.3l0.1,17.2l-19.4,0.1c-0.1-0.2-0.1-0.4-0.1-0.6c0-5.4-0.1-10.7-0.1-16.1c0-0.2,0-0.4,0.1-0.5
			L354.2,295.3z"/>
		<path class="st1" d="M372.8,295.3l0.1,17.2l-19.4,0.1c-0.1-0.2-0.1-0.4-0.1-0.6c-0.1-5.4-0.1-10.7-0.1-16.1c0-0.2,0-0.4,0.1-0.5
			L372.8,295.3z"/>
		<path class="st1" d="M392.2,295.3l0.1,17.2l-19.4,0.1c-0.1-0.2-0.1-0.4-0.1-0.6c0-5.4-0.1-10.7-0.1-16.1c0-0.2,0-0.4,0.1-0.5
			L392.2,295.3z"/>
		<path class="st1" d="M240.1,295.3l0.1,17.2l-19.4,0.1c-0.1-0.2-0.1-0.4-0.1-0.6c0-5.4-0.1-10.7-0.1-16.1c0-0.2,0-0.4,0.1-0.5
			L240.1,295.3z"/>
		<path class="st1" d="M429.5,329l0.1,17.2l-19.4,0.1c-0.1-0.2-0.1-0.4-0.1-0.6c0-5.4-0.1-10.8-0.1-16.1c0-0.2,0-0.4,0.1-0.5
			L429.5,329z"/>
		<path class="st3" d="M263,198.7l0.1,17.2l-19.4,0.1c-0.1-0.2-0.1-0.4-0.1-0.6c0-5.4-0.1-10.7-0.1-16.1c0-0.2,0-0.3,0.1-0.5
			L263,198.7z"/>
		<path class="st3" d="M282.3,198.7l0.1,17.2l-19.4,0.1c-0.1-0.2-0.1-0.4-0.1-0.6c-0.1-5.4-0.1-10.7-0.1-16.1c0-0.2,0-0.3,0.1-0.5
			L282.3,198.7z"/>
		<path class="st3" d="M301.9,182.1l0.1,17.2l-19.4,0.1c-0.1-0.2-0.1-0.4-0.1-0.6c0-5.4-0.1-10.7-0.1-16.1c0-0.2,0-0.4,0.1-0.5
			L301.9,182.1z"/>
		<path class="st3" d="M321.3,182.1l0.1,17.2l-19.4,0.1c-0.1-0.2-0.1-0.4-0.1-0.6c0-5.4-0.1-10.7-0.1-16.1c0-0.2,0-0.4,0.1-0.5
			L321.3,182.1z"/>
		<path class="st3" d="M340.8,182.1l0.2,17.2l-19.4,0.1c-0.1-0.2-0.1-0.4-0.1-0.6c0-5.4-0.1-10.7-0.1-16.1c0-0.2,0-0.4,0.1-0.5
			L340.8,182.1z"/>
		<path class="st3" d="M359.2,198.7l0.1,17.2l-19.4,0.1c-0.1-0.2-0.1-0.4-0.1-0.6c0-5.4-0.1-10.7-0.1-16.1c0-0.2,0-0.4,0.1-0.5
			L359.2,198.7z"/>
		<path class="st3" d="M224.2,215.3l0.1,17.2l-19.4,0.1c-0.1-0.2-0.1-0.4-0.1-0.6c0-5.4-0.1-10.7-0.1-16.1c0-0.2,0-0.4,0.1-0.5
			L224.2,215.3z"/>
		<path class="st3" d="M243.6,215.3l0.1,17.2l-19.4,0.1c-0.1-0.2-0.1-0.4-0.1-0.6c0-5.4-0.1-10.7-0.1-16.1c0-0.2,0-0.4,0.1-0.5
			L243.6,215.3z"/>
		<path class="st3" d="M300.9,215.3l0.1,17.2l-19.4,0.1c-0.1-0.2-0.1-0.4-0.1-0.6c-0.1-5.4-0.1-10.7-0.1-16.1c0-0.2,0-0.4,0.1-0.5
			L300.9,215.3z"/>
		<path class="st3" d="M320.3,215.3l0.1,17.2l-19.4,0.1c-0.1-0.2-0.1-0.4-0.1-0.6c0-5.4-0.1-10.7-0.1-16.1c0-0.2,0-0.4,0.1-0.5
			L320.3,215.3z"/>
		<path class="st5" d="M334.3,232l0.1,17.2l-19.4,0.1c-0.1-0.2-0.1-0.4-0.1-0.6c0-5.4-0.1-10.7-0.1-16.1c0-0.2,0-0.4,0.1-0.5
			L334.3,232z"/>
		<path class="st5" d="M353.7,232l0.1,17.2l-19.4,0.1c-0.1-0.2-0.1-0.4-0.1-0.6c0-5.4-0.1-10.7-0.1-16.1c0-0.2,0-0.4,0.1-0.5
			L353.7,232z"/>
		<path class="st3" d="M181.9,312.3l0.1,17.2l-19.4,0.1c-0.1-0.2-0.1-0.4-0.1-0.6c-0.1-5.4-0.1-10.7-0.1-16.1c0-0.2,0-0.4,0.1-0.5
			L181.9,312.3z"/>
		<path class="st3" d="M200.9,312.3l0.1,17.2l-19.4,0.1c-0.1-0.2-0.1-0.4-0.1-0.6c0-5.4-0.1-10.7-0.1-16.1c0-0.2,0-0.4,0.1-0.5
			L200.9,312.3z"/>
		<path class="st5" d="M353.2,312.3l0.1,17.2l-19.4,0.1c-0.1-0.2-0.1-0.4-0.1-0.6c0-5.4-0.1-10.7-0.1-16.1c0-0.2,0-0.4,0.1-0.5
			L353.2,312.3z"/>
		<path class="st5" d="M372.2,312.3l0.1,17.2l-19.4,0.1c-0.1-0.2-0.1-0.4-0.1-0.6c0-5.4-0.1-10.7-0.1-16.1c0-0.2,0-0.4,0.1-0.5
			L372.2,312.3z"/>
		<path class="st5" d="M391.2,312.3l0.1,17.2l-19.4,0.1c-0.1-0.2-0.1-0.4-0.1-0.6c0-5.4-0.1-10.7-0.1-16.1c0-0.2,0-0.4,0.1-0.5
			L391.2,312.3z"/>
		<path class="st3" d="M448.4,312.4l0.1,17.2l-19.4,0.1c-0.1-0.2-0.1-0.4-0.1-0.6c-0.1-5.4-0.1-10.7-0.1-16.1c0-0.2,0-0.3,0.1-0.5
			L448.4,312.4z"/>
		<path class="st1" d="M296.1,312.3l0.1,17.2l-19.4,0.1c-0.1-0.2-0.1-0.4-0.1-0.6c0-5.4-0.1-10.7-0.1-16.1c0-0.2,0-0.4,0.1-0.5
			L296.1,312.3z"/>
		<path class="st1" d="M315.1,312.3l0.1,17.2l-19.4,0.1c-0.1-0.2-0.1-0.4-0.1-0.6c0-5.4-0.1-10.7-0.1-16.1c0-0.2,0-0.4,0.1-0.5
			L315.1,312.3z"/>
		<path class="st1" d="M334.1,312.3l0.1,17.2l-19.4,0.1c-0.1-0.2-0.1-0.4-0.1-0.6c0-5.4-0.1-10.7-0.1-16.1c0-0.2,0-0.4,0.1-0.5
			L334.1,312.3z"/>
		<path class="st1" d="M239,312.3l0.1,17.2l-19.4,0.1c-0.1-0.2-0.1-0.4-0.1-0.6c0-5.4-0.1-10.7-0.1-16.1c0-0.2,0-0.4,0.1-0.5
			L239,312.3z"/>
		<path class="st1" d="M258,312.3l0.1,17.2l-19.4,0.1c-0.1-0.2-0.1-0.4-0.1-0.6c0-5.4-0.1-10.7-0.1-16.1c0-0.2,0-0.4,0.1-0.5
			L258,312.3z"/>
		<path class="st1" d="M277,312.3l0.1,17.2l-19.4,0.1c-0.1-0.2-0.1-0.4-0.1-0.6c0-5.4-0.1-10.7-0.1-16.1c0-0.2,0-0.4,0.1-0.5
			L277,312.3z"/>
		<path class="st1" d="M219.9,312.3l0.1,17.2l-19.4,0.1c-0.1-0.2-0.1-0.4-0.1-0.6c0-5.4-0.1-10.7-0.1-16.1c0-0.2,0-0.4,0.1-0.5
			L219.9,312.3z"/>
		<path class="st3" d="M429.3,312.9l0.1,17.2l-19.4,0.1c-0.1-0.2-0.1-0.4-0.1-0.6c0-5.4-0.1-10.7-0.1-16.1c0-0.2,0-0.4,0.1-0.5
			L429.3,312.9z"/>
		<path class="st4" d="M166.4,279.3l0.1,17.2l-19.4,0.1c-0.1-0.2-0.1-0.4-0.1-0.6c0-5.4-0.1-10.8-0.1-16.1c0-0.2,0-0.4,0.1-0.5
			L166.4,279.3z"/>
		<path class="st3" d="M147.5,279.3l0.1,17.2l-19.4,0.1c-0.1-0.2-0.1-0.4-0.1-0.6c0-5.4-0.1-10.8-0.1-16.1c0-0.2,0-0.4,0.1-0.5
			L147.5,279.3z"/>
		<path class="st3" d="M166.4,295.3l0.1,17.2l-19.4,0.1c-0.1-0.2-0.1-0.4-0.1-0.6c0-5.4-0.1-10.7-0.1-16.1c0-0.2,0.1-0.4,0.1-0.5
			L166.4,295.3z"/>
		<path class="st3" d="M147.5,247.8l0.1,17.2l-19.4,0.1c-0.1-0.2-0.1-0.4-0.1-0.6c0-5.4-0.1-10.7-0.1-16.1c0-0.2,0-0.4,0.1-0.5
			L147.5,247.8z"/>
		<path class="st3" d="M129.5,263.6l0.1,17.2l-19.4,0.1c-0.1-0.2-0.1-0.4-0.1-0.6c0-5.4-0.1-10.7-0.1-16.1c0-0.2,0-0.4,0.1-0.5
			L129.5,263.6z"/>
		<path class="st6" d="M185.9,264.5l0,17.2l-19.4,0c-0.1-0.2-0.1-0.4-0.1-0.6c0-5.4,0-10.8,0-16.1c0-0.2,0-0.4,0.1-0.5L185.9,264.5z
			"/>
		<path class="st3" d="M282.5,359.1l0.1,17.2l-19.4,0.1c-0.1-0.2-0.1-0.4-0.1-0.6c0-5.4-0.1-10.7-0.1-16.1c0-0.2,0-0.4,0.1-0.5
			L282.5,359.1z"/>
		<path class="st3" d="M300.4,359.1l0.1,17.2l-19.4,0.1c-0.1-0.2-0.1-0.4-0.1-0.6c0-5.4-0.1-10.7-0.1-16.1c0-0.2,0-0.4,0.1-0.5
			L300.4,359.1z"/>
	</g>
</g>
</svg>
