<?xml version="1.0" encoding="utf-8"?>
<!-- Generator: Adobe Illustrator 23.1.1, SVG Export Plug-In . SVG Version: 6.00 Build 0)  -->
<svg version="1.1" id="Layer_1" xmlns="http://www.w3.org/2000/svg" xmlns:xlink="http://www.w3.org/1999/xlink" x="0px" y="0px"
	 viewBox="0 0 432 432" style="enable-background:new 0 0 432 432;" xml:space="preserve">
<style type="text/css">
	.st0{fill:#D25825;}
	.st1{fill:#E6DAD1;}
	.st2{fill:#F06325;}
	.st3{fill:#F05825;}
	.st4{fill:#FDC605;}
	.st5{fill:#333333;}
	.st6{fill:#FFE401;}
	.st7{fill:#FDD106;}
</style>
<title>icon-bomb</title>
<g>
	<g id="Layer_1-2">
		
			<rect x="85.2" y="237.5" transform="matrix(1.500928e-02 -0.9999 0.9999 1.500928e-02 -153.6504 337.3682)" class="st0" width="18.4" height="18.4"/>
		
			<rect x="85.2" y="255.2" transform="matrix(1.500928e-02 -0.9999 0.9999 1.500928e-02 -171.3862 354.8438)" class="st0" width="18.4" height="18.4"/>
		
			<rect x="103.6" y="237.5" transform="matrix(1.500928e-02 -0.9999 0.9999 1.500928e-02 -135.5218 355.7668)" class="st0" width="18.4" height="18.4"/>
		
			<rect x="103.6" y="255.2" transform="matrix(1.500928e-02 -0.9999 0.9999 1.500928e-02 -153.2636 373.2363)" class="st0" width="18.4" height="18.4"/>
		
			<rect x="122" y="237.5" transform="matrix(1.500928e-02 -0.9999 0.9999 1.500928e-02 -117.4054 374.1653)" class="st0" width="18.4" height="18.4"/>
		
			<rect x="122" y="255.2" transform="matrix(1.500928e-02 -0.9999 0.9999 1.500928e-02 -135.1352 391.6348)" class="st0" width="18.4" height="18.4"/>
		
			<rect x="140.4" y="237.5" transform="matrix(1.500928e-02 -0.9999 0.9999 1.500928e-02 -99.2769 392.5638)" class="st0" width="18.4" height="18.4"/>
		
			<rect x="140.4" y="255.2" transform="matrix(1.500928e-02 -0.9999 0.9999 1.500928e-02 -117.0187 410.0332)" class="st0" width="18.4" height="18.4"/>
		
			<rect x="158.8" y="237.5" transform="matrix(1.500928e-02 -0.9999 0.9999 1.500928e-02 -81.1605 410.9622)" class="st0" width="18.4" height="18.4"/>
		
			<rect x="158.8" y="255.2" transform="matrix(1.500928e-02 -0.9999 0.9999 1.500928e-02 -98.8902 428.4317)" class="st1" width="18.4" height="18.4"/>
		
			<rect x="177.2" y="237.5" transform="matrix(1.500928e-02 -0.9999 0.9999 1.500928e-02 -63.032 429.3607)" class="st2" width="18.4" height="18.4"/>
		
			<rect x="177.2" y="255.2" transform="matrix(1.500928e-02 -0.9999 0.9999 1.500928e-02 -80.7738 446.8301)" class="st0" width="18.4" height="18.4"/>
		
			<rect x="195.6" y="237.5" transform="matrix(1.500928e-02 -0.9999 0.9999 1.500928e-02 -44.9094 447.7532)" class="st3" width="18.4" height="18.4"/>
		
			<rect x="195.6" y="255.2" transform="matrix(1.500928e-02 -0.9999 0.9999 1.500928e-02 -62.6452 465.2287)" class="st0" width="18.4" height="18.4"/>
		
			<rect x="214" y="237.5" transform="matrix(1.500928e-02 -0.9999 0.9999 1.500928e-02 -26.7809 466.1517)" class="st3" width="18.4" height="18.4"/>
		
			<rect x="214" y="255.2" transform="matrix(1.500928e-02 -0.9999 0.9999 1.500928e-02 -44.5227 483.6212)" class="st3" width="18.4" height="18.4"/>
		
			<rect x="232.4" y="237.5" transform="matrix(1.500928e-02 -0.9999 0.9999 1.500928e-02 -8.7174 484.4964)" class="st3" width="18.4" height="18.4"/>
		
			<rect x="232.4" y="255.2" transform="matrix(1.500928e-02 -0.9999 0.9999 1.500928e-02 -26.4532 501.972)" class="st3" width="18.4" height="18.4"/>
		
			<rect x="250.8" y="237.5" transform="matrix(1.500928e-02 -0.9999 0.9999 1.500928e-02 9.4111 502.8949)" class="st0" width="18.4" height="18.4"/>
		
			<rect x="250.8" y="255.2" transform="matrix(1.500928e-02 -0.9999 0.9999 1.500928e-02 -8.3307 520.3644)" class="st0" width="18.4" height="18.4"/>
		
			<rect x="103.6" y="201.6" transform="matrix(1.500928e-02 -0.9999 0.9999 1.500928e-02 -99.6681 320.4393)" class="st0" width="18.4" height="18.4"/>
		
			<rect x="103.6" y="219.4" transform="matrix(1.500928e-02 -0.9999 0.9999 1.500928e-02 -117.4039 337.9149)" class="st0" width="18.4" height="18.4"/>
		
			<rect x="122" y="201.6" transform="matrix(1.500928e-02 -0.9999 0.9999 1.500928e-02 -81.5396 338.8378)" class="st0" width="18.4" height="18.4"/>
		
			<rect x="122" y="219.4" transform="matrix(1.500928e-02 -0.9999 0.9999 1.500928e-02 -99.2814 356.3073)" class="st0" width="18.4" height="18.4"/>
		
			<rect x="140.4" y="201.6" transform="matrix(1.500928e-02 -0.9999 0.9999 1.500928e-02 -63.4172 357.2423)" class="st0" width="18.4" height="18.4"/>
		
			<rect x="140.4" y="219.4" transform="matrix(1.500928e-02 -0.9999 0.9999 1.500928e-02 -81.159 374.7118)" class="st0" width="18.4" height="18.4"/>
		
			<rect x="158.8" y="201.6" transform="matrix(1.500928e-02 -0.9999 0.9999 1.500928e-02 -45.2947 375.6347)" class="st3" width="18.4" height="18.4"/>
		
			<rect x="158.8" y="219.4" transform="matrix(1.500928e-02 -0.9999 0.9999 1.500928e-02 -63.0365 393.1042)" class="st2" width="18.4" height="18.4"/>
		
			<rect x="177.2" y="201.6" transform="matrix(1.500928e-02 -0.9999 0.9999 1.500928e-02 -27.1723 394.0392)" class="st3" width="18.4" height="18.4"/>
		
			<rect x="177.2" y="219.4" transform="matrix(1.500928e-02 -0.9999 0.9999 1.500928e-02 -44.9141 411.5087)" class="st3" width="18.4" height="18.4"/>
		
			<rect x="195.6" y="201.6" transform="matrix(1.500928e-02 -0.9999 0.9999 1.500928e-02 -9.0497 412.4317)" class="st3" width="18.4" height="18.4"/>
		
			<rect x="195.6" y="219.4" transform="matrix(1.500928e-02 -0.9999 0.9999 1.500928e-02 -26.7854 429.8952)" class="st3" width="18.4" height="18.4"/>
		
			<rect x="214" y="201.6" transform="matrix(1.500928e-02 -0.9999 0.9999 1.500928e-02 9.0788 430.8302)" class="st3" width="18.4" height="18.4"/>
		
			<rect x="214" y="219.4" transform="matrix(1.500928e-02 -0.9999 0.9999 1.500928e-02 -8.663 448.2997)" class="st3" width="18.4" height="18.4"/>
		
			<rect x="232.4" y="201.6" transform="matrix(1.500928e-02 -0.9999 0.9999 1.500928e-02 27.1423 449.1749)" class="st0" width="18.4" height="18.4"/>
		
			<rect x="232.4" y="219.4" transform="matrix(1.500928e-02 -0.9999 0.9999 1.500928e-02 9.4005 466.6444)" class="st3" width="18.4" height="18.4"/>
		
			<rect x="122" y="184.3" transform="matrix(1.500928e-02 -0.9999 0.9999 1.500928e-02 -64.1918 321.7446)" class="st0" width="18.4" height="18.4"/>
		
			<rect x="140.4" y="166.5" transform="matrix(1.500928e-02 -0.9999 0.9999 1.500928e-02 -28.3336 322.6735)" class="st0" width="18.4" height="18.4"/>
		
			<rect x="140.4" y="184.3" transform="matrix(1.500928e-02 -0.9999 0.9999 1.500928e-02 -46.0694 340.1491)" class="st0" width="18.4" height="18.4"/>
		
			<rect x="158.8" y="166.5" transform="matrix(1.500928e-02 -0.9999 0.9999 1.500928e-02 -10.2051 341.072)" class="st0" width="18.4" height="18.4"/>
		
			<rect x="158.8" y="184.3" transform="matrix(1.500928e-02 -0.9999 0.9999 1.500928e-02 -27.9469 358.5415)" class="st0" width="18.4" height="18.4"/>
		
			<rect x="177.2" y="166.5" transform="matrix(1.500928e-02 -0.9999 0.9999 1.500928e-02 7.9114 359.4705)" class="st0" width="18.4" height="18.4"/>
		
			<rect x="177.2" y="184.3" transform="matrix(1.500928e-02 -0.9999 0.9999 1.500928e-02 -9.8245 376.946)" class="st3" width="18.4" height="18.4"/>
		
			<rect x="195.6" y="166.5" transform="matrix(1.500928e-02 -0.9999 0.9999 1.500928e-02 26.0399 377.869)" class="st0" width="18.4" height="18.4"/>
		
			<rect x="195.6" y="184.3" transform="matrix(1.500928e-02 -0.9999 0.9999 1.500928e-02 8.3042 395.3326)" class="st3" width="18.4" height="18.4"/>
		
			<rect x="214" y="184.3" transform="matrix(1.500928e-02 -0.9999 0.9999 1.500928e-02 26.4266 413.737)" class="st0" width="18.4" height="18.4"/>
		
			<rect x="158.8" y="157.7" transform="matrix(1.500928e-02 -0.9999 0.9999 1.500928e-02 -1.3401 332.3372)" class="st0" width="18.4" height="18.4"/>
		
			<rect x="177.2" y="157.7" transform="matrix(1.500928e-02 -0.9999 0.9999 1.500928e-02 16.7763 350.7356)" class="st0" width="18.4" height="18.4"/>
		
			<rect x="233.1" y="291.1" transform="matrix(1.500928e-02 -0.9999 0.9999 1.500928e-02 -61.5979 538.1173)" class="st0" width="18.4" height="18.4"/>
		
			<rect x="231.5" y="273.2" transform="matrix(1.999600e-02 -0.9998 0.9998 1.999600e-02 -46.3891 517.3608)" class="st0" width="18.4" height="18.4"/>
		
			<rect x="214.7" y="291.1" transform="matrix(1.500928e-02 -0.9999 0.9999 1.500928e-02 -79.7171 519.72)" class="st0" width="18.4" height="18.4"/>
		
			<rect x="214.3" y="273.2" transform="matrix(1.999600e-02 -0.9998 0.9998 1.999600e-02 -63.3109 500.0972)" class="st3" width="18.4" height="18.4"/>
		
			<rect x="196.3" y="291.1" transform="matrix(1.500928e-02 -0.9999 0.9999 1.500928e-02 -97.8423 501.3286)" class="st3" width="18.4" height="18.4"/>
		
			<rect x="196.3" y="273.4" transform="matrix(1.500928e-02 -0.9999 0.9999 1.500928e-02 -80.1034 483.8579)" class="st3" width="18.4" height="18.4"/>
		
			<rect x="177.9" y="291.1" transform="matrix(1.500928e-02 -0.9999 0.9999 1.500928e-02 -115.9553 482.9253)" class="st3" width="18.4" height="18.4"/>
		
			<rect x="178" y="273.4" transform="matrix(1.500928e-02 -0.9999 0.9999 1.500928e-02 -98.2225 465.4607)" class="st0" width="18.4" height="18.4"/>
		
			<rect x="159.6" y="291.1" transform="matrix(1.500928e-02 -0.9999 0.9999 1.500928e-02 -134.0806 464.534)" class="st0" width="18.4" height="18.4"/>
		
			<rect x="159.6" y="273.4" transform="matrix(1.500928e-02 -0.9999 0.9999 1.500928e-02 -116.3417 447.0633)" class="st0" width="18.4" height="18.4"/>
		
			<rect x="141.2" y="291.1" transform="matrix(1.500928e-02 -0.9999 0.9999 1.500928e-02 -152.2058 446.1426)" class="st0" width="18.4" height="18.4"/>
		
			<rect x="141.2" y="273.4" transform="matrix(1.500928e-02 -0.9999 0.9999 1.500928e-02 -134.4669 428.6719)" class="st3" width="18.4" height="18.4"/>
		
			<rect x="122.8" y="291.1" transform="matrix(1.500928e-02 -0.9999 0.9999 1.500928e-02 -170.331 427.7392)" class="st0" width="18.4" height="18.4"/>
		
			<rect x="122.8" y="273.4" transform="matrix(1.500928e-02 -0.9999 0.9999 1.500928e-02 -152.5861 410.2746)" class="st0" width="18.4" height="18.4"/>
		
			<rect x="104.4" y="291.1" transform="matrix(1.500928e-02 -0.9999 0.9999 1.500928e-02 -188.3955 409.3973)" class="st0" width="18.4" height="18.4"/>
		
			<rect x="104.4" y="273.4" transform="matrix(1.500928e-02 -0.9999 0.9999 1.500928e-02 -170.6507 391.9327)" class="st0" width="18.4" height="18.4"/>
		
			<rect x="214.7" y="309.6" transform="matrix(1.999600e-02 -0.9998 0.9998 1.999600e-02 -99.2897 536.319)" class="st0" width="18.4" height="18.4"/>
		
			<rect x="196.3" y="326.2" transform="matrix(1.500928e-02 -0.9999 0.9999 1.500928e-02 -132.9266 535.8943)" class="st0" width="18.4" height="18.4"/>
		
			<rect x="196.4" y="308.5" transform="matrix(1.500928e-02 -0.9999 0.9999 1.500928e-02 -115.1877 518.4237)" class="st0" width="18.4" height="18.4"/>
		
			<rect x="178" y="326.2" transform="matrix(1.500928e-02 -0.9999 0.9999 1.500928e-02 -151.0396 517.4911)" class="st0" width="18.4" height="18.4"/>
		
			<rect x="178" y="308.5" transform="matrix(1.500928e-02 -0.9999 0.9999 1.500928e-02 -133.3008 500.0204)" class="st0" width="18.4" height="18.4"/>
		
			<rect x="159.5" y="326.2" transform="matrix(1.500928e-02 -0.9999 0.9999 1.500928e-02 -169.1709 499.0937)" class="st0" width="18.4" height="18.4"/>
		
			<rect x="159.6" y="308.5" transform="matrix(1.500928e-02 -0.9999 0.9999 1.500928e-02 -151.426 481.6291)" class="st0" width="18.4" height="18.4"/>
		
			<rect x="141.2" y="326.2" transform="matrix(1.500928e-02 -0.9999 0.9999 1.500928e-02 -187.29 480.6963)" class="st0" width="18.4" height="18.4"/>
		
			<rect x="141.2" y="308.5" transform="matrix(1.500928e-02 -0.9999 0.9999 1.500928e-02 -169.5512 463.2377)" class="st0" width="18.4" height="18.4"/>
		
			<rect x="122.8" y="308.5" transform="matrix(1.500928e-02 -0.9999 0.9999 1.500928e-02 -187.6704 444.8403)" class="st0" width="18.4" height="18.4"/>
		
			<rect x="96.3" y="219.4" transform="matrix(1.500928e-02 -0.9999 0.9999 1.500928e-02 -124.6213 330.59)" class="st0" width="18.4" height="18.4"/>
		
			<rect x="97.1" y="273.4" transform="matrix(1.500928e-02 -0.9999 0.9999 1.500928e-02 -177.868 384.6046)" class="st0" width="18.4" height="18.4"/>
		
			<rect x="240.8" y="219.4" transform="matrix(1.500928e-02 -0.9999 0.9999 1.500928e-02 17.7589 475.1273)" class="st0" width="18.4" height="18.4"/>
		
			<rect x="241.6" y="273.4" transform="matrix(1.500928e-02 -0.9999 0.9999 1.500928e-02 -35.5024 529.1316)" class="st0" width="18.4" height="18.4"/>
		
			<rect x="167.3" y="139.9" transform="matrix(1.500928e-02 -0.9999 0.9999 1.500928e-02 24.748 323.3505)" class="st4" width="18.4" height="18.4"/>
		
			<rect x="167.3" y="123" transform="matrix(1.500928e-02 -0.9999 0.9999 1.500928e-02 41.7197 306.6398)" class="st5" width="18.4" height="18.4"/>
		
			<rect x="181.6" y="106" transform="matrix(1.500928e-02 -0.9999 0.9999 1.500928e-02 72.7317 304.1904)" class="st5" width="18.4" height="18.4"/>
		
			<rect x="217.4" y="93.3" transform="matrix(1.500928e-02 -0.9999 0.9999 1.500928e-02 120.7864 327.5156)" class="st5" width="18.4" height="18.4"/>
		
			<rect x="199.7" y="93.3" transform="matrix(1.500928e-02 -0.9999 0.9999 1.500928e-02 103.317 309.7738)" class="st5" width="18.4" height="18.4"/>
		
			<rect x="234.8" y="106" transform="matrix(1.500928e-02 -0.9999 0.9999 1.500928e-02 125.1584 357.398)" class="st5" width="18.4" height="18.4"/>
		
			<rect x="252.1" y="123" transform="matrix(1.500928e-02 -0.9999 0.9999 1.500928e-02 125.2858 391.4627)" class="st5" width="18.4" height="18.4"/>
		
			<rect x="269.1" y="123" transform="matrix(1.500928e-02 -0.9999 0.9999 1.500928e-02 142.0026 408.4285)" class="st5" width="18.4" height="18.4"/>
		
			<rect x="287.2" y="123" transform="matrix(1.500928e-02 -0.9999 0.9999 1.500928e-02 159.8484 426.5523)" class="st4" width="18.4" height="18.4"/>
		
			<rect x="280.8" y="99.3" transform="matrix(1.500928e-02 -0.9999 0.9999 1.500928e-02 177.2507 390.8986)" class="st6" width="12.4" height="12.4"/>
		
			<rect x="280.8" y="87.7" transform="matrix(1.500928e-02 -0.9999 0.9999 1.500928e-02 188.8198 379.5112)" class="st6" width="12.4" height="12.4"/>
		
			<rect x="280.8" y="163.3" transform="matrix(1.500928e-02 -0.9999 0.9999 1.500928e-02 113.2439 453.954)" class="st6" width="12.4" height="12.4"/>
		
			<rect x="280.8" y="151.7" transform="matrix(1.500928e-02 -0.9999 0.9999 1.500928e-02 124.8072 442.5604)" class="st6" width="12.4" height="12.4"/>
		
			<rect x="308.6" y="99.3" transform="matrix(1.500928e-02 -0.9999 0.9999 1.500928e-02 204.5961 418.6634)" class="st6" width="12.4" height="12.4"/>
		
			<rect x="308.6" y="151.7" transform="matrix(1.500928e-02 -0.9999 0.9999 1.500928e-02 152.1587 470.3193)" class="st6" width="12.4" height="12.4"/>
		
			<rect x="320.6" y="87.3" transform="matrix(1.500928e-02 -0.9999 0.9999 1.500928e-02 228.323 418.8509)" class="st7" width="12.4" height="12.4"/>
		
			<rect x="320.6" y="164.5" transform="matrix(1.500928e-02 -0.9999 0.9999 1.500928e-02 151.207 494.8112)" class="st7" width="12.4" height="12.4"/>
		
			<rect x="322.9" y="125.5" transform="matrix(1.500928e-02 -0.9999 0.9999 1.500928e-02 192.4097 458.7545)" class="st6" width="12.4" height="12.4"/>
		
			<rect x="334.4" y="125.5" transform="matrix(1.500928e-02 -0.9999 0.9999 1.500928e-02 203.805 470.3262)" class="st6" width="12.4" height="12.4"/>
	</g>
</g>
</svg>
