<?xml version="1.0" encoding="utf-8"?>
<!-- Generator: Adobe Illustrator 23.1.1, SVG Export Plug-In . SVG Version: 6.00 Build 0)  -->
<svg version="1.1" id="Layer_1" xmlns="http://www.w3.org/2000/svg" xmlns:xlink="http://www.w3.org/1999/xlink" x="0px" y="0px"
	 viewBox="0 0 354.3 354.3" style="enable-background:new 0 0 354.3 354.3;" xml:space="preserve">
<style type="text/css">
	.st0{fill:#ECEC89;}
	.st1{fill:#D25825;}
	.st2{fill:#F3A34D;}
	.st3{fill:#FFE401;}
	.st4{fill:#FDD106;}
	.st5{fill:#808080;}
	.st6{fill:#F05825;}
	.st7{fill:#DCBB00;}
</style>
<title>icon-skull</title>
<g>
	<g id="Layer_1-2">
		
			<rect x="98" y="99" transform="matrix(1.500928e-02 -0.9999 0.9999 1.500928e-02 -2.603 210.0669)" class="st0" width="14.7" height="14.7"/>
		
			<rect x="97.9" y="84.4" transform="matrix(1.500928e-02 -0.9999 0.9999 1.500928e-02 11.957 195.7205)" class="st1" width="14.7" height="14.7"/>
		
			<rect x="98" y="128.4" transform="matrix(1.500928e-02 -0.9999 0.9999 1.500928e-02 -32.0335 239.0654)" class="st0" width="14.7" height="14.7"/>
		
			<rect x="97.9" y="113.7" transform="matrix(1.500928e-02 -0.9999 0.9999 1.500928e-02 -17.3242 224.56)" class="st2" width="14.7" height="14.7"/>
		
			<rect x="98" y="157.6" transform="matrix(1.500928e-02 -0.9999 0.9999 1.500928e-02 -61.2012 267.7931)" class="st0" width="14.7" height="14.7"/>
		
			<rect x="97.9" y="143" transform="matrix(1.500928e-02 -0.9999 0.9999 1.500928e-02 -46.6352 253.4409)" class="st0" width="14.7" height="14.7"/>
		
			<rect x="97.9" y="186.7" transform="matrix(1.500928e-02 -0.9999 0.9999 1.500928e-02 -90.3033 296.4561)" class="st0" width="14.7" height="14.7"/>
		
			<rect x="98" y="172.3" transform="matrix(1.500928e-02 -0.9999 0.9999 1.500928e-02 -75.8926 282.2688)" class="st0" width="14.7" height="14.7"/>
		
			<rect x="98.5" y="200.5" transform="matrix(1.500928e-02 -0.9999 0.9999 1.500928e-02 -103.5469 310.6818)" class="st0" width="14.7" height="14.7"/>
		
			<rect x="98.5" y="215.2" transform="matrix(1.500928e-02 -0.9999 0.9999 1.500928e-02 -118.2083 325.1281)" class="st0" width="14.7" height="14.7"/>
		
			<rect x="84.3" y="200.5" transform="matrix(1.500928e-02 -0.9999 0.9999 1.500928e-02 -117.5344 296.4859)" class="st1" width="14.7" height="14.7"/>
		
			<rect x="84.3" y="215.2" transform="matrix(1.500928e-02 -0.9999 0.9999 1.500928e-02 -132.2018 310.9262)" class="st1" width="14.7" height="14.7"/>
		
			<rect x="84.3" y="128.4" transform="matrix(1.500928e-02 -0.9999 0.9999 1.500928e-02 -45.4388 225.4604)" class="st2" width="14.7" height="14.7"/>
		
			<rect x="84.3" y="157.6" transform="matrix(1.500928e-02 -0.9999 0.9999 1.500928e-02 -74.6065 254.1881)" class="st0" width="14.7" height="14.7"/>
		
			<rect x="84.3" y="143" transform="matrix(1.500928e-02 -0.9999 0.9999 1.500928e-02 -60.0346 239.842)" class="st0" width="14.7" height="14.7"/>
		
			<rect x="84.3" y="186.7" transform="matrix(1.500928e-02 -0.9999 0.9999 1.500928e-02 -103.7026 282.8572)" class="st0" width="14.7" height="14.7"/>
		
			<rect x="84.4" y="172.3" transform="matrix(1.500928e-02 -0.9999 0.9999 1.500928e-02 -89.2919 268.6699)" class="st0" width="14.7" height="14.7"/>
		
			<rect x="70.7" y="128.4" transform="matrix(1.500928e-02 -0.9999 0.9999 1.500928e-02 -58.8966 211.7899)" class="st1" width="14.7" height="14.7"/>
		
			<rect x="70.7" y="157.6" transform="matrix(1.500928e-02 -0.9999 0.9999 1.500928e-02 -88.0644 240.5177)" class="st1" width="14.7" height="14.7"/>
		
			<rect x="70.7" y="143" transform="matrix(1.500928e-02 -0.9999 0.9999 1.500928e-02 -73.4924 226.1715)" class="st1" width="14.7" height="14.7"/>
		
			<rect x="70.7" y="186.7" transform="matrix(1.500928e-02 -0.9999 0.9999 1.500928e-02 -117.1664 269.1807)" class="st1" width="14.7" height="14.7"/>
		
			<rect x="70.7" y="172.3" transform="matrix(1.500928e-02 -0.9999 0.9999 1.500928e-02 -102.7557 254.9934)" class="st1" width="14.7" height="14.7"/>
		
			<rect x="84.3" y="99" transform="matrix(1.500928e-02 -0.9999 0.9999 1.500928e-02 -16.0024 196.468)" class="st1" width="14.7" height="14.7"/>
		
			<rect x="84.3" y="113.7" transform="matrix(1.500928e-02 -0.9999 0.9999 1.500928e-02 -30.7235 210.9611)" class="st1" width="14.7" height="14.7"/>
		
			<rect x="125.8" y="157.6" transform="matrix(1.500928e-02 -0.9999 0.9999 1.500928e-02 -33.7379 295.6654)" class="st1" width="14.7" height="14.7"/>
		
			<rect x="125.8" y="172.3" transform="matrix(1.500928e-02 -0.9999 0.9999 1.500928e-02 -48.4293 310.1412)" class="st1" width="14.7" height="14.7"/>
		
			<rect x="112.5" y="157.6" transform="matrix(1.500928e-02 -0.9999 0.9999 1.500928e-02 -46.8725 282.3351)" class="st1" width="14.7" height="14.7"/>
		
			<rect x="112.5" y="172.3" transform="matrix(1.500928e-02 -0.9999 0.9999 1.500928e-02 -61.5639 296.8109)" class="st1" width="14.7" height="14.7"/>
		
			<rect x="140.4" y="157.6" transform="matrix(1.500928e-02 -0.9999 0.9999 1.500928e-02 -19.4093 310.2075)" class="st1" width="14.7" height="14.7"/>
		
			<rect x="140.4" y="172.3" transform="matrix(1.500928e-02 -0.9999 0.9999 1.500928e-02 -34.1067 324.6892)" class="st1" width="14.7" height="14.7"/>
		
			<rect x="125.8" y="186.7" transform="matrix(1.500928e-02 -0.9999 0.9999 1.500928e-02 -62.84 324.3284)" class="st1" width="14.7" height="14.7"/>
		
			<rect x="140.4" y="186.7" transform="matrix(1.500928e-02 -0.9999 0.9999 1.500928e-02 -48.5174 338.8765)" class="st1" width="14.7" height="14.7"/>
		
			<rect x="112.7" y="186.7" transform="matrix(1.500928e-02 -0.9999 0.9999 1.500928e-02 -75.7807 311.2071)" class="st0" width="14.7" height="14.7"/>
		
			<rect x="111.9" y="143" transform="matrix(1.500928e-02 -0.9999 0.9999 1.500928e-02 -32.9006 267.3801)" class="st0" width="14.7" height="14.7"/>
		
			<rect x="111.3" y="128.4" transform="matrix(1.500928e-02 -0.9999 0.9999 1.500928e-02 -18.8989 252.3956)" class="st3" width="14.7" height="14.7"/>
		
			<rect x="111.3" y="113.7" transform="matrix(1.500928e-02 -0.9999 0.9999 1.500928e-02 -4.1836 237.8963)" class="st3" width="14.7" height="14.7"/>
		
			<rect x="125.8" y="128.4" transform="matrix(1.500928e-02 -0.9999 0.9999 1.500928e-02 -4.5702 266.9377)" class="st3" width="14.7" height="14.7"/>
		
			<rect x="125.8" y="113.7" transform="matrix(1.500928e-02 -0.9999 0.9999 1.500928e-02 10.1451 252.4384)" class="st3" width="14.7" height="14.7"/>
		
			<rect x="111.3" y="99" transform="matrix(1.500928e-02 -0.9999 0.9999 1.500928e-02 10.5316 223.3971)" class="st3" width="14.7" height="14.7"/>
		
			<rect x="125.8" y="99" transform="matrix(1.500928e-02 -0.9999 0.9999 1.500928e-02 24.8602 237.9392)" class="st3" width="14.7" height="14.7"/>
		
			<rect x="125.8" y="143" transform="matrix(1.500928e-02 -0.9999 0.9999 1.500928e-02 -19.1721 281.3253)" class="st3" width="14.7" height="14.7"/>
		
			<rect x="140.4" y="128.4" transform="matrix(1.500928e-02 -0.9999 0.9999 1.500928e-02 9.7524 281.4857)" class="st3" width="14.7" height="14.7"/>
		
			<rect x="140.4" y="113.7" transform="matrix(1.500928e-02 -0.9999 0.9999 1.500928e-02 24.4737 266.9805)" class="st3" width="14.7" height="14.7"/>
		
			<rect x="140.4" y="99" transform="matrix(1.500928e-02 -0.9999 0.9999 1.500928e-02 39.1889 252.4813)" class="st3" width="14.7" height="14.7"/>
		
			<rect x="140.4" y="143" transform="matrix(1.500928e-02 -0.9999 0.9999 1.500928e-02 -4.8434 295.8673)" class="st3" width="14.7" height="14.7"/>
		
			<rect x="155" y="127.3" transform="matrix(1.500928e-02 -0.9999 0.9999 1.500928e-02 25.2914 295.0352)" class="st3" width="14.7" height="14.7"/>
		
			<rect x="155" y="113" transform="matrix(1.500928e-02 -0.9999 0.9999 1.500928e-02 39.6544 280.8949)" class="st3" width="14.7" height="14.7"/>
		
			<rect x="155" y="98.6" transform="matrix(1.500928e-02 -0.9999 0.9999 1.500928e-02 54.0056 266.7544)" class="st3" width="14.7" height="14.7"/>
		
			<rect x="155" y="141.7" transform="matrix(1.500928e-02 -0.9999 0.9999 1.500928e-02 10.9403 309.1757)" class="st3" width="14.7" height="14.7"/>
		
			<rect x="169.5" y="128.4" transform="matrix(1.500928e-02 -0.9999 0.9999 1.500928e-02 38.4097 310.5699)" class="st3" width="14.7" height="14.7"/>
		
			<rect x="169.5" y="113.7" transform="matrix(1.500928e-02 -0.9999 0.9999 1.500928e-02 53.125 296.0706)" class="st3" width="14.7" height="14.7"/>
		
			<rect x="169.5" y="99" transform="matrix(1.500928e-02 -0.9999 0.9999 1.500928e-02 67.8461 281.5775)" class="st3" width="14.7" height="14.7"/>
		
			<rect x="169.5" y="143" transform="matrix(1.500928e-02 -0.9999 0.9999 1.500928e-02 23.8139 324.9515)" class="st3" width="14.7" height="14.7"/>
		
			<rect x="183.4" y="128.4" transform="matrix(1.500928e-02 -0.9999 0.9999 1.500928e-02 52.1444 324.5091)" class="st3" width="14.7" height="14.7"/>
		
			<rect x="183.4" y="113.7" transform="matrix(1.500928e-02 -0.9999 0.9999 1.500928e-02 66.8596 310.0098)" class="st3" width="14.7" height="14.7"/>
		
			<rect x="183.4" y="99" transform="matrix(1.500928e-02 -0.9999 0.9999 1.500928e-02 81.5748 295.5106)" class="st3" width="14.7" height="14.7"/>
		
			<rect x="183.4" y="143" transform="matrix(1.500928e-02 -0.9999 0.9999 1.500928e-02 37.5425 338.8967)" class="st3" width="14.7" height="14.7"/>
		
			<rect x="198" y="128.4" transform="matrix(1.500928e-02 -0.9999 0.9999 1.500928e-02 66.4669 339.0572)" class="st3" width="14.7" height="14.7"/>
		
			<rect x="198" y="113.7" transform="matrix(1.500928e-02 -0.9999 0.9999 1.500928e-02 81.1822 324.5579)" class="st4" width="14.7" height="14.7"/>
		
			<rect x="198" y="99" transform="matrix(1.500928e-02 -0.9999 0.9999 1.500928e-02 95.9094 310.0587)" class="st3" width="14.7" height="14.7"/>
		
			<rect x="198" y="143" transform="matrix(1.500928e-02 -0.9999 0.9999 1.500928e-02 51.8711 353.4388)" class="st3" width="14.7" height="14.7"/>
		
			<rect x="212.5" y="128.4" transform="matrix(1.500928e-02 -0.9999 0.9999 1.500928e-02 80.7956 353.5993)" class="st3" width="14.7" height="14.7"/>
		
			<rect x="212.5" y="113.7" transform="matrix(1.500928e-02 -0.9999 0.9999 1.500928e-02 95.5109 339.1)" class="st3" width="14.7" height="14.7"/>
		
			<rect x="212.5" y="99" transform="matrix(1.500928e-02 -0.9999 0.9999 1.500928e-02 110.232 324.6068)" class="st4" width="14.7" height="14.7"/>
		
			<rect x="212.5" y="143" transform="matrix(1.500928e-02 -0.9999 0.9999 1.500928e-02 66.1998 367.9808)" class="st3" width="14.7" height="14.7"/>
		
			<rect x="226.9" y="128.4" transform="matrix(1.500928e-02 -0.9999 0.9999 1.500928e-02 94.9772 367.9921)" class="st3" width="14.7" height="14.7"/>
		
			<rect x="226.9" y="113.7" transform="matrix(1.500928e-02 -0.9999 0.9999 1.500928e-02 109.6925 353.4928)" class="st3" width="14.7" height="14.7"/>
		
			<rect x="226.9" y="99" transform="matrix(1.500928e-02 -0.9999 0.9999 1.500928e-02 124.4077 338.9936)" class="st3" width="14.7" height="14.7"/>
		
			<rect x="226.9" y="143" transform="matrix(1.500928e-02 -0.9999 0.9999 1.500928e-02 80.3814 382.3737)" class="st3" width="14.7" height="14.7"/>
		
			<rect x="240.4" y="128.4" transform="matrix(1.500928e-02 -0.9999 0.9999 1.500928e-02 108.3057 381.5313)" class="st3" width="14.7" height="14.7"/>
		
			<rect x="240.4" y="113.7" transform="matrix(1.500928e-02 -0.9999 0.9999 1.500928e-02 123.021 367.032)" class="st3" width="14.7" height="14.7"/>
		
			<rect x="240.4" y="99" transform="matrix(1.500928e-02 -0.9999 0.9999 1.500928e-02 137.7362 352.5328)" class="st3" width="14.7" height="14.7"/>
		
			<rect x="240.4" y="143" transform="matrix(1.500928e-02 -0.9999 0.9999 1.500928e-02 93.71 395.9128)" class="st3" width="14.7" height="14.7"/>
		
			<rect x="254.8" y="128.4" transform="matrix(1.500928e-02 -0.9999 0.9999 1.500928e-02 122.4227 395.8585)" class="st3" width="14.7" height="14.7"/>
		
			<rect x="254.8" y="113.7" transform="matrix(1.500928e-02 -0.9999 0.9999 1.500928e-02 137.138 381.3592)" class="st5" width="14.7" height="14.7"/>
		
			<rect x="254.8" y="99" transform="matrix(1.500928e-02 -0.9999 0.9999 1.500928e-02 151.8531 366.86)" class="st5" width="14.7" height="14.7"/>
		
			<rect x="254.8" y="143" transform="matrix(1.500928e-02 -0.9999 0.9999 1.500928e-02 107.8269 410.2401)" class="st3" width="14.7" height="14.7"/>
		
			<rect x="268.9" y="128.4" transform="matrix(1.500928e-02 -0.9999 0.9999 1.500928e-02 136.3161 409.9588)" class="st6" width="14.7" height="14.7"/>
		
			<rect x="268.9" y="143" transform="matrix(1.500928e-02 -0.9999 0.9999 1.500928e-02 121.7203 424.3404)" class="st6" width="14.7" height="14.7"/>
		
			<rect x="111.3" y="84.4" transform="matrix(1.500928e-02 -0.9999 0.9999 1.500928e-02 25.0916 209.0507)" class="st3" width="14.7" height="14.7"/>
		
			<rect x="125.8" y="84.4" transform="matrix(1.500928e-02 -0.9999 0.9999 1.500928e-02 39.4203 223.5928)" class="st4" width="14.7" height="14.7"/>
		
			<rect x="140.4" y="84.4" transform="matrix(1.500928e-02 -0.9999 0.9999 1.500928e-02 53.7429 238.1409)" class="st3" width="14.7" height="14.7"/>
		
			<rect x="155" y="84.2" transform="matrix(1.500928e-02 -0.9999 0.9999 1.500928e-02 68.3507 252.6079)" class="st3" width="14.7" height="14.7"/>
		
			<rect x="169.5" y="84.4" transform="matrix(1.500928e-02 -0.9999 0.9999 1.500928e-02 82.4062 267.2311)" class="st3" width="14.7" height="14.7"/>
		
			<rect x="183.4" y="84.4" transform="matrix(1.500928e-02 -0.9999 0.9999 1.500928e-02 96.1288 281.1702)" class="st3" width="14.7" height="14.7"/>
		
			<rect x="198" y="84.4" transform="matrix(1.500928e-02 -0.9999 0.9999 1.500928e-02 110.4575 295.7123)" class="st3" width="14.7" height="14.7"/>
		
			<rect x="212.5" y="84.4" transform="matrix(1.500928e-02 -0.9999 0.9999 1.500928e-02 124.7921 310.2604)" class="st3" width="14.7" height="14.7"/>
		
			<rect x="226.9" y="84.4" transform="matrix(1.500928e-02 -0.9999 0.9999 1.500928e-02 138.9678 324.6472)" class="st3" width="14.7" height="14.7"/>
		
			<rect x="240.4" y="84.4" transform="matrix(1.500928e-02 -0.9999 0.9999 1.500928e-02 152.2963 338.1864)" class="st7" width="14.7" height="14.7"/>
		
			<rect x="111.3" y="69.9" transform="matrix(1.500928e-02 -0.9999 0.9999 1.500928e-02 39.6278 194.7399)" class="st6" width="14.7" height="14.7"/>
		
			<rect x="125.8" y="69.9" transform="matrix(1.500928e-02 -0.9999 0.9999 1.500928e-02 53.9504 209.2879)" class="st6" width="14.7" height="14.7"/>
		
			<rect x="140.4" y="69.9" transform="matrix(1.500928e-02 -0.9999 0.9999 1.500928e-02 68.279 223.83)" class="st6" width="14.7" height="14.7"/>
		
			<rect x="155" y="69.9" transform="matrix(1.500928e-02 -0.9999 0.9999 1.500928e-02 82.7077 238.4736)" class="st6" width="14.7" height="14.7"/>
		
			<rect x="169.5" y="69.9" transform="matrix(1.500928e-02 -0.9999 0.9999 1.500928e-02 96.9303 252.9202)" class="st6" width="14.7" height="14.7"/>
		
			<rect x="183.4" y="69.9" transform="matrix(1.500928e-02 -0.9999 0.9999 1.500928e-02 110.6649 266.8593)" class="st6" width="14.7" height="14.7"/>
		
			<rect x="198" y="69.9" transform="matrix(1.500928e-02 -0.9999 0.9999 1.500928e-02 124.9936 281.4014)" class="st6" width="14.7" height="14.7"/>
		
			<rect x="212.5" y="69.9" transform="matrix(1.500928e-02 -0.9999 0.9999 1.500928e-02 139.3222 295.9435)" class="st6" width="14.7" height="14.7"/>
		
			<rect x="226.9" y="69.9" transform="matrix(1.500928e-02 -0.9999 0.9999 1.500928e-02 153.4978 310.3424)" class="st6" width="14.7" height="14.7"/>
		
			<rect x="240.4" y="84.4" transform="matrix(1.500928e-02 -0.9999 0.9999 1.500928e-02 152.2963 338.1864)" class="st6" width="14.7" height="14.7"/>
		
			<rect x="254.8" y="113.7" transform="matrix(1.500928e-02 -0.9999 0.9999 1.500928e-02 137.138 381.3592)" class="st6" width="14.7" height="14.7"/>
		
			<rect x="254.8" y="99" transform="matrix(1.500928e-02 -0.9999 0.9999 1.500928e-02 151.8531 366.86)" class="st6" width="14.7" height="14.7"/>
		
			<rect x="112.8" y="200.5" transform="matrix(1.500928e-02 -0.9999 0.9999 1.500928e-02 -89.5534 324.8837)" class="st0" width="14.7" height="14.7"/>
		
			<rect x="112.7" y="215.2" transform="matrix(1.500928e-02 -0.9999 0.9999 1.500928e-02 -104.2208 339.3239)" class="st0" width="14.7" height="14.7"/>
		
			<rect x="127" y="200.5" transform="matrix(1.500928e-02 -0.9999 0.9999 1.500928e-02 -75.5659 339.0795)" class="st0" width="14.7" height="14.7"/>
		
			<rect x="126.9" y="215.2" transform="matrix(1.500928e-02 -0.9999 0.9999 1.500928e-02 -90.2394 353.5257)" class="st0" width="14.7" height="14.7"/>
		
			<rect x="141.2" y="200.5" transform="matrix(1.500928e-02 -0.9999 0.9999 1.500928e-02 -61.5784 353.2753)" class="st0" width="14.7" height="14.7"/>
		
			<rect x="141.2" y="215.2" transform="matrix(1.500928e-02 -0.9999 0.9999 1.500928e-02 -76.2459 367.7276)" class="st0" width="14.7" height="14.7"/>
		
			<rect x="155" y="170.4" transform="matrix(1.500928e-02 -0.9999 0.9999 1.500928e-02 -17.7678 337.4505)" class="st3" width="14.7" height="14.7"/>
		
			<rect x="155" y="156" transform="matrix(1.500928e-02 -0.9999 0.9999 1.500928e-02 -3.4108 323.3162)" class="st3" width="14.7" height="14.7"/>
		
			<rect x="155" y="184.7" transform="matrix(1.500928e-02 -0.9999 0.9999 1.500928e-02 -32.1189 351.591)" class="st3" width="14.7" height="14.7"/>
		
			<rect x="169.5" y="172.3" transform="matrix(1.500928e-02 -0.9999 0.9999 1.500928e-02 -5.4434 353.7794)" class="st3" width="14.7" height="14.7"/>
		
			<rect x="169.5" y="157.6" transform="matrix(1.500928e-02 -0.9999 0.9999 1.500928e-02 9.242 339.2976)" class="st3" width="14.7" height="14.7"/>
		
			<rect x="169.5" y="186.7" transform="matrix(1.500928e-02 -0.9999 0.9999 1.500928e-02 -19.8541 367.9667)" class="st3" width="14.7" height="14.7"/>
		
			<rect x="183.4" y="172.3" transform="matrix(1.500928e-02 -0.9999 0.9999 1.500928e-02 8.2792 367.7186)" class="st3" width="14.7" height="14.7"/>
		
			<rect x="183.4" y="157.6" transform="matrix(1.500928e-02 -0.9999 0.9999 1.500928e-02 22.9766 353.2368)" class="st3" width="14.7" height="14.7"/>
		
			<rect x="183.4" y="186.7" transform="matrix(1.500928e-02 -0.9999 0.9999 1.500928e-02 -6.1255 381.8998)" class="st3" width="14.7" height="14.7"/>
		
			<rect x="212.5" y="157.6" transform="matrix(0.9999 -1.500928e-02 1.500928e-02 0.9999 -2.451 3.3184)" class="st6" width="14.7" height="14.7"/>
		
			<rect x="212.5" y="172.3" transform="matrix(0.9999 -1.500928e-02 1.500928e-02 0.9999 -2.6715 3.3202)" class="st6" width="14.7" height="14.7"/>
		
			<rect x="226.9" y="157.6" transform="matrix(0.9999 -1.500928e-02 1.500928e-02 0.9999 -2.4494 3.5344)" class="st6" width="14.7" height="14.7"/>
		
			<rect x="226.9" y="172.3" transform="matrix(0.9999 -1.500928e-02 1.500928e-02 0.9999 -2.6699 3.5362)" class="st6" width="14.7" height="14.7"/>
		
			<rect x="197.9" y="157.6" transform="matrix(0.9999 -1.500928e-02 1.500928e-02 0.9999 -2.4527 3.1001)" class="st6" width="14.7" height="14.7"/>
		
			<rect x="197.9" y="172.3" transform="matrix(0.9999 -1.500928e-02 1.500928e-02 0.9999 -2.6732 3.1019)" class="st6" width="14.7" height="14.7"/>
		
			<rect x="212.5" y="186.7" transform="matrix(0.9999 -1.500928e-02 1.500928e-02 0.9999 -2.8877 3.3217)" class="st6" width="14.7" height="14.7"/>
		
			<rect x="197.9" y="186.7" transform="matrix(0.9999 -1.500928e-02 1.500928e-02 0.9999 -2.8894 3.1034)" class="st6" width="14.7" height="14.7"/>
		
			<rect x="155" y="213.4" transform="matrix(1.500928e-02 -0.9999 0.9999 1.500928e-02 -60.8269 379.8658)" class="st0" width="14.7" height="14.7"/>
		
			<rect x="155" y="199.1" transform="matrix(1.500928e-02 -0.9999 0.9999 1.500928e-02 -46.47 365.7315)" class="st3" width="14.7" height="14.7"/>
		
			<rect x="169.6" y="215.2" transform="matrix(1.500928e-02 -0.9999 0.9999 1.500928e-02 -48.265 396.1253)" class="st1" width="14.7" height="14.7"/>
		
			<rect x="169.6" y="200.5" transform="matrix(1.500928e-02 -0.9999 0.9999 1.500928e-02 -33.6035 381.679)" class="st1" width="14.7" height="14.7"/>
		
			<rect x="183.8" y="215.2" transform="matrix(1.500928e-02 -0.9999 0.9999 1.500928e-02 -34.2775 410.3211)" class="st3" width="14.7" height="14.7"/>
		
			<rect x="183.8" y="200.5" transform="matrix(1.500928e-02 -0.9999 0.9999 1.500928e-02 -19.6161 395.8749)" class="st3" width="14.7" height="14.7"/>
		
			<rect x="126.4" y="242" transform="matrix(1.500928e-02 -0.9999 0.9999 1.500928e-02 -117.5729 379.4462)" class="st1" width="14.7" height="14.7"/>
		
			<rect x="140.9" y="242" transform="matrix(1.500928e-02 -0.9999 0.9999 1.500928e-02 -103.3503 393.8927)" class="st0" width="14.7" height="14.7"/>
		
			<rect x="155.3" y="242" transform="matrix(1.500928e-02 -0.9999 0.9999 1.500928e-02 -89.1216 408.3333)" class="st0" width="14.7" height="14.7"/>
		
			<rect x="155.3" y="256.4" transform="matrix(1.500928e-02 -0.9999 0.9999 1.500928e-02 -103.5324 422.5326)" class="st1" width="14.7" height="14.7"/>
		
			<rect x="126.4" y="256.4" transform="matrix(1.500928e-02 -0.9999 0.9999 1.500928e-02 -131.9836 393.6455)" class="st1" width="14.7" height="14.7"/>
		
			<rect x="140.9" y="256.4" transform="matrix(1.500928e-02 -0.9999 0.9999 1.500928e-02 -117.7611 408.092)" class="st2" width="14.7" height="14.7"/>
		
			<rect x="140.4" y="269.6" transform="matrix(1.500928e-02 -0.9999 0.9999 1.500928e-02 -131.448 420.578)" class="st1" width="14.7" height="14.7"/>
		
			<rect x="155" y="269.6" transform="matrix(1.500928e-02 -0.9999 0.9999 1.500928e-02 -117.0194 435.2336)" class="st1" width="14.7" height="14.7"/>
		
			<rect x="169.2" y="269.6" transform="matrix(1.500928e-02 -0.9999 0.9999 1.500928e-02 -103.0907 449.3697)" class="st1" width="14.7" height="14.7"/>
		
			<rect x="183.6" y="269.6" transform="matrix(1.500928e-02 -0.9999 0.9999 1.500928e-02 -88.9091 463.7626)" class="st1" width="14.7" height="14.7"/>
		
			<rect x="198" y="269.6" transform="matrix(1.500928e-02 -0.9999 0.9999 1.500928e-02 -74.7395 478.1554)" class="st1" width="14.7" height="14.7"/>
		
			<rect x="184.2" y="256.4" transform="matrix(1.500928e-02 -0.9999 0.9999 1.500928e-02 -75.0752 451.4258)" class="st1" width="14.7" height="14.7"/>
		
			<rect x="169.8" y="256.4" transform="matrix(1.500928e-02 -0.9999 0.9999 1.500928e-02 -89.2977 436.9793)" class="st0" width="14.7" height="14.7"/>
		
			<rect x="198.7" y="256.4" transform="matrix(1.500928e-02 -0.9999 0.9999 1.500928e-02 -60.8465 465.8664)" class="st0" width="14.7" height="14.7"/>
		
			<rect x="213.1" y="242" transform="matrix(1.500928e-02 -0.9999 0.9999 1.500928e-02 -32.201 466.1018)" class="st6" width="14.7" height="14.7"/>
		
			<rect x="213.1" y="256.4" transform="matrix(1.500928e-02 -0.9999 0.9999 1.500928e-02 -46.6178 480.307)" class="st6" width="14.7" height="14.7"/>
		
			<rect x="254.8" y="200.5" transform="matrix(1.500928e-02 -0.9999 0.9999 1.500928e-02 50.3211 466.878)" class="st6" width="14.7" height="14.7"/>
		
			<rect x="254.8" y="215.2" transform="matrix(1.500928e-02 -0.9999 0.9999 1.500928e-02 35.6597 481.3243)" class="st6" width="14.7" height="14.7"/>
		
			<rect x="268.9" y="128.4" transform="matrix(1.500928e-02 -0.9999 0.9999 1.500928e-02 136.3161 409.9588)" class="st6" width="14.7" height="14.7"/>
		
			<rect x="268.9" y="157.6" transform="matrix(1.500928e-02 -0.9999 0.9999 1.500928e-02 107.1484 438.6866)" class="st6" width="14.7" height="14.7"/>
		
			<rect x="268.9" y="143" transform="matrix(1.500928e-02 -0.9999 0.9999 1.500928e-02 121.7203 424.3404)" class="st6" width="14.7" height="14.7"/>
		
			<rect x="268.9" y="186.7" transform="matrix(1.500928e-02 -0.9999 0.9999 1.500928e-02 78.0523 467.3556)" class="st6" width="14.7" height="14.7"/>
		
			<rect x="268.9" y="172.3" transform="matrix(1.500928e-02 -0.9999 0.9999 1.500928e-02 92.4629 453.1684)" class="st6" width="14.7" height="14.7"/>
		
			<rect x="240.4" y="157.6" transform="matrix(1.500928e-02 -0.9999 0.9999 1.500928e-02 79.138 410.259)" class="st3" width="14.7" height="14.7"/>
		
			<rect x="240.4" y="172.3" transform="matrix(1.500928e-02 -0.9999 0.9999 1.500928e-02 64.4466 424.7347)" class="st3" width="14.7" height="14.7"/>
		
			<rect x="254.8" y="157.6" transform="matrix(1.500928e-02 -0.9999 0.9999 1.500928e-02 93.255 424.5862)" class="st3" width="14.7" height="14.7"/>
		
			<rect x="254.8" y="172.3" transform="matrix(1.500928e-02 -0.9999 0.9999 1.500928e-02 78.5636 439.062)" class="st3" width="14.7" height="14.7"/>
		
			<rect x="198" y="200.5" transform="matrix(1.500928e-02 -0.9999 0.9999 1.500928e-02 -5.6288 410.0826)" class="st4" width="14.7" height="14.7"/>
		
			<rect x="198" y="215.2" transform="matrix(1.500928e-02 -0.9999 0.9999 1.500928e-02 -20.2962 424.5229)" class="st3" width="14.7" height="14.7"/>
		
			<rect x="212.2" y="200.5" transform="matrix(1.500928e-02 -0.9999 0.9999 1.500928e-02 8.3587 424.2785)" class="st4" width="14.7" height="14.7"/>
		
			<rect x="212.2" y="215.2" transform="matrix(1.500928e-02 -0.9999 0.9999 1.500928e-02 -6.3088 438.7307)" class="st3" width="14.7" height="14.7"/>
		
			<rect x="226.4" y="200.5" transform="matrix(1.500928e-02 -0.9999 0.9999 1.500928e-02 22.3522 438.4803)" class="st3" width="14.7" height="14.7"/>
		
			<rect x="226.4" y="215.2" transform="matrix(1.500928e-02 -0.9999 0.9999 1.500928e-02 7.6787 452.9265)" class="st3" width="14.7" height="14.7"/>
		
			<rect x="240.6" y="200.5" transform="matrix(1.500928e-02 -0.9999 0.9999 1.500928e-02 36.3336 452.6822)" class="st3" width="14.7" height="14.7"/>
		
			<rect x="240.6" y="215.2" transform="matrix(1.500928e-02 -0.9999 0.9999 1.500928e-02 21.6662 467.1224)" class="st3" width="14.7" height="14.7"/>
		
			<rect x="226.9" y="186.7" transform="matrix(1.500928e-02 -0.9999 0.9999 1.500928e-02 36.7074 425.3829)" class="st4" width="14.7" height="14.7"/>
		
			<rect x="240.4" y="186.7" transform="matrix(1.500928e-02 -0.9999 0.9999 1.500928e-02 50.0359 438.922)" class="st3" width="14.7" height="14.7"/>
		
			<rect x="254.8" y="186.7" transform="matrix(1.500928e-02 -0.9999 0.9999 1.500928e-02 64.1529 453.2492)" class="st3" width="14.7" height="14.7"/>
		
			<rect x="169.8" y="242" transform="matrix(1.500928e-02 -0.9999 0.9999 1.500928e-02 -74.8929 422.7739)" class="st0" width="14.7" height="14.7"/>
		
			<rect x="184.2" y="242" transform="matrix(1.500928e-02 -0.9999 0.9999 1.500928e-02 -60.6704 437.2205)" class="st3" width="14.7" height="14.7"/>
		
			<rect x="198.7" y="242" transform="matrix(1.500928e-02 -0.9999 0.9999 1.500928e-02 -46.4357 451.6671)" class="st3" width="14.7" height="14.7"/>
		
			<rect x="98" y="228.7" transform="matrix(1.500928e-02 -0.9999 0.9999 1.500928e-02 -132.3357 337.8716)" class="st1" width="14.7" height="14.7"/>
		
			<rect x="112.2" y="228.7" transform="matrix(1.500928e-02 -0.9999 0.9999 1.500928e-02 -118.3012 352.1152)" class="st1" width="14.7" height="14.7"/>
		
			<rect x="155" y="227.8" transform="matrix(1.500928e-02 -0.9999 0.9999 1.500928e-02 -75.1781 394.0063)" class="st0" width="14.7" height="14.7"/>
		
			<rect x="169.2" y="228.7" transform="matrix(1.500928e-02 -0.9999 0.9999 1.500928e-02 -62.163 409.1017)" class="st3" width="14.7" height="14.7"/>
		
			<rect x="183.4" y="228.7" transform="matrix(1.500928e-02 -0.9999 0.9999 1.500928e-02 -48.1346 423.3512)" class="st3" width="14.7" height="14.7"/>
		
			<rect x="126.4" y="228.7" transform="matrix(1.500928e-02 -0.9999 0.9999 1.500928e-02 -104.2727 366.3648)" class="st2" width="14.7" height="14.7"/>
		
			<rect x="140.7" y="228.7" transform="matrix(1.500928e-02 -0.9999 0.9999 1.500928e-02 -90.2322 380.6144)" class="st0" width="14.7" height="14.7"/>
		
			<rect x="226.2" y="228.7" transform="matrix(1.500928e-02 -0.9999 0.9999 1.500928e-02 -6.0311 466.094)" class="st6" width="14.7" height="14.7"/>
		
			<rect x="240.4" y="228.7" transform="matrix(1.500928e-02 -0.9999 0.9999 1.500928e-02 8.0035 480.3375)" class="st6" width="14.7" height="14.7"/>
		
			<rect x="197.7" y="228.7" transform="matrix(1.500928e-02 -0.9999 0.9999 1.500928e-02 -34.1 437.5948)" class="st3" width="14.7" height="14.7"/>
		
			<rect x="211.9" y="228.7" transform="matrix(1.500928e-02 -0.9999 0.9999 1.500928e-02 -20.0656 451.8504)" class="st3" width="14.7" height="14.7"/>
	</g>
</g>
</svg>
