<?xml version="1.0" encoding="utf-8"?>
<!-- Generator: Adobe Illustrator 23.1.1, SVG Export Plug-In . SVG Version: 6.00 Build 0)  -->
<svg version="1.1" id="Layer_1" xmlns="http://www.w3.org/2000/svg" xmlns:xlink="http://www.w3.org/1999/xlink" x="0px" y="0px"
	 viewBox="0 0 437.9 437.9" style="enable-background:new 0 0 437.9 437.9;" xml:space="preserve">
<style type="text/css">
	.st0{fill:#D25825;}
	.st1{fill:#CCCCCC;}
	.st2{fill:#B3B3B3;}
	.st3{fill:#F05825;}
	.st4{fill:#F06325;}
	.st5{fill:#333333;}
	.st6{fill:#FDC605;}
	.st7{fill:#FFE401;}
</style>
<title>icon-potion</title>
<g>
	
		<rect x="127" y="244.4" transform="matrix(-1.505753e-02 0.9999 -0.9999 -1.505753e-02 391.806 121.2218)" class="st0" width="18.4" height="18.4"/>
	
		<rect x="127" y="262.1" transform="matrix(-1.505753e-02 0.9999 -0.9999 -1.505753e-02 409.5418 139.2266)" class="st0" width="18.4" height="18.4"/>
	
		<rect x="145.4" y="244.4" transform="matrix(-1.505753e-02 0.9999 -0.9999 -1.505753e-02 410.4818 102.8251)" class="st0" width="18.4" height="18.4"/>
	
		<rect x="145.4" y="262.1" transform="matrix(-1.505753e-02 0.9999 -0.9999 -1.505753e-02 428.2176 120.8299)" class="st0" width="18.4" height="18.4"/>
	
		<rect x="163.8" y="244.4" transform="matrix(-1.505753e-02 0.9999 -0.9999 -1.505753e-02 429.1577 84.4284)" class="st0" width="18.4" height="18.4"/>
	
		<rect x="163.8" y="262.1" transform="matrix(-1.505753e-02 0.9999 -0.9999 -1.505753e-02 446.8934 102.4332)" class="st0" width="18.4" height="18.4"/>
	
		<rect x="182.2" y="244.4" transform="matrix(-1.505753e-02 0.9999 -0.9999 -1.505753e-02 447.8335 66.0317)" class="st0" width="18.4" height="18.4"/>
	
		<rect x="182.2" y="262.1" transform="matrix(-1.505753e-02 0.9999 -0.9999 -1.505753e-02 465.5692 84.0365)" class="st0" width="18.4" height="18.4"/>
	
		<rect x="200.6" y="244.4" transform="matrix(-1.505753e-02 0.9999 -0.9999 -1.505753e-02 466.5093 47.635)" class="st0" width="18.4" height="18.4"/>
	
		<rect x="200.6" y="262.1" transform="matrix(-1.505753e-02 0.9999 -0.9999 -1.505753e-02 484.2451 65.6398)" class="st1" width="18.4" height="18.4"/>
	
		<rect x="219" y="244.4" transform="matrix(-1.505753e-02 0.9999 -0.9999 -1.505753e-02 485.1852 29.2383)" class="st2" width="18.4" height="18.4"/>
	
		<rect x="219" y="262.1" transform="matrix(-1.505753e-02 0.9999 -0.9999 -1.505753e-02 502.9209 47.2431)" class="st0" width="18.4" height="18.4"/>
	
		<rect x="237.4" y="244.4" transform="matrix(-1.505753e-02 0.9999 -0.9999 -1.505753e-02 503.861 10.8416)" class="st3" width="18.4" height="18.4"/>
	
		<rect x="237.4" y="262.1" transform="matrix(-1.505753e-02 0.9999 -0.9999 -1.505753e-02 521.5967 28.8464)" class="st0" width="18.4" height="18.4"/>
	
		<rect x="255.8" y="244.4" transform="matrix(-1.505753e-02 0.9999 -0.9999 -1.505753e-02 522.5368 -7.5551)" class="st3" width="18.4" height="18.4"/>
	
		<rect x="255.8" y="262.1" transform="matrix(-1.505753e-02 0.9999 -0.9999 -1.505753e-02 540.2725 10.4497)" class="st3" width="18.4" height="18.4"/>
	
		<rect x="274.1" y="244.4" transform="matrix(-1.505753e-02 0.9999 -0.9999 -1.505753e-02 541.1567 -25.8967)" class="st3" width="18.4" height="18.4"/>
	
		<rect x="274.1" y="262.1" transform="matrix(-1.505753e-02 0.9999 -0.9999 -1.505753e-02 558.8925 -7.8919)" class="st3" width="18.4" height="18.4"/>
	
		<rect x="292.5" y="244.4" transform="matrix(-1.505753e-02 0.9999 -0.9999 -1.505753e-02 559.8325 -44.2934)" class="st0" width="18.4" height="18.4"/>
	
		<rect x="292.5" y="262.1" transform="matrix(-1.505753e-02 0.9999 -0.9999 -1.505753e-02 577.5683 -26.2886)" class="st0" width="18.4" height="18.4"/>
	
		<rect x="145.4" y="208.5" transform="matrix(-1.505753e-02 0.9999 -0.9999 -1.505753e-02 374.6248 66.424)" class="st0" width="18.4" height="18.4"/>
	
		<rect x="145.4" y="226.3" transform="matrix(-1.505753e-02 0.9999 -0.9999 -1.505753e-02 392.3606 84.4288)" class="st0" width="18.4" height="18.4"/>
	
		<rect x="163.8" y="208.5" transform="matrix(-1.505753e-02 0.9999 -0.9999 -1.505753e-02 393.3006 48.0273)" class="st0" width="18.4" height="18.4"/>
	
		<rect x="163.8" y="226.3" transform="matrix(-1.505753e-02 0.9999 -0.9999 -1.505753e-02 411.0364 66.0321)" class="st0" width="18.4" height="18.4"/>
	
		<rect x="182.2" y="208.5" transform="matrix(-1.505753e-02 0.9999 -0.9999 -1.505753e-02 411.9765 29.6306)" class="st0" width="18.4" height="18.4"/>
	
		<rect x="182.2" y="226.3" transform="matrix(-1.505753e-02 0.9999 -0.9999 -1.505753e-02 429.7122 47.6354)" class="st0" width="18.4" height="18.4"/>
	
		<rect x="200.6" y="208.5" transform="matrix(-1.505753e-02 0.9999 -0.9999 -1.505753e-02 430.6523 11.2339)" class="st3" width="18.4" height="18.4"/>
	
		<rect x="200.6" y="226.3" transform="matrix(-1.505753e-02 0.9999 -0.9999 -1.505753e-02 448.388 29.2387)" class="st4" width="18.4" height="18.4"/>
	
		<rect x="219" y="208.5" transform="matrix(-1.505753e-02 0.9999 -0.9999 -1.505753e-02 449.3281 -7.1628)" class="st3" width="18.4" height="18.4"/>
	
		<rect x="219" y="226.3" transform="matrix(-1.505753e-02 0.9999 -0.9999 -1.505753e-02 467.0638 10.842)" class="st3" width="18.4" height="18.4"/>
	
		<rect x="237.4" y="208.5" transform="matrix(-1.505753e-02 0.9999 -0.9999 -1.505753e-02 468.0039 -25.5595)" class="st3" width="18.4" height="18.4"/>
	
		<rect x="237.4" y="226.3" transform="matrix(-1.505753e-02 0.9999 -0.9999 -1.505753e-02 485.7397 -7.5547)" class="st2" width="18.4" height="18.4"/>
	
		<rect x="255.8" y="208.5" transform="matrix(-1.505753e-02 0.9999 -0.9999 -1.505753e-02 486.6798 -43.9562)" class="st3" width="18.4" height="18.4"/>
	
		<rect x="255.8" y="226.3" transform="matrix(-1.505753e-02 0.9999 -0.9999 -1.505753e-02 504.4155 -25.9514)" class="st3" width="18.4" height="18.4"/>
	
		<rect x="274.1" y="208.5" transform="matrix(-1.505753e-02 0.9999 -0.9999 -1.505753e-02 505.2997 -62.2978)" class="st0" width="18.4" height="18.4"/>
	
		<rect x="274.1" y="226.3" transform="matrix(-1.505753e-02 0.9999 -0.9999 -1.505753e-02 523.0354 -44.293)" class="st3" width="18.4" height="18.4"/>
	
		<rect x="163.8" y="191.2" transform="matrix(-1.505753e-02 0.9999 -0.9999 -1.505753e-02 375.9504 30.4139)" class="st0" width="18.4" height="18.4"/>
	
		<rect x="182.2" y="173.4" transform="matrix(-1.505753e-02 0.9999 -0.9999 -1.505753e-02 376.8905 -5.9877)" class="st0" width="18.4" height="18.4"/>
	
		<rect x="182.2" y="191.2" transform="matrix(-1.505753e-02 0.9999 -0.9999 -1.505753e-02 394.6263 12.0172)" class="st0" width="18.4" height="18.4"/>
	
		<rect x="200.6" y="173.4" transform="matrix(-1.505753e-02 0.9999 -0.9999 -1.505753e-02 395.5664 -24.3844)" class="st0" width="18.4" height="18.4"/>
	
		<rect x="200.6" y="191.2" transform="matrix(-1.505753e-02 0.9999 -0.9999 -1.505753e-02 413.3021 -6.3795)" class="st4" width="18.4" height="18.4"/>
	
		<rect x="219" y="173.4" transform="matrix(-1.505753e-02 0.9999 -0.9999 -1.505753e-02 414.2422 -42.7811)" class="st3" width="18.4" height="18.4"/>
	
		<rect x="219" y="191.2" transform="matrix(-1.505753e-02 0.9999 -0.9999 -1.505753e-02 431.9779 -24.7762)" class="st3" width="18.4" height="18.4"/>
	
		<rect x="237.4" y="173.4" transform="matrix(-1.505753e-02 0.9999 -0.9999 -1.505753e-02 432.918 -61.1778)" class="st3" width="18.4" height="18.4"/>
	
		<rect x="237.4" y="191.2" transform="matrix(-1.505753e-02 0.9999 -0.9999 -1.505753e-02 450.6537 -43.1729)" class="st3" width="18.4" height="18.4"/>
	
		<rect x="255.8" y="191.2" transform="matrix(-1.505753e-02 0.9999 -0.9999 -1.505753e-02 469.3296 -61.5696)" class="st0" width="18.4" height="18.4"/>
	
		<rect x="200.6" y="137.9" transform="matrix(-1.505753e-02 0.9999 -0.9999 -1.505753e-02 360.0349 -60.455)" class="st0" width="18.4" height="18.4"/>
	
		<rect x="219" y="137.9" transform="matrix(-1.505753e-02 0.9999 -0.9999 -1.505753e-02 378.7107 -78.8517)" class="st4" width="18.4" height="18.4"/>
	
		<rect x="274.9" y="298.1" transform="matrix(1.505753e-02 -0.9999 0.9999 1.505753e-02 -27.3773 586.719)" class="st0" width="18.4" height="18.4"/>
	
		<rect x="274.9" y="280.3" transform="matrix(1.505753e-02 -0.9999 0.9999 1.505753e-02 -9.6416 569.2483)" class="st0" width="18.4" height="18.4"/>
	
		<rect x="256.5" y="298.1" transform="matrix(1.505753e-02 -0.9999 0.9999 1.505753e-02 -45.4991 568.3223)" class="st0" width="18.4" height="18.4"/>
	
		<rect x="256.5" y="280.3" transform="matrix(1.505753e-02 -0.9999 0.9999 1.505753e-02 -27.7633 550.8516)" class="st3" width="18.4" height="18.4"/>
	
		<rect x="238.1" y="298.1" transform="matrix(1.505753e-02 -0.9999 0.9999 1.505753e-02 -63.6208 549.9256)" class="st3" width="18.4" height="18.4"/>
	
		<rect x="238.1" y="280.3" transform="matrix(1.505753e-02 -0.9999 0.9999 1.505753e-02 -45.8851 532.4549)" class="st3" width="18.4" height="18.4"/>
	
		<rect x="219.7" y="298.1" transform="matrix(1.505753e-02 -0.9999 0.9999 1.505753e-02 -81.7426 531.5289)" class="st3" width="18.4" height="18.4"/>
	
		<rect x="219.7" y="280.3" transform="matrix(1.505753e-02 -0.9999 0.9999 1.505753e-02 -64.0068 514.0582)" class="st0" width="18.4" height="18.4"/>
	
		<rect x="201.3" y="298.1" transform="matrix(1.505753e-02 -0.9999 0.9999 1.505753e-02 -99.8643 513.1322)" class="st0" width="18.4" height="18.4"/>
	
		<rect x="201.3" y="280.3" transform="matrix(1.505753e-02 -0.9999 0.9999 1.505753e-02 -82.1286 495.6615)" class="st0" width="18.4" height="18.4"/>
	
		<rect x="182.9" y="298.1" transform="matrix(1.505753e-02 -0.9999 0.9999 1.505753e-02 -117.9861 494.7355)" class="st0" width="18.4" height="18.4"/>
	
		<rect x="182.9" y="280.3" transform="matrix(1.505753e-02 -0.9999 0.9999 1.505753e-02 -100.2503 477.2648)" class="st3" width="18.4" height="18.4"/>
	
		<rect x="164.5" y="298.1" transform="matrix(1.505753e-02 -0.9999 0.9999 1.505753e-02 -136.1078 476.3388)" class="st0" width="18.4" height="18.4"/>
	
		<rect x="164.5" y="280.3" transform="matrix(1.505753e-02 -0.9999 0.9999 1.505753e-02 -118.3721 458.8681)" class="st0" width="18.4" height="18.4"/>
	
		<rect x="146.2" y="298.1" transform="matrix(1.505753e-02 -0.9999 0.9999 1.505753e-02 -154.1753 457.9972)" class="st0" width="18.4" height="18.4"/>
	
		<rect x="146.2" y="280.3" transform="matrix(1.505753e-02 -0.9999 0.9999 1.505753e-02 -136.4396 440.5265)" class="st0" width="18.4" height="18.4"/>
	
		<rect x="256.5" y="315.4" transform="matrix(1.505753e-02 -0.9999 0.9999 1.505753e-02 -62.8493 585.4131)" class="st0" width="18.4" height="18.4"/>
	
		<rect x="238.1" y="333.2" transform="matrix(1.505753e-02 -0.9999 0.9999 1.505753e-02 -98.7067 584.4871)" class="st5" width="18.4" height="18.4"/>
	
		<rect x="238.1" y="315.4" transform="matrix(1.505753e-02 -0.9999 0.9999 1.505753e-02 -80.971 567.0164)" class="st0" width="18.4" height="18.4"/>
	
		<rect x="219.7" y="333.2" transform="matrix(1.505753e-02 -0.9999 0.9999 1.505753e-02 -116.8285 566.0904)" class="st5" width="18.4" height="18.4"/>
	
		<rect x="219.7" y="315.4" transform="matrix(1.505753e-02 -0.9999 0.9999 1.505753e-02 -99.0928 548.6198)" class="st0" width="18.4" height="18.4"/>
	
		<rect x="201.3" y="333.2" transform="matrix(1.505753e-02 -0.9999 0.9999 1.505753e-02 -134.9502 547.6937)" class="st5" width="18.4" height="18.4"/>
	
		<rect x="201.3" y="315.4" transform="matrix(1.505753e-02 -0.9999 0.9999 1.505753e-02 -117.2145 530.223)" class="st4" width="18.4" height="18.4"/>
	
		<rect x="182.9" y="333.2" transform="matrix(1.505753e-02 -0.9999 0.9999 1.505753e-02 -153.072 529.297)" class="st5" width="18.4" height="18.4"/>
	
		<rect x="182.9" y="315.4" transform="matrix(1.505753e-02 -0.9999 0.9999 1.505753e-02 -135.3362 511.8264)" class="st0" width="18.4" height="18.4"/>
	
		<rect x="164.5" y="315.4" transform="matrix(1.505753e-02 -0.9999 0.9999 1.505753e-02 -153.458 493.4297)" class="st0" width="18.4" height="18.4"/>
	
		<rect x="138.1" y="226.3" transform="matrix(-1.505753e-02 0.9999 -0.9999 -1.505753e-02 384.9238 91.7545)" class="st0" width="18.4" height="18.4"/>
	
		<rect x="138.9" y="280.3" transform="matrix(1.505753e-02 -0.9999 0.9999 1.505753e-02 -143.6557 433.2009)" class="st0" width="18.4" height="18.4"/>
	
		<rect x="282.6" y="226.3" transform="matrix(-1.505753e-02 0.9999 -0.9999 -1.505753e-02 531.6464 -52.7753)" class="st0" width="18.4" height="18.4"/>
	
		<rect x="283.4" y="280.3" transform="matrix(1.505753e-02 -0.9999 0.9999 1.505753e-02 -1.2861 577.7307)" class="st0" width="18.4" height="18.4"/>
	
		<rect x="182.2" y="155.9" transform="matrix(-1.505753e-02 0.9999 -0.9999 -1.505753e-02 359.3168 -23.8281)" class="st0" width="18.4" height="18.4"/>
	
		<rect x="200.6" y="155.9" transform="matrix(-1.505753e-02 0.9999 -0.9999 -1.505753e-02 377.9926 -42.2248)" class="st0" width="18.4" height="18.4"/>
	
		<rect x="219" y="155.9" transform="matrix(-1.505753e-02 0.9999 -0.9999 -1.505753e-02 396.6684 -60.6215)" class="st3" width="18.4" height="18.4"/>
	
		<rect x="237.4" y="155.9" transform="matrix(-1.505753e-02 0.9999 -0.9999 -1.505753e-02 415.3442 -79.0182)" class="st0" width="18.4" height="18.4"/>
	
		<rect x="200.6" y="120.3" transform="matrix(-1.505753e-02 0.9999 -0.9999 -1.505753e-02 342.4611 -78.2954)" class="st0" width="18.4" height="18.4"/>
	
		<rect x="219" y="120.3" transform="matrix(-1.505753e-02 0.9999 -0.9999 -1.505753e-02 361.1369 -96.6921)" class="st4" width="18.4" height="18.4"/>
	
		<rect x="200.6" y="103.4" transform="matrix(-1.505753e-02 0.9999 -0.9999 -1.505753e-02 325.4933 -95.5206)" class="st0" width="18.4" height="18.4"/>
	
		<rect x="219" y="103.4" transform="matrix(-1.505753e-02 0.9999 -0.9999 -1.505753e-02 344.1691 -113.9173)" class="st4" width="18.4" height="18.4"/>
	
		<rect x="200.6" y="86.4" transform="matrix(-1.505753e-02 0.9999 -0.9999 -1.505753e-02 308.5255 -112.7459)" class="st6" width="18.4" height="18.4"/>
	
		<rect x="219" y="86.4" transform="matrix(-1.505753e-02 0.9999 -0.9999 -1.505753e-02 327.2014 -131.1425)" class="st7" width="18.4" height="18.4"/>
	
		<rect x="183" y="86.4" transform="matrix(-1.505753e-02 0.9999 -0.9999 -1.505753e-02 290.6851 -95.1721)" class="st6" width="18.4" height="18.4"/>
	
		<rect x="237.8" y="86.4" transform="matrix(-1.505753e-02 0.9999 -0.9999 -1.505753e-02 346.2721 -149.9283)" class="st7" width="18.4" height="18.4"/>
</g>
</svg>
