<?xml version="1.0" encoding="utf-8"?>
<!-- Generator: Adobe Illustrator 23.1.1, SVG Export Plug-In . SVG Version: 6.00 Build 0)  -->
<svg version="1.1" id="Layer_1" xmlns="http://www.w3.org/2000/svg" xmlns:xlink="http://www.w3.org/1999/xlink" x="0px" y="0px"
	 viewBox="0 0 337.7 337.7" style="enable-background:new 0 0 337.7 337.7;" xml:space="preserve">
<style type="text/css">
	.st0{fill:#D25825;}
	.st1{fill:#F05825;}
	.st2{fill:#F3A34D;}
	.st3{fill:#E6DAD1;}
</style>
<title>icon-heart</title>
<g>
	<g id="Layer_1-2">
		
			<rect x="66.6" y="110.4" transform="matrix(1.500928e-02 -0.9999 0.9999 1.500928e-02 -44.8939 190.0181)" class="st0" width="14.7" height="14.7"/>
		
			<rect x="66.6" y="125" transform="matrix(1.500928e-02 -0.9999 0.9999 1.500928e-02 -59.4957 204.3936)" class="st0" width="14.7" height="14.7"/>
		
			<rect x="66.6" y="139.6" transform="matrix(1.500928e-02 -0.9999 0.9999 1.500928e-02 -74.0856 218.7813)" class="st0" width="14.7" height="14.7"/>
		
			<rect x="66.6" y="154.2" transform="matrix(1.500928e-02 -0.9999 0.9999 1.500928e-02 -88.6814 233.1629)" class="st0" width="14.7" height="14.7"/>
		
			<rect x="81.1" y="110.4" transform="matrix(1.500928e-02 -0.9999 0.9999 1.500928e-02 -30.5947 204.5303)" class="st1" width="14.7" height="14.7"/>
		
			<rect x="81.1" y="125" transform="matrix(1.500928e-02 -0.9999 0.9999 1.500928e-02 -45.1905 218.9119)" class="st1" width="14.7" height="14.7"/>
		
			<rect x="81.1" y="139.6" transform="matrix(1.500928e-02 -0.9999 0.9999 1.500928e-02 -59.7863 233.2936)" class="st2" width="14.7" height="14.7"/>
		
			<rect x="81.1" y="154.2" transform="matrix(1.500928e-02 -0.9999 0.9999 1.500928e-02 -74.3882 247.6811)" class="st0" width="14.7" height="14.7"/>
		
			<rect x="95.7" y="110.4" transform="matrix(1.500928e-02 -0.9999 0.9999 1.500928e-02 -16.2954 219.0426)" class="st1" width="14.7" height="14.7"/>
		
			<rect x="95.7" y="125" transform="matrix(1.500928e-02 -0.9999 0.9999 1.500928e-02 -30.8912 233.4241)" class="st1" width="14.7" height="14.7"/>
		
			<rect x="95.7" y="139.6" transform="matrix(1.500928e-02 -0.9999 0.9999 1.500928e-02 -45.4932 247.8118)" class="st1" width="14.7" height="14.7"/>
		
			<rect x="95.7" y="154.2" transform="matrix(1.500928e-02 -0.9999 0.9999 1.500928e-02 -60.089 262.1934)" class="st2" width="14.7" height="14.7"/>
		
			<rect x="110.4" y="110.4" transform="matrix(1.500928e-02 -0.9999 0.9999 1.500928e-02 -1.7552 233.8114)" class="st1" width="14.7" height="14.7"/>
		
			<rect x="110.4" y="125" transform="matrix(1.500928e-02 -0.9999 0.9999 1.500928e-02 -16.351 248.193)" class="st1" width="14.7" height="14.7"/>
		
			<rect x="110.4" y="139.6" transform="matrix(1.500928e-02 -0.9999 0.9999 1.500928e-02 -30.9469 262.5747)" class="st1" width="14.7" height="14.7"/>
		
			<rect x="110.4" y="154.2" transform="matrix(1.500928e-02 -0.9999 0.9999 1.500928e-02 -45.5488 276.9622)" class="st1" width="14.7" height="14.7"/>
		
			<rect x="124.9" y="110.4" transform="matrix(1.500928e-02 -0.9999 0.9999 1.500928e-02 12.544 248.3237)" class="st1" width="14.7" height="14.7"/>
		
			<rect x="124.9" y="125" transform="matrix(1.500928e-02 -0.9999 0.9999 1.500928e-02 -2.0578 262.7112)" class="st1" width="14.7" height="14.7"/>
		
			<rect x="125" y="139.6" transform="matrix(1.500928e-02 -0.9999 0.9999 1.500928e-02 -16.6478 277.0989)" class="st1" width="14.7" height="14.7"/>
		
			<rect x="124.9" y="154.2" transform="matrix(1.500928e-02 -0.9999 0.9999 1.500928e-02 -31.2495 291.4745)" class="st1" width="14.7" height="14.7"/>
		
			<rect x="139.5" y="110.4" transform="matrix(1.500928e-02 -0.9999 0.9999 1.500928e-02 26.8432 262.8479)" class="st1" width="14.7" height="14.7"/>
		
			<rect x="139.5" y="125" transform="matrix(1.500928e-02 -0.9999 0.9999 1.500928e-02 12.2414 277.2234)" class="st1" width="14.7" height="14.7"/>
		
			<rect x="139.5" y="139.6" transform="matrix(1.500928e-02 -0.9999 0.9999 1.500928e-02 -2.3485 291.6112)" class="st1" width="14.7" height="14.7"/>
		
			<rect x="139.5" y="154.2" transform="matrix(1.500928e-02 -0.9999 0.9999 1.500928e-02 -16.9503 305.9867)" class="st1" width="14.7" height="14.7"/>
		
			<rect x="154.2" y="110.4" transform="matrix(1.500928e-02 -0.9999 0.9999 1.500928e-02 41.3955 277.6049)" class="st1" width="14.7" height="14.7"/>
		
			<rect x="154.2" y="125" transform="matrix(1.500928e-02 -0.9999 0.9999 1.500928e-02 26.7877 291.9865)" class="st1" width="14.7" height="14.7"/>
		
			<rect x="154.2" y="139.6" transform="matrix(1.500928e-02 -0.9999 0.9999 1.500928e-02 12.1978 306.3742)" class="st1" width="14.7" height="14.7"/>
		
			<rect x="154.2" y="154.2" transform="matrix(1.500928e-02 -0.9999 0.9999 1.500928e-02 -2.4039 320.7497)" class="st1" width="14.7" height="14.7"/>
		
			<rect x="168.7" y="110.4" transform="matrix(1.500928e-02 -0.9999 0.9999 1.500928e-02 55.6887 292.1232)" class="st1" width="14.7" height="14.7"/>
		
			<rect x="168.7" y="125" transform="matrix(1.500928e-02 -0.9999 0.9999 1.500928e-02 41.087 306.4987)" class="st1" width="14.7" height="14.7"/>
		
			<rect x="168.7" y="139.6" transform="matrix(1.500928e-02 -0.9999 0.9999 1.500928e-02 26.4971 320.8864)" class="st1" width="14.7" height="14.7"/>
		
			<rect x="168.8" y="154.2" transform="matrix(1.500928e-02 -0.9999 0.9999 1.500928e-02 11.9013 335.268)" class="st1" width="14.7" height="14.7"/>
		
			<rect x="183.3" y="110.4" transform="matrix(1.500928e-02 -0.9999 0.9999 1.500928e-02 69.9818 306.6413)" class="st1" width="14.7" height="14.7"/>
		
			<rect x="183.3" y="125" transform="matrix(1.500928e-02 -0.9999 0.9999 1.500928e-02 55.3801 321.0168)" class="st1" width="14.7" height="14.7"/>
		
			<rect x="183.3" y="139.6" transform="matrix(1.500928e-02 -0.9999 0.9999 1.500928e-02 40.7902 335.4045)" class="st1" width="14.7" height="14.7"/>
		
			<rect x="183.3" y="154.2" transform="matrix(1.500928e-02 -0.9999 0.9999 1.500928e-02 26.1944 349.7861)" class="st1" width="14.7" height="14.7"/>
		
			<rect x="198" y="110.4" transform="matrix(1.500928e-02 -0.9999 0.9999 1.500928e-02 84.5282 321.4043)" class="st1" width="14.7" height="14.7"/>
		
			<rect x="198" y="125" transform="matrix(1.500928e-02 -0.9999 0.9999 1.500928e-02 69.9324 335.7859)" class="st1" width="14.7" height="14.7"/>
		
			<rect x="198" y="139.6" transform="matrix(1.500928e-02 -0.9999 0.9999 1.500928e-02 55.3365 350.1675)" class="st1" width="14.7" height="14.7"/>
		
			<rect x="198" y="154.2" transform="matrix(1.500928e-02 -0.9999 0.9999 1.500928e-02 40.7407 364.5491)" class="st1" width="14.7" height="14.7"/>
		
			<rect x="212.5" y="110.4" transform="matrix(1.500928e-02 -0.9999 0.9999 1.500928e-02 98.8274 335.9165)" class="st3" width="14.7" height="14.7"/>
		
			<rect x="212.5" y="125" transform="matrix(1.500928e-02 -0.9999 0.9999 1.500928e-02 84.2316 350.2981)" class="st1" width="14.7" height="14.7"/>
		
			<rect x="212.5" y="139.6" transform="matrix(1.500928e-02 -0.9999 0.9999 1.500928e-02 69.6357 364.6797)" class="st1" width="14.7" height="14.7"/>
		
			<rect x="212.5" y="154.2" transform="matrix(1.500928e-02 -0.9999 0.9999 1.500928e-02 55.04 379.0613)" class="st1" width="14.7" height="14.7"/>
		
			<rect x="227.1" y="110.4" transform="matrix(1.500928e-02 -0.9999 0.9999 1.500928e-02 113.1267 350.4287)" class="st1" width="14.7" height="14.7"/>
		
			<rect x="227.1" y="125" transform="matrix(1.500928e-02 -0.9999 0.9999 1.500928e-02 98.5309 364.8103)" class="st3" width="14.7" height="14.7"/>
		
			<rect x="227.1" y="139.6" transform="matrix(1.500928e-02 -0.9999 0.9999 1.500928e-02 83.935 379.192)" class="st1" width="14.7" height="14.7"/>
		
			<rect x="227.1" y="154.2" transform="matrix(1.500928e-02 -0.9999 0.9999 1.500928e-02 69.3392 393.5736)" class="st1" width="14.7" height="14.7"/>
		
			<rect x="241.8" y="110.4" transform="matrix(1.500928e-02 -0.9999 0.9999 1.500928e-02 127.673 365.1917)" class="st1" width="14.7" height="14.7"/>
		
			<rect x="241.8" y="125" transform="matrix(1.500928e-02 -0.9999 0.9999 1.500928e-02 113.0772 379.5733)" class="st1" width="14.7" height="14.7"/>
		
			<rect x="241.8" y="139.6" transform="matrix(1.500928e-02 -0.9999 0.9999 1.500928e-02 98.4873 393.961)" class="st1" width="14.7" height="14.7"/>
		
			<rect x="241.8" y="154.2" transform="matrix(1.500928e-02 -0.9999 0.9999 1.500928e-02 83.8855 408.3366)" class="st1" width="14.7" height="14.7"/>
		
			<rect x="256.3" y="110.4" transform="matrix(1.500928e-02 -0.9999 0.9999 1.500928e-02 141.9721 379.7159)" class="st1" width="14.7" height="14.7"/>
		
			<rect x="256.3" y="125" transform="matrix(1.500928e-02 -0.9999 0.9999 1.500928e-02 127.3703 394.0914)" class="st1" width="14.7" height="14.7"/>
		
			<rect x="256.3" y="139.6" transform="matrix(1.500928e-02 -0.9999 0.9999 1.500928e-02 112.7804 408.4792)" class="st1" width="14.7" height="14.7"/>
		
			<rect x="256.3" y="154.2" transform="matrix(1.500928e-02 -0.9999 0.9999 1.500928e-02 98.1786 422.8547)" class="st1" width="14.7" height="14.7"/>
		
			<rect x="198" y="96" transform="matrix(1.500928e-02 -0.9999 0.9999 1.500928e-02 98.9509 307.2052)" class="st1" width="14.7" height="14.7"/>
		
			<rect x="212.5" y="96" transform="matrix(1.500928e-02 -0.9999 0.9999 1.500928e-02 113.2501 321.7174)" class="st1" width="14.7" height="14.7"/>
		
			<rect x="227.1" y="96" transform="matrix(1.500928e-02 -0.9999 0.9999 1.500928e-02 127.5433 336.2356)" class="st1" width="14.7" height="14.7"/>
		
			<rect x="95.7" y="96" transform="matrix(1.500928e-02 -0.9999 0.9999 1.500928e-02 -1.8788 204.8494)" class="st1" width="14.7" height="14.7"/>
		
			<rect x="110.4" y="96" transform="matrix(1.500928e-02 -0.9999 0.9999 1.500928e-02 12.6614 219.6183)" class="st1" width="14.7" height="14.7"/>
		
			<rect x="124.9" y="96" transform="matrix(1.500928e-02 -0.9999 0.9999 1.500928e-02 26.9607 234.1305)" class="st1" width="14.7" height="14.7"/>
		
			<rect x="198" y="81.6" transform="matrix(1.500928e-02 -0.9999 0.9999 1.500928e-02 113.3139 293.0529)" class="st1" width="14.7" height="14.7"/>
		
			<rect x="212.5" y="81.6" transform="matrix(1.500928e-02 -0.9999 0.9999 1.500928e-02 127.6132 307.5652)" class="st1" width="14.7" height="14.7"/>
		
			<rect x="227.1" y="81.6" transform="matrix(1.500928e-02 -0.9999 0.9999 1.500928e-02 141.9064 322.0834)" class="st1" width="14.7" height="14.7"/>
		
			<rect x="95.7" y="81.1" transform="matrix(1.500928e-02 -0.9999 0.9999 1.500928e-02 12.9857 190.2031)" class="st1" width="14.7" height="14.7"/>
		
			<rect x="110.4" y="81.1" transform="matrix(1.500928e-02 -0.9999 0.9999 1.500928e-02 27.5259 204.972)" class="st1" width="14.7" height="14.7"/>
		
			<rect x="124.9" y="81.1" transform="matrix(1.500928e-02 -0.9999 0.9999 1.500928e-02 41.8251 219.4842)" class="st0" width="14.7" height="14.7"/>
		
			<rect x="81.1" y="96" transform="matrix(1.500928e-02 -0.9999 0.9999 1.500928e-02 -16.178 190.3372)" class="st0" width="14.7" height="14.7"/>
		
			<rect x="139.5" y="96" transform="matrix(1.500928e-02 -0.9999 0.9999 1.500928e-02 41.2599 248.6428)" class="st0" width="14.7" height="14.7"/>
		
			<rect x="183.3" y="96" transform="matrix(1.500928e-02 -0.9999 0.9999 1.500928e-02 84.4046 292.4422)" class="st1" width="14.7" height="14.7"/>
		
			<rect x="241.8" y="96" transform="matrix(1.500928e-02 -0.9999 0.9999 1.500928e-02 142.0897 350.9986)" class="st1" width="14.7" height="14.7"/>
		
			<rect x="198" y="168.8" transform="matrix(1.500928e-02 -0.9999 0.9999 1.500928e-02 26.121 378.9423)" class="st1" width="14.7" height="14.7"/>
		
			<rect x="212.5" y="168.8" transform="matrix(1.500928e-02 -0.9999 0.9999 1.500928e-02 40.4203 393.4545)" class="st1" width="14.7" height="14.7"/>
		
			<rect x="227.1" y="168.8" transform="matrix(1.500928e-02 -0.9999 0.9999 1.500928e-02 54.7195 407.9667)" class="st1" width="14.7" height="14.7"/>
		
			<rect x="95.7" y="168.8" transform="matrix(1.500928e-02 -0.9999 0.9999 1.500928e-02 -74.7086 276.5865)" class="st0" width="14.7" height="14.7"/>
		
			<rect x="110.4" y="168.8" transform="matrix(1.500928e-02 -0.9999 0.9999 1.500928e-02 -60.1684 291.3554)" class="st2" width="14.7" height="14.7"/>
		
			<rect x="124.9" y="168.8" transform="matrix(1.500928e-02 -0.9999 0.9999 1.500928e-02 -45.8692 305.8676)" class="st1" width="14.7" height="14.7"/>
		
			<rect x="81.1" y="168.8" transform="matrix(1.500928e-02 -0.9999 0.9999 1.500928e-02 -89.0018 262.0683)" class="st0" width="14.7" height="14.7"/>
		
			<rect x="139.5" y="168.8" transform="matrix(1.500928e-02 -0.9999 0.9999 1.500928e-02 -31.564 320.3859)" class="st1" width="14.7" height="14.7"/>
		
			<rect x="183.3" y="168.8" transform="matrix(1.500928e-02 -0.9999 0.9999 1.500928e-02 11.5747 364.1793)" class="st1" width="14.7" height="14.7"/>
		
			<rect x="241.8" y="168.8" transform="matrix(1.500928e-02 -0.9999 0.9999 1.500928e-02 69.2659 422.7297)" class="st1" width="14.7" height="14.7"/>
		
			<rect x="198" y="183.4" transform="matrix(1.500928e-02 -0.9999 0.9999 1.500928e-02 11.6088 393.2415)" class="st1" width="14.7" height="14.7"/>
		
			<rect x="212.5" y="183.4" transform="matrix(1.500928e-02 -0.9999 0.9999 1.500928e-02 25.9081 407.7538)" class="st1" width="14.7" height="14.7"/>
		
			<rect x="227.1" y="183.4" transform="matrix(1.500928e-02 -0.9999 0.9999 1.500928e-02 40.2012 422.2719)" class="st1" width="14.7" height="14.7"/>
		
			<rect x="95.7" y="183.4" transform="matrix(1.500928e-02 -0.9999 0.9999 1.500928e-02 -89.2209 290.8858)" class="st0" width="14.7" height="14.7"/>
		
			<rect x="110.4" y="183.4" transform="matrix(1.500928e-02 -0.9999 0.9999 1.500928e-02 -74.6807 305.6547)" class="st0" width="14.7" height="14.7"/>
		
			<rect x="124.9" y="183.4" transform="matrix(1.500928e-02 -0.9999 0.9999 1.500928e-02 -60.3814 320.1669)" class="st2" width="14.7" height="14.7"/>
		
			<rect x="139.5" y="183.4" transform="matrix(1.500928e-02 -0.9999 0.9999 1.500928e-02 -46.0822 334.6791)" class="st1" width="14.7" height="14.7"/>
		
			<rect x="183.3" y="183.4" transform="matrix(1.500928e-02 -0.9999 0.9999 1.500928e-02 -2.9375 378.4785)" class="st1" width="14.7" height="14.7"/>
		
			<rect x="198" y="197.9" transform="matrix(1.500928e-02 -0.9999 0.9999 1.500928e-02 -2.9034 407.5408)" class="st1" width="14.7" height="14.7"/>
		
			<rect x="212.5" y="197.9" transform="matrix(1.500928e-02 -0.9999 0.9999 1.500928e-02 11.3958 422.053)" class="st1" width="14.7" height="14.7"/>
		
			<rect x="110.4" y="197.9" transform="matrix(1.500928e-02 -0.9999 0.9999 1.500928e-02 -89.1929 319.9539)" class="st0" width="14.7" height="14.7"/>
		
			<rect x="124.9" y="197.9" transform="matrix(1.500928e-02 -0.9999 0.9999 1.500928e-02 -74.8937 334.4661)" class="st0" width="14.7" height="14.7"/>
		
			<rect x="139.5" y="197.9" transform="matrix(1.500928e-02 -0.9999 0.9999 1.500928e-02 -60.5944 348.9784)" class="st2" width="14.7" height="14.7"/>
		
			<rect x="183.3" y="197.9" transform="matrix(1.500928e-02 -0.9999 0.9999 1.500928e-02 -17.4498 392.7778)" class="st1" width="14.7" height="14.7"/>
		
			<rect x="198" y="212.4" transform="matrix(1.500928e-02 -0.9999 0.9999 1.500928e-02 -17.4157 421.84)" class="st1" width="14.7" height="14.7"/>
		
			<rect x="124.9" y="212.4" transform="matrix(1.500928e-02 -0.9999 0.9999 1.500928e-02 -89.4059 348.7654)" class="st0" width="14.7" height="14.7"/>
		
			<rect x="139.5" y="212.4" transform="matrix(1.500928e-02 -0.9999 0.9999 1.500928e-02 -75.1066 363.2776)" class="st0" width="14.7" height="14.7"/>
		
			<rect x="183.3" y="212.4" transform="matrix(1.500928e-02 -0.9999 0.9999 1.500928e-02 -31.974 407.0769)" class="st1" width="14.7" height="14.7"/>
		
			<rect x="139.5" y="226.9" transform="matrix(1.500928e-02 -0.9999 0.9999 1.500928e-02 -89.6249 377.5828)" class="st0" width="14.7" height="14.7"/>
		
			<rect x="183.3" y="226.9" transform="matrix(1.500928e-02 -0.9999 0.9999 1.500928e-02 -46.4863 421.3762)" class="st1" width="14.7" height="14.7"/>
		
			<rect x="154.2" y="169" transform="matrix(1.500928e-02 -0.9999 0.9999 1.500928e-02 -17.1728 335.2899)" class="st1" width="14.7" height="14.7"/>
		
			<rect x="154.2" y="183.6" transform="matrix(1.500928e-02 -0.9999 0.9999 1.500928e-02 -31.7627 349.6776)" class="st1" width="14.7" height="14.7"/>
		
			<rect x="154.2" y="198.2" transform="matrix(1.500928e-02 -0.9999 0.9999 1.500928e-02 -46.3585 364.0592)" class="st1" width="14.7" height="14.7"/>
		
			<rect x="154.2" y="212.8" transform="matrix(1.500928e-02 -0.9999 0.9999 1.500928e-02 -60.9603 378.4347)" class="st2" width="14.7" height="14.7"/>
		
			<rect x="168.7" y="169" transform="matrix(1.500928e-02 -0.9999 0.9999 1.500928e-02 -2.8676 349.8082)" class="st1" width="14.7" height="14.7"/>
		
			<rect x="168.7" y="183.6" transform="matrix(1.500928e-02 -0.9999 0.9999 1.500928e-02 -17.4635 364.1898)" class="st1" width="14.7" height="14.7"/>
		
			<rect x="168.7" y="198.2" transform="matrix(1.500928e-02 -0.9999 0.9999 1.500928e-02 -32.0593 378.5714)" class="st1" width="14.7" height="14.7"/>
		
			<rect x="168.7" y="212.8" transform="matrix(1.500928e-02 -0.9999 0.9999 1.500928e-02 -46.661 392.947)" class="st1" width="14.7" height="14.7"/>
		
			<rect x="154.2" y="227.2" transform="matrix(1.500928e-02 -0.9999 0.9999 1.500928e-02 -75.3948 392.6455)" class="st0" width="14.7" height="14.7"/>
		
			<rect x="154.2" y="241.8" transform="matrix(1.500928e-02 -0.9999 0.9999 1.500928e-02 -89.9908 407.0392)" class="st0" width="14.7" height="14.7"/>
		
			<rect x="168.7" y="227.2" transform="matrix(1.500928e-02 -0.9999 0.9999 1.500928e-02 -61.1017 407.1637)" class="st2" width="14.7" height="14.7"/>
		
			<rect x="168.7" y="241.8" transform="matrix(1.500928e-02 -0.9999 0.9999 1.500928e-02 -75.6916 421.5514)" class="st0" width="14.7" height="14.7"/>
	</g>
</g>
</svg>
