<?xml version="1.0" encoding="utf-8"?>
<!-- Generator: Adobe Illustrator 23.1.1, SVG Export Plug-In . SVG Version: 6.00 Build 0)  -->
<svg version="1.1" id="Layer_1" xmlns="http://www.w3.org/2000/svg" xmlns:xlink="http://www.w3.org/1999/xlink" x="0px" y="0px"
	 viewBox="0 0 465.9 465.9" style="enable-background:new 0 0 465.9 465.9;" xml:space="preserve">
<style type="text/css">
	.st0{fill:#5A4099;}
	.st1{fill:#C1D82F;}
	.st2{fill:#F8971D;}
	.st3{fill:#E2831B;}
	.st4{fill:#DBD882;}
	.st5{fill:#EDED8A;}
	.st6{fill:#8BD2F4;}
</style>
<title>icon-rubiks-cube</title>
<g>
	<g id="Layer_1-2">
		<path class="st0" d="M95.7,203.6c-2.7,3.2-3.5,7.7-2,11.7l30.2,79.8l18.3,48.8l133.5,24.5c3.2,0.6,6.5-0.6,8.6-3.1l86.9-103.5
			c2.1-2.5,2.7-5.9,1.6-8.9l-44.9-122.5c-1.6-4.5-5.5-7.7-10.2-8.6l-85-15.6l-48.6-8.4L95.7,203.6z"/>
		<path class="st1" d="M223.2,322.6c0.2,0.8,0.2,1.1,0.3,1.4c4.2,11.7,8.5,23.4,12.7,35.1c0.6,1.7,1.7,2.2,3.3,2.5
			c11.8,2.1,23.6,4.2,35.5,6.2c0.7,0.1,1.4,0.1,2.3,0.2c-0.1-0.5-0.2-1-0.3-1.5c-4.2-11.7-8.6-23.4-12.7-35.2
			c-0.7-1.8-1.9-2.1-3.4-2.4c-11.5-2-23-4.1-34.5-6.1C225.4,322.8,224.5,322.7,223.2,322.6z"/>
		<path class="st1" d="M140.7,220.7c0,0.4,0,0.7,0.1,1.1c4.3,11.9,8.7,23.8,12.9,35.8c0.7,1.9,1.9,2.1,3.4,2.3l34.6,6.1
			c0.9,0.2,1.9,0.2,3.2,0.4l-14-38.6L140.7,220.7z"/>
		<path class="st1" d="M260.4,321.6c-0.1-0.5-0.1-0.9-0.3-1.4c-4.3-11.8-8.6-23.6-12.8-35.5c-0.5-1.5-1.4-1.9-2.8-2.2
			c-11.9-2.1-23.7-4.2-35.6-6.3c-0.8-0.1-1.6-0.2-2.7-0.2c0.4,1.2,0.6,2,0.9,2.8c4,11,8.1,22,12,33c0.7,2,1.8,2.9,3.8,3.2
			c11.5,1.9,23.1,4,34.6,6.1C258.3,321.4,259.2,321.5,260.4,321.6z"/>
		<path class="st1" d="M157.5,267.3c0.1,0.5,0.1,0.9,0.3,1.4c4.2,11.7,8.5,23.4,12.7,35.2c0.7,1.9,1.9,2.3,3.6,2.6
			c11.5,2,23.1,4.1,34.6,6.1c0.9,0.2,1.8,0.2,3.2,0.3c-4.7-13-9.3-25.7-14-38.5L157.5,267.3z"/>
		<path class="st1" d="M243.5,275c-0.2-0.9-0.3-1.3-0.4-1.7c-4.2-11.5-8.4-23-12.5-34.5c-0.6-1.8-1.7-2.5-3.5-2.8
			c-11.9-2-23.7-4.2-35.6-6.2c-0.7-0.1-1.4-0.1-2.4-0.2c4.5,12.5,9,24.6,13.3,36.7c0.6,1.7,1.8,2,3.2,2.2
			c11.9,2.1,23.7,4.2,35.6,6.3C241.9,274.9,242.5,274.9,243.5,275z"/>
		<path class="st1" d="M228.6,359.7c-0.2-0.9-0.3-1.3-0.4-1.7c-4.2-11.6-8.5-23.2-12.6-34.9c-0.6-1.7-1.6-2.3-3.3-2.6
			c-11.9-2-23.7-4.2-35.6-6.2c-0.7-0.1-1.4-0.2-2.2-0.2c0,0.4,0.1,0.8,0.2,1.2c4.3,11.8,8.6,23.6,12.8,35.5c0.6,1.6,1.7,2.1,3.1,2.3
			c6,1,12,2.1,17.9,3.2C215.1,357.3,221.6,358.4,228.6,359.7z"/>
		<path class="st2" d="M294.9,165c-0.4,0.4-0.9,0.7-1.3,1.2c-8,9.5-15.9,19-23.9,28.4c-1.4,1.6-0.9,2.9-0.3,4.5
			c3.9,10.8,7.9,21.6,11.8,32.4c0.4,1,0.8,1.9,1.3,3.2c0.8-0.8,1.4-1.4,2-2c7.6-9,15-18,22.7-26.9c1.5-1.7,1.6-3.2,0.9-5.2
			c-4-10.8-7.9-21.6-11.8-32.4C295.8,167.2,295.4,166.3,294.9,165z"/>
		<path class="st2" d="M250.4,272.6c0.8-0.7,1.2-1.1,1.5-1.4c7.9-9.4,15.8-18.8,23.7-28.1c1.3-1.6,1-2.8,0.4-4.4
			c-4.1-11.1-8.1-22.2-12.2-33.3c-0.3-0.7-0.7-1.4-1.1-2.3c-0.4,0.4-0.8,0.7-1.2,1.1c-7.9,9.4-15.8,18.8-23.7,28.1
			c-1.1,1.1-1.4,2.7-0.7,4.1c2.1,5.6,4.1,11.2,6.1,16.8C245.7,259.5,248,265.8,250.4,272.6z"/>
		<path class="st2" d="M314.1,196.6c0.4-0.2,0.8-0.5,1.1-0.8c8.1-9.6,16.2-19.3,24.4-28.9c1.1-1.4,0.8-2.5,0.3-3.9
			c-4-11.1-8.1-22.2-12.1-33.3c-0.3-0.8-0.7-1.6-1.1-2.5c-0.3,0.2-0.6,0.3-0.9,0.6c-8.2,9.7-16.4,19.4-24.6,29.1
			c-0.9,1.1-0.9,2.1-0.4,3.3c1.5,4.1,3,8.2,4.5,12.2C308.2,180.4,311.1,188.4,314.1,196.6z"/>
		<path class="st2" d="M296.7,295.8c-0.9,0.9-1.4,1.4-1.9,2c-7.6,9-15.2,18.1-22.8,27.1c-1.4,1.7-1.5,3-0.8,4.9
			c4.1,11.1,8.1,22.2,12.2,33.3c0.3,0.8,0.7,1.4,1.1,2.3c0.3-0.2,0.7-0.5,1-0.8c8-9.5,16-19.1,24.1-28.6c1.2-1.4,1.1-2.6,0.5-4.1
			c-4.1-11.1-8.1-22.2-12.1-33.3C297.6,297.8,297.2,297,296.7,295.8z"/>
		<path class="st3" d="M316.2,327.5c0.4-0.3,0.8-0.6,1.1-1c8-9.5,16-19.1,24.1-28.6c1.2-1.4,0.9-2.6,0.4-4.1c-4-11-8-22-12-33
			c-0.3-0.9-0.7-1.7-1.2-2.8c-0.6,0.6-1,0.9-1.3,1.3c-8,9.5-15.9,19-23.9,28.4c-1.3,1.5-0.8,2.7-0.3,4.1c4,11,8,22,12,33
			C315.3,325.6,315.7,326.5,316.2,327.5z"/>
		<path class="st3" d="M334,251.3l13.9,38.4c0.7-0.7,1.2-1.1,1.6-1.6c7.9-9.4,15.8-18.8,23.7-28.1c1.2-1.4,1-2.6,0.5-4.1
			c-4.1-11.2-8.1-22.4-12.2-33.6c-0.4-0.8-0.8-1.6-1.2-2.3L334,251.3z"/>
		<path class="st2" d="M267.4,318.8c0.3-0.2,0.7-0.4,1-0.7c8.1-9.6,16.2-19.3,24.4-28.8c1.1-1.3,0.9-2.5,0.4-3.9
			c-4.2-11.4-8.3-22.8-12.5-34.2c-0.3-0.6-0.6-1.1-0.9-1.6c-0.3,0.2-0.6,0.5-0.9,0.8c-8,9.4-15.9,18.9-24,28.3
			c-1.3,1.5-1.2,2.8-0.6,4.4c4.1,11.1,8.1,22.2,12.2,33.3C266.7,317.2,267.1,317.9,267.4,318.8z"/>
		<path class="st4" d="M331.1,243c0.5-0.4,0.9-0.7,1.4-1.2c8-9.5,15.9-19,23.9-28.4c1.1-1.3,1-2.4,0.5-3.9
			c-4.1-11.3-8.2-22.6-12.4-33.9c-0.3-0.8-0.7-1.6-1.2-2.3l-2.3,2.8c-7.5,8.9-14.9,17.8-22.4,26.7c-1.2,1.5-1.3,2.7-0.7,4.4
			c4.1,11.2,8.2,22.4,12.3,33.6C330.4,241.5,330.7,242.2,331.1,243z"/>
		<path class="st5" d="M142,213.4c0.3,0.2,0.7,0.4,1,0.5c12.5,2.2,25,4.4,37.4,6.7c1.8,0.3,2.5-0.6,3.4-1.7
			c7.7-9.2,15.5-18.4,23.2-27.6c0.4-0.5,0.8-1.1,1.3-1.9c-0.9-0.2-1.4-0.4-1.9-0.5c-12-2.1-24.1-4.2-36.1-6.5c-2-0.4-3,0.5-4.1,1.8
			c-7.5,9-15,18-22.6,26.9C143.1,211.8,142.6,212.5,142,213.4z"/>
		<path class="st5" d="M190.6,222.3l40.2,7.1l26.3-31.4c-0.6-0.2-1.1-0.4-1.7-0.5c-12.2-2.2-24.3-4.3-36.5-6.5
			c-1.9-0.3-2.8,0.6-3.8,1.8c-7.6,9.1-15.2,18.1-22.8,27.2C191.8,220.6,191.4,221.3,190.6,222.3z"/>
		<path class="st6" d="M240.2,151.7c-0.6-0.4-0.8-0.6-1-0.6c-12.5-2.2-25-4.4-37.5-6.7c-1.8-0.3-2.6,0.6-3.5,1.7
			c-7.7,9.2-15.4,18.3-23,27.4c-0.5,0.6-0.9,1.3-1.4,2c0.3,0.2,0.6,0.3,0.9,0.4c12.5,2.2,25,4.4,37.5,6.7c1.8,0.3,2.6-0.5,3.5-1.6
			c4.8-5.8,9.6-11.5,14.4-17.2L240.2,151.7z"/>
		<path class="st5" d="M289.2,160.2c-0.5-0.2-1-0.4-1.5-0.5c-12.3-2.2-24.6-4.3-36.8-6.6c-1.8-0.3-2.8,0.4-3.8,1.7
			c-5.8,6.9-11.6,13.8-17.4,20.7l-7.3,8.6c0.5,0.2,0.9,0.4,1.4,0.6c12.4,2.2,24.8,4.4,37.1,6.7c1.8,0.3,2.5-0.6,3.5-1.7
			c7.3-8.7,14.6-17.5,22-26.2L289.2,160.2z"/>
		<path class="st5" d="M272.3,113.6c-1-0.3-1.4-0.4-1.8-0.5c-12.2-2.2-23.7-5.1-35.8-7.4c-1.8-0.3-2.8,0.4-3.8,1.6
			c-7.7,9.2-16.1,19.3-23.9,28.5c-0.4,0.5-0.8,1.1-1.2,1.8c0.4,0.2,0.8,0.3,1.2,0.4c12.4,2.2,24.8,4.4,37.1,6.7
			c1.6,0.3,2.4-0.3,3.3-1.4c5.8-7,11.7-14,17.6-20.9L272.3,113.6z"/>
		<path class="st5" d="M294.5,153.6l26.4-31.4c-0.9-0.3-1.5-0.5-2.1-0.6c-12-2.1-23.9-4.2-35.9-6.4c-2-0.4-3,0.5-4.1,1.8
			c-7.7,9.2-15.3,18.3-23,27.4c-0.4,0.5-0.8,1.2-1.5,2.1L294.5,153.6z"/>
		<path class="st3" d="M315.2,195.8c8.1-9.6,16.2-19.3,24.4-28.9c1.1-1.4,0.8-2.5,0.3-3.9c-4-11.1-8.1-22.2-12.1-33.3
			c-0.3-0.8-0.7-1.6-1.1-2.5"/>
		<path class="st2" d="M311.8,211.4c-0.6,0.4-1.1,0.9-1.6,1.4c-7.9,9.4-15.7,18.8-23.6,28.1c-1.3,1.6-1,2.9-0.4,4.5
			c4.1,11.1,8.1,22.2,12.1,33.3c0.3,0.7,0.6,1.4,0.9,2.2c0.4-0.2,0.8-0.5,1.2-0.8c8.1-9.6,16.2-19.2,24.3-28.9
			c1-1.2,0.8-2.3,0.3-3.6c-2-5.5-4-11-6-16.5L311.8,211.4z"/>
		<path class="st3" d="M299.2,280.9c0.4-0.2,0.8-0.5,1.2-0.8c8.1-9.6,16.2-19.2,24.3-28.9c1-1.2,0.8-2.3,0.3-3.6c-2-5.5-4-11-6-16.5
			l-7.2-19.7"/>
		<path class="st3" d="M284.4,365.4c0.3-0.2,0.7-0.5,1-0.8c8-9.5,16-19.1,24.1-28.6c1.2-1.4,1.1-2.6,0.5-4.1
			c-4.1-11.1-8.1-22.2-12.1-33.3c-0.3-0.8-0.7-1.5-1.2-2.8"/>
		<path class="st1" d="M93.4,212.4c0,0.7-1.7,0.7-1.7,0.9c4.3,11.9,10.4,24.1,14.6,36c0.7,1.9,1.9,2.1,3.4,2.3
			c11.5,2,23.1,4.1,34.6,6.1c0.9,0.2,1.9,0.2,3.2,0.4l-14-38.6L93.4,212.4z"/>
		<path class="st1" d="M110.3,258.9c0.1,0.5,0.1,0.9,0.3,1.4c4.2,11.7,8.5,23.4,12.7,35.2c0.7,1.9,1.9,2.3,3.6,2.6
			c11.5,2,23.1,4.1,34.6,6.1c0.9,0.2,1.8,0.2,3.2,0.3c-4.7-13-9.3-25.7-14-38.5L110.3,258.9z"/>
		<path class="st2" d="M181.3,351.3c-0.2-0.9-0.3-1.3-0.4-1.7c-4.2-11.6-8.5-23.2-12.6-34.9c-0.6-1.7-1.6-2.3-3.3-2.6
			c-11.9-2-23.7-4.2-35.6-6.2c-0.7-0.1-1.4-0.2-2.2-0.2c0,0.4,0.1,0.8,0.2,1.2c4.3,11.8,8.6,23.6,12.8,35.5c0.6,1.6,1.7,2.1,3.1,2.3
			c6,1,12,2.1,17.9,3.2C167.8,349,174.3,350.1,181.3,351.3z"/>
		<path class="st5" d="M94.7,205c0.3,0.2,0.7,0.4,1,0.5c12.5,2.2,25,4.4,37.4,6.7c1.8,0.3,2.5-0.6,3.4-1.7
			c7.7-9.2,15.5-18.4,23.2-27.6c0.4-0.5,0.8-1.1,1.3-1.9c-0.9-0.2-1.4-0.4-1.9-0.5c-12-2.1-24.1-4.2-36.1-6.5c-2-0.4-3,0.5-4.1,1.8
			c-7.5,9-15,18-22.6,26.9C95.9,203.4,95.3,204.2,94.7,205z"/>
		<path class="st6" d="M193,143.3c-0.6-0.4-0.8-0.6-1-0.6c-12.5-2.2-25-4.4-37.5-6.7c-1.8-0.3-2.6,0.6-3.5,1.7
			c-7.7,9.2-15.4,18.3-23,27.4c-0.5,0.6-0.9,1.3-1.4,2c0.3,0.2,0.6,0.3,0.9,0.4c12.5,2.2,25,4.4,37.5,6.7c1.8,0.3,2.6-0.5,3.5-1.6
			c4.8-5.7,9.6-11.5,14.4-17.2L193,143.3z"/>
		<path class="st5" d="M225,105.2c-1-0.3-1.4-0.4-1.8-0.5c-12.2-2.2-23.6-5.1-35.8-7.4c-1.8-0.3-2.8,0.4-3.8,1.6
			c-7.7,9.2-16.2,19.3-23.9,28.5c-0.4,0.5-0.8,1.1-1.2,1.8c0.4,0.2,0.8,0.3,1.2,0.4c12.4,2.2,24.8,4.4,37.1,6.7
			c1.6,0.3,2.4-0.3,3.3-1.4c5.8-7,11.7-13.9,17.6-20.9L225,105.2z"/>
	</g>
</g>
</svg>
