<?xml version="1.0" encoding="utf-8"?>
<!-- Generator: Adobe Illustrator 23.1.1, SVG Export Plug-In . SVG Version: 6.00 Build 0)  -->
<svg version="1.1" id="Layer_1" xmlns="http://www.w3.org/2000/svg" xmlns:xlink="http://www.w3.org/1999/xlink" x="0px" y="0px"
	 viewBox="0 0 393.9 393.9" style="enable-background:new 0 0 393.9 393.9;" xml:space="preserve">
<style type="text/css">
	.st0{fill:#F8971D;}
	.st1{fill:#E2831B;}
	.st2{fill:#EDED8A;}
</style>
<title>icon-football</title>
<g>
	<g id="Layer_1-2">
		<path class="st0" d="M296.3,201.2c-7.4-27.2-20.4-51.3-40.1-71.5c-26.7-27.3-59-44.1-96.6-50.5C148.3,77.3,137,77,125.6,79
			c-11,2-19.3,7.6-24,17.9c-2.1,4.5-3.9,9.1-5.4,13.8C91.4,127.2,90.5,144,92,161c2,23.7,8.4,46.3,20.1,67
			c27.4,48.5,68.4,77.8,123.5,87c11.3,1.9,22.9,1.8,34.1-0.4c10.9-2.2,18.8-8,23.5-18.2c1-2.2,2-4.3,2.8-6.6
			c5-13.6,6.5-27.9,6.6-39.4C302.6,232.4,300.6,216.9,296.3,201.2z"/>
		<path class="st1" d="M293.2,296.4c-4.7,10.1-12.6,16-23.5,18.2c-11.2,2.2-22.8,2.4-34.1,0.4c-55.1-9.2-96.2-38.6-123.5-87
			c-11.7-20.7-18.1-43.3-20.1-67c-1.4-17-0.6-33.8,4.3-50.2c1.5-4.7,3.3-9.3,5.4-13.8l0,0c28.8,82.9,89.5,150.8,168.7,188.6
			L293.2,296.4z"/>
		<path class="st2" d="M261.6,222.8c2.1,5.1,4.1,10.2,5.9,15.4c1.2-0.7,2.5-1.3,3.8-1.9c-2.2-5.9-4.5-11.7-6.9-17.6
			c3.1-2.4,6.2-4.8,9.3-7.2c1.7-1.3,2-2.7,1-4s-2.5-1.3-4.1,0c-2.8,2.1-5.5,4.3-8.5,6.6c-1.3-2.6-2.5-4.9-3.7-7.4
			c3.9-3,7.7-5.9,11.4-8.9c1.4-1.1,1.6-2.6,0.6-3.8c-1-1.2-2.4-1.2-3.7-0.2c-2.4,1.8-4.8,3.7-7.2,5.6c-1.2,0.9-2.4,1.8-3.6,2.8
			l-4.3-7.5c0.5-0.4,1-0.8,1.4-1.2c3.1-2.4,6.2-4.8,9.3-7.2c1.7-1.3,2-2.7,1.1-4c-1-1.3-2.5-1.4-4.3,0c-2.1,1.6-4.2,3.3-6.4,4.9
			c-1.3,1-2.5,1.9-3.9,3l-4.7-7.2l3-2.4c2.4-1.9,4.8-3.7,7.2-5.6c1.1-0.8,1.4-2.4,0.6-3.5c0,0,0,0,0-0.1c-0.9-1.2-2.3-1.4-3.7-0.4
			c-0.5,0.4-1,0.8-1.5,1.2l-8.4,6.6l-4.4-6.1c0.5-0.4,1-0.8,1.4-1.2c2.7-2.1,5.5-4.2,8.1-6.3c1.4-1.1,1.6-2.5,0.7-3.7
			c-0.9-1.2-2.4-1.4-3.9-0.4c-0.5,0.4-1,0.8-1.5,1.2l-8.1,6.3l-4.7-5.9l1.9-1.5c2.6-2,5.3-4,7.9-6.1c1.1-0.8,1.4-2.3,0.7-3.5
			c-0.1-0.1-0.1-0.2-0.2-0.2c-0.9-1.1-2.3-1.2-3.6-0.3c-0.5,0.4-1,0.8-1.5,1.2l-8.5,6.6l-5.7-6.4c0.6-0.5,1.1-0.9,1.6-1.3
			c2.9-2.3,5.8-4.5,8.7-6.8c1.2-0.9,1.5-2.1,0.8-3.4c-0.5-1.1-1.9-1.6-3-1.1c-0.6,0.2-1.1,0.6-1.6,1c-3.3,2.6-6.6,5.1-9.5,7.4
			l-6.4-5.9l2.7-2.1c2.4-1.8,4.7-3.6,7-5.5c1.6-1.2,1.8-2.7,0.8-3.9c-1-1.3-2.5-1.2-4-0.1c-0.4,0.3-0.8,0.6-1.2,1l-9.3,7.2l-6-5.6
			l7.5-5.8c1.8-1.4,2.1-2.8,1-4.2s-2.4-1.3-4.2,0.1c-2.8,2.1-8.2,6.4-8.2,6.4s-9.4-7.6-11.2-9c-4.4-3.4-11.4-8.3-17.4-12.3
			c-1.6,0.5-3.3,1.2-4.8,1.9c10.4,6.8,20.4,14.2,30,22c-1,0.8-1.8,1.4-2.6,2.1c-2.6,2-5.3,4-7.9,6.1c-1.2,0.8-1.4,2.4-0.6,3.5
			c0,0,0,0,0,0c0.8,1.1,2.3,1.4,3.5,0.7c0,0,0.1,0,0.1-0.1c0.5-0.3,1-0.8,1.5-1.2l10-7.7c2,1.9,4,3.6,6,5.5c-0.5,0.4-1,0.8-1.4,1.2
			c-2.3,1.8-4.8,3.6-7,5.5c-0.7,0.7-1,1.7-1,2.7c0.3,0.8,1,1.5,1.8,1.8c0.9,0.1,1.8-0.2,2.5-0.8c2.9-2.2,5.8-4.4,8.6-6.6l6.2,6
			c-0.5,0.4-1,0.8-1.4,1.1c-2.4,1.9-4.8,3.7-7.2,5.6c-1.1,0.8-1.4,2.3-0.7,3.5c0,0,0,0.1,0.1,0.1c0.7,1.1,2.1,1.4,3.3,0.8
			c0.5-0.3,1-0.6,1.4-1c2.7-2.1,5.3-4.1,8.1-6.3l5.7,6.4c-0.8,0.7-1.5,1.2-2.2,1.7c-2.4,1.9-4.9,3.8-7.3,5.7
			c-1.1,0.8-1.4,2.4-0.6,3.6c0.8,1.1,2.4,1.4,3.6,0.6c0,0,0.1,0,0.1-0.1c0.5-0.4,1-0.8,1.5-1.2l8.2-6.4l4.7,5.9
			c-0.6,0.5-1,0.9-1.5,1.2l-7.5,5.8c-1.9,1.5-2.4,2.9-1.3,4.2c1,1.4,2.5,1.4,4.6-0.2c0.9-0.7,1.8-1.4,2.8-2.1l6.1-4.7l4.4,6.1
			c-0.8,0.7-1.5,1.2-2.2,1.7c-2.4,1.9-4.9,3.8-7.3,5.7c-1.1,0.8-1.4,2.4-0.5,3.5c0.6,0.9,1.8,1.2,2.8,0.9c0.5-0.2,1-0.5,1.5-0.9
			c2.9-2.2,5.7-4.4,8.7-6.7l4.6,7.3c-2.8,2.2-5.5,4.2-8.1,6.3c-1.8,1.4-2.1,2.8-1,4.1c1,1.2,2.5,1.2,4.2-0.1c2.5-1.9,5-3.9,7.7-5.9
			l4.3,7.5l-7.5,5.8c-2.1,1.6-2.6,3.1-1.5,4.5s2.5,1.2,4.7-0.5l6.8-5.2l3.7,7.3c-0.6,0.5-1,0.9-1.5,1.2c-2.9,2.3-6,4.5-8.8,6.9
			c-0.7,0.8-1.1,1.8-1,2.8c0.1,0.7,1.2,1.5,2.1,1.7c0.7,0.2,1.7-0.4,2.3-0.9c3-2.3,6-4.6,9-7C261.2,222,261.5,222.5,261.6,222.8z"/>
		<path class="st2" d="M94.2,178.2c0,0,14.7-76.3,104.5-87.8c0,0,13.6,5,20.2,10c0,0-78.1,18.2-117.4,104.2
			C101.5,204.6,94.4,187.4,94.2,178.2z"/>
		<path class="st2" d="M299.6,215.3c0,0-16.4,76.4-106.1,87.8c0,0-13.6-5-20.2-10c0,0,79.8-18.2,119.1-104.2
			C292.4,188.9,299.4,206.1,299.6,215.3z"/>
	</g>
</g>
</svg>
