<?xml version="1.0" encoding="utf-8"?>
<!-- Generator: Adobe Illustrator 23.1.1, SVG Export Plug-In . SVG Version: 6.00 Build 0)  -->
<svg version="1.1" id="Layer_1" xmlns="http://www.w3.org/2000/svg" xmlns:xlink="http://www.w3.org/1999/xlink" x="0px" y="0px"
	 viewBox="0 0 465.8 465.8" style="enable-background:new 0 0 465.8 465.8;" xml:space="preserve">
<style type="text/css">
	.st0{fill:#C1D82F;}
	.st1{fill:#6D60A5;}
	.st2{fill:#F8971D;}
	.st3{fill:#E2831B;}
	.st4{fill:#5A4099;}
</style>
<title>icon-controller</title>
<g>
	<g id="Layer_1-2">
		<path class="st0" d="M282.2,263c8.4-2.8,13-11.8,10.3-20.3c-2.8-8.4-11.8-13-20.3-10.3c-8.4,2.7-13,11.7-10.3,20.1
			C264.6,261.1,273.7,265.7,282.2,263z"/>
		<path class="st0" d="M199.4,290.1c8.4-2.8,13-11.8,10.3-20.3s-11.8-13-20.3-10.3c-8.4,2.7-13,11.7-10.3,20.1
			C181.9,288.2,190.9,292.8,199.4,290.1z"/>
		<path class="st1" d="M302.2,257.9c-11.1,21.5-38,20.3-48.3,1.1l-7.5,2.5c-7.8,2.6-15.7,5.1-23.5,7.8c-1,0.4-2.4,2-2.3,2.8
			c2.4,19.3-18.3,36.5-39.6,25.5c-1.4,2.8-2.6,5.7-4.1,8.5c-5.2,9.4-10.1,18.9-15.8,27.9c-11.1,17.7-31.9,17.1-42.3-2
			C96,290.3,88.2,246.3,100,199.7c3.9-15.2,11.5-28.3,25.4-36.7c11.8-7.1,24.6-9,38-7.5c5.5,0.6,10.9,2.1,16.3,3.2
			c1.3,0.3,2.7,0.8,4,0.8c14.6-0.5,28.2-3.4,38.1-15.6c11.3-13.9,24.8-24.2,43.1-27c14-2.1,26.7,2,38.1,9.7
			c19.6,13.2,34.2,30.9,45.9,51.2c12.3,21.4,20.3,44.3,23.4,68.8c0.5,4,0.6,8.1,0.1,12.1c-1.8,13.4-13.6,21.5-26.8,18.5
			c-13.3-3-25.4-9.4-37.2-15.9C306.3,260.1,304.3,259.1,302.2,257.9z M164.9,229.7c2.9-0.9,5.2-1.7,7.5-2.5c2.3-0.8,4.7-1.5,7-2.4
			c3.3-1.4,4.4-3.6,3.3-7.1c-0.9-3.1-1.9-6.1-3-9.1c-1.6-4.5-3.9-5.6-8.6-4.1c-4.2,1.3-8.4,2.7-12.9,4.2c-1.6-4.8-3-9.2-4.5-13.6
			c-1.3-3.8-3.5-4.9-7.4-3.8c-3.1,0.9-6.1,1.9-9.1,3c-4.5,1.5-5.6,3.7-4.1,8.2c1.4,4.3,2.8,8.6,4.3,13.1c-4.8,1.6-9.2,2.9-13.5,4.4
			c-3.9,1.4-5.1,3.7-4,7.7c0.6,2.2,1.3,4.5,2,6.7c2.4,7.2,4,8,11.1,5.7l11.2-3.6c1.8,5.4,3.2,9.8,4.7,14.2c1.2,3.5,3.7,4.6,7.3,3.4
			c3-1,6.1-2,9.1-3c4.2-1.4,5.4-3.6,4.1-7.9C167.9,238.9,166.5,234.6,164.9,229.7z M293.1,242.8c-2.7-8.5-11.8-13.2-20.3-10.5
			c0,0,0,0,0,0c-8.3,2.7-13.1,11.9-10.4,20.1c2.8,8.4,11.9,13,20.4,10.2C290.9,259.9,295.5,251.1,293.1,242.8z M199.4,290.1
			c8.4-2.8,13-11.8,10.3-20.3s-11.8-13-20.3-10.3c-8.4,2.7-13,11.7-10.3,20.1C181.9,288.2,190.9,292.8,199.4,290.1z M284.9,151.2
			c-2.1-6.4-9-9.8-15.3-7.7c0,0,0,0-0.1,0c-6,2.1-9.5,9.1-7.5,15.2c2.2,6.3,9,9.7,15.4,7.6c0,0,0,0,0,0
			C283.7,164.2,287,157.4,284.9,151.2z M301.2,201.5c-2-6.4-8.7-9.9-15.1-8c-0.1,0-0.2,0-0.2,0.1c-5.6,1.9-9.3,9.2-7.5,15.1
			c1.9,6.3,8.7,9.9,15,8c0.1,0,0.2-0.1,0.3-0.1C300.1,214.4,303.3,208,301.2,201.5z M310.9,183c5.9-1.8,9.4-9.1,7.3-15.2
			c-1.9-5.9-8.8-9.3-14.9-7.4c-6.3,1.9-9.9,8.6-8,14.9C297.2,181.8,303.9,185.1,310.9,183z M260.1,199.6c6.3-1.8,10-8.4,8.2-14.7
			c0,0,0,0,0,0c-1.9-6.3-8.5-9.9-14.8-8.1c-6.4,1.9-10.1,8.5-8.4,14.7C246.9,198.1,253.4,201.6,260.1,199.6z"/>
		<path class="st2" d="M284.9,151.2c2.1,6.2-1.2,13-7.4,15.2c-6.3,2.2-13.2-1.2-15.4-7.5c0,0,0,0,0,0c-2-6.1,1.4-13.2,7.5-15.2
			C275.9,141.4,282.8,144.8,284.9,151.2C284.9,151.2,284.9,151.2,284.9,151.2z"/>
		<path class="st2" d="M301.2,201.5c2.1,6.5-1.1,13-7.5,15c-6.3,2.1-13.1-1.3-15.2-7.6c0-0.1-0.1-0.2-0.1-0.3
			c-1.8-5.9,1.8-13.2,7.5-15.1c6.3-2.1,13.2,1.3,15.3,7.6C301.2,201.3,301.2,201.4,301.2,201.5z"/>
		<path class="st3" d="M310.9,183c-6.9,2.1-13.7-1.2-15.6-7.7c-1.9-6.3,1.7-13,8-14.9c6.1-1.9,13,1.5,15,7.4
			C320.2,173.9,316.7,181.2,310.9,183z"/>
		<path class="st3" d="M260.1,199.6c-6.7,2-13.2-1.5-15-8.2c-1.8-6.2,2-12.8,8.4-14.7c6.3-1.8,12.9,1.8,14.8,8.1
			C270.1,191.2,266.4,197.8,260.1,199.6C260.1,199.6,260.1,199.6,260.1,199.6z"/>
		<path class="st4" d="M222.9,269.2c-1,0.4-2.4,2-2.3,2.8c2.4,19.3-18.3,36.5-39.6,25.5c-1.4,2.8-2.6,5.7-4.1,8.5
			c-5.2,9.4-10.1,18.9-15.8,27.9c-11.1,17.7-31.9,17.1-42.3-2C96,290.3,88.2,246.3,100,199.7c3.9-15.2,11.5-28.3,25.4-36.7
			c11.8-7.1,24.6-9,38-7.5c5.5,0.6,10.9,2.1,16.3,3.2l17.5,84.3L222.9,269.2z M164.9,229.7c2.9-0.9,5.2-1.7,7.5-2.5
			c2.3-0.8,4.7-1.5,7-2.4c3.3-1.4,4.4-3.6,3.3-7.1c-0.9-3.1-1.9-6.1-3-9.1c-1.6-4.5-3.9-5.6-8.6-4.1c-4.2,1.3-8.4,2.7-12.9,4.2
			c-1.6-4.8-3-9.2-4.5-13.6c-1.3-3.8-3.5-4.9-7.4-3.8c-3.1,0.9-6.1,1.9-9.1,3c-4.5,1.5-5.6,3.7-4.1,8.2c1.4,4.3,2.8,8.6,4.3,13.1
			c-4.8,1.6-9.2,2.9-13.5,4.4c-3.9,1.4-5.1,3.7-4,7.7c0.6,2.2,1.3,4.5,2,6.7c2.4,7.2,4,8,11.1,5.7l11.2-3.6
			c1.8,5.4,3.2,9.8,4.7,14.2c1.2,3.5,3.7,4.6,7.3,3.4c3-1,6.1-2,9.1-3c4.2-1.4,5.4-3.6,4.1-7.9C167.9,238.9,166.5,234.6,164.9,229.7
			z M199.4,290.1c8.4-2.8,13-11.8,10.3-20.3s-11.8-13-20.3-10.3c-8.4,2.7-13,11.7-10.3,20.1C181.9,288.2,190.9,292.8,199.4,290.1
			L199.4,290.1z"/>
		<path class="st0" d="M165,230.1c2.9-0.9,5.2-1.7,7.5-2.5s4.7-1.5,7-2.4c3.3-1.4,4.4-3.6,3.3-7.1c-0.9-3-1.9-6.1-3-9.1
			c-1.6-4.5-3.9-5.6-8.6-4.1c-4.2,1.3-8.4,2.7-12.9,4.2c-1.6-4.8-3-9.2-4.5-13.6c-1.3-3.8-3.5-4.9-7.4-3.8c-3.1,0.9-6.1,1.9-9.1,3
			c-4.5,1.5-5.6,3.7-4.1,8.2c1.4,4.3,2.8,8.6,4.3,13.1c-4.8,1.6-9.2,2.9-13.5,4.4c-3.9,1.4-5.1,3.7-4,7.7c0.6,2.2,1.3,4.5,2,6.7
			c2.4,7.2,4,8,11.1,5.7c3.6-1.2,7.3-2.4,11.2-3.7c1.8,5.4,3.2,9.8,4.7,14.2c1.2,3.5,3.7,4.6,7.3,3.4c3-1,6.1-2,9.1-3
			c4.2-1.4,5.4-3.6,4.1-7.9C168.1,239.3,166.6,235,165,230.1z"/>
		<path class="st1" d="M146.9,349.1c-2.5,0.8-5.2,1.2-7.8,1.1c-9.2-0.3-17.6-6.1-22.9-15.9c-23.9-43.9-30.3-88.9-18.9-133.8
			c4.4-17.5,13.1-30,26.3-38c11.4-6.9,24.2-9.5,39.4-7.8c3.9,0.5,7.7,1.2,11.4,2.1c1.7,0.4,3.3,0.8,5,1.1c0.5,0.1,0.9,0.2,1.4,0.3
			c0.7,0.2,1.4,0.3,2.1,0.4c12.4-0.4,26.5-2.5,36.5-14.8c13.2-16.2,27.7-25.2,44.4-27.7c13.4-2,26.8,1.4,39.6,10
			c18.4,12.4,33.6,29.4,46.5,51.9c12.6,22,20.6,45.4,23.6,69.6c0.6,4.2,0.6,8.4,0.1,12.6c-1,7.1-4.5,13-10,16.9
			c-5.5,3.8-12.4,5.1-19.4,3.5c-13.3-3-25-9.1-37.8-16.1l-4.1-2.2l-0.1-0.1c-5.6,9.4-14.9,15-25.1,15.1s-19.6-5.4-25-14.3l-11.5,3.8
			c-5.8,1.9-11.9,3.9-17.8,5.9c-0.4,0.2-0.7,0.5-0.9,0.9c1.1,10.1-3.5,20.1-11.9,25.8c-8.4,5.8-19,6.7-28.8,2.4l-0.3,0.7
			c-0.9,2-1.8,4-2.9,6c-1.3,2.4-2.6,4.7-3.9,7.1c-3.8,6.9-7.7,14.1-12,21C158.2,342.8,152.8,347.2,146.9,349.1z M136.6,161.3
			c-3.8,1.2-7.4,2.9-10.8,5c-12.3,7.4-20.3,19-24.4,35.4c-11.1,43.8-4.8,87.8,18.5,130.7c4.6,8.5,11.7,13.4,19.3,13.7
			c7.4,0.2,14.5-4.1,19.3-11.8c4.2-6.7,8.1-13.8,11.9-20.7c1.3-2.4,2.6-4.7,3.9-7.1c1-1.8,1.9-3.8,2.8-5.7c0.4-0.9,0.8-1.8,1.3-2.7
			l1-2l2,1c9.1,4.7,18.7,4.2,26.4-1.2c7.2-4.9,11.1-13.4,10.1-22.1c-0.3-2.2,2.1-4.5,3.8-5.1c5.9-2.1,12-4.1,17.9-6l14.9-4.8
			l0.8,1.6c4.5,8.4,13,13.7,22.1,13.6c9.4-0.1,17.6-5.4,22.4-14.7l1-1.9l3.9,2.1l4,2.2c12.5,6.9,23.9,12.8,36.7,15.7
			c5.8,1.3,11.5,0.3,16-2.8c4.5-3.1,7.4-8.1,8.2-13.9c0.5-3.8,0.5-7.7-0.1-11.5c-3-23.6-10.8-46.5-23.1-68
			c-12.6-22-27.4-38.5-45.2-50.5c-12.1-8.2-24.1-11.2-36.6-9.4c-15.8,2.3-29.1,10.7-41.7,26.2c-11.1,13.6-26.3,16-39.7,16.4
			c-1.1,0-2.2-0.2-3.3-0.5c-0.4-0.1-0.8-0.2-1.1-0.3c-1.7-0.3-3.4-0.7-5.1-1.1c-3.6-0.9-7.3-1.6-11-2
			C152.9,157.9,144.4,158.7,136.6,161.3L136.6,161.3z M282.7,266.3l-0.4,0.1c-9.5,2.8-19.5-2.5-22.6-12c-3-9.3,2.4-19.7,11.7-22.8
			h0.1c9.6-3.1,19.9,2.2,23,11.8c0,0,0,0,0,0.1l0,0C297.4,253.1,292.2,263.2,282.7,266.3z M272.6,235.7c-7.2,2.3-11.3,10.3-9,17.4
			c2.3,7.3,10,11.3,17.4,9.2c7.3-2.3,11.4-10.1,9.1-17.5C287.9,237.5,280,233.4,272.6,235.7L272.6,235.7z M199.4,293.5L199.4,293.5
			c-4.7,1.5-9.8,1.1-14.1-1.2c-4.3-2.2-7.5-6-9-10.7c-2.9-9.5,2.3-19.6,11.7-22.8l0,0c9.6-3.1,19.8,2.1,23,11.6
			C214.2,280.1,209,290.4,199.4,293.5L199.4,293.5z M189.4,263L189.4,263c-7.2,2.4-11.2,10.2-9,17.4c1.1,3.5,3.6,6.5,6.9,8.1
			c3.3,1.7,7.2,2.1,10.8,0.9l0,0h0c7.2-2.5,11.1-10.1,9-17.4C204.7,264.7,196.8,260.6,189.4,263L189.4,263z M293.7,219.9
			L293.7,219.9c-3.6,1.2-7.6,0.9-11-0.9c-3.4-1.7-5.9-4.8-7-8.4c-2.1-7,2.1-15.4,8.8-17.7c3.6-1.2,7.5-0.9,10.8,0.8
			c3.5,1.7,6.1,4.8,7.2,8.5C305,209.9,301.2,217.5,293.7,219.9L293.7,219.9z M285.9,197L285.9,197c-4.6,1.5-7.6,7.7-6.2,12.4
			c0.8,2.5,2.5,4.6,4.8,5.8c2.4,1.2,5.2,1.5,7.8,0.6l0,0c5.3-1.7,7.9-6.9,6.1-12.4l0,0c-0.8-2.6-2.6-4.7-5.1-6
			C291.1,196.4,288.4,196.2,285.9,197L285.9,197z M156,257.6c-4.6,1.5-8.3-0.3-9.8-4.8c-1-3-2-6.1-3.1-9.4l-0.9-2.8l-9.2,3
			c-8.2,2.7-11,1.2-13.8-7c-0.7-2-1.3-4.2-2.1-6.8c-1.4-5.1,0.3-8.6,5.3-10.3c3-1,6-2,9.1-3l2.3-0.8l-0.7-2.1c-1-3-2-6-2.9-9
			c-1.8-5.6-0.1-8.9,5.5-10.8c2.7-0.9,5.9-2,9.2-3c5-1.5,8.4,0.2,10.1,5.1c1.1,3,2,6.1,3.1,9.3l0.7,2.3l2.2-0.7c3-1,5.8-1.9,8.7-2.8
			c5.8-1.9,9.2-0.2,11.2,5.5c1,2.9,2,5.9,3,9.2c1.4,4.5-0.2,7.9-4.6,9.7c-1.7,0.7-3.5,1.3-5.3,1.8c-0.6,0.2-1.2,0.4-1.8,0.6
			c-1.6,0.5-3.2,1-4.9,1.6l-0.5,0.2l0.8,2.4c1,3.2,2,6.1,3,9.1c1.7,5.3-0.1,8.7-5.5,10.5l-5.4,1.8l-3.7,1.2L156,257.6z M129,221.8
			c-1.7,0.6-3.4,1.1-5.1,1.7c-2.8,1-3.4,2.2-2.6,5.1c0.7,2.5,1.4,4.6,2,6.6c2,6.1,2.4,6.3,8.4,4.3l13.2-4.3l2.2,6.9
			c1.1,3.3,2.1,6.4,3.1,9.4c0.8,2.3,2,2.9,4.5,2.1l3.7-1.2c1.8-0.6,3.6-1.2,5.4-1.8c3.2-1.1,3.7-2.1,2.7-5.2c-0.9-3-1.9-5.9-2.9-9
			l-2.1-6.5l4.6-1.5c1.7-0.6,3.3-1.1,4.9-1.6l1.9-0.6c1.7-0.6,3.4-1.1,5-1.7c2.3-0.9,2.8-2.1,2.1-4.4c-1-3.2-2-6.2-3-9
			c-1.2-3.4-2.4-3.9-5.9-2.8c-2.9,0.9-5.7,1.9-8.7,2.8l-6.2,2l-2.1-6.4c-1-3.2-2-6.2-3-9.2c-0.9-2.7-2-3.2-4.8-2.4c-3.2,1-6.4,2-9,3
			c-3.4,1.2-3.9,2.1-2.8,5.5c0.9,3,1.9,5.9,2.9,8.9l2,6.2l-6.4,2.1L129,221.8z M311,186.4l-0.2,0.1c-3.9,1.3-8.1,0.9-11.7-0.9
			c-3.2-1.7-5.6-4.7-6.6-8.2c-2.1-7.4,2-15.1,9.3-17.5l0.2-0.1c7.3-2.3,15.3,1.7,17.6,8.7c1.2,3.7,0.8,7.8-1,11.3
			C317,182.9,314.3,185.2,311,186.4z M303.1,163.9c-5.1,1.7-7.9,7.1-6.5,12.2c0.7,2.4,2.3,4.4,4.5,5.6c2.6,1.3,5.6,1.5,8.4,0.6
			c2.3-0.8,4.1-2.4,5.2-4.6c1.3-2.4,1.6-5.3,0.8-8c-1.5-4.8-7.3-7.5-12.3-6L303.1,163.9z M260.4,202.9l-0.4,0.1
			c-3.7,1.1-7.7,0.7-11-1.1c-6.8-3.9-9.1-12.6-5.2-19.4s12.6-9.1,19.4-5.2c3.1,1.8,5.4,4.7,6.5,8.2
			C271.7,192.9,267.6,200.6,260.4,202.9L260.4,202.9z M253.1,180.2c-5.2,1.7-8.1,6.9-6.7,12c0.7,2.5,2.3,4.7,4.6,6
			c2.4,1.3,5.2,1.5,7.8,0.7l0,0c5.2-1.4,8.2-6.7,6.9-11.9c-0.7-2.6-2.5-4.9-4.9-6.1c-2.3-1.3-4.9-1.6-7.4-0.8L253.1,180.2z
			 M277.4,169.8c-3.6,1.2-7.6,0.9-11-0.8c-3.4-1.7-5.9-4.6-7.1-8.2c-2.4-7.3,1.6-15.5,8.8-17.9c7.4-2.5,15.5,1.4,18.1,8.9
			c0,0,0,0.1,0,0.1l0,0C288.7,159.3,284.8,167.2,277.4,169.8L277.4,169.8z M269.7,146.9l-0.1,0c-4.9,1.7-7.8,7.6-6.1,12.6
			c0.8,2.5,2.6,4.5,4.9,5.7c2.4,1.2,5.2,1.4,7.7,0.5h0.1c5.1-1.8,7.8-7.3,6.1-12.4l0,0C280.5,148.1,274.9,145.3,269.7,146.9
			L269.7,146.9z"/>
	</g>
</g>
</svg>
