<?xml version="1.0" encoding="utf-8"?>
<!-- Generator: Adobe Illustrator 23.1.1, SVG Export Plug-In . SVG Version: 6.00 Build 0)  -->
<svg version="1.1" id="Layer_1" xmlns="http://www.w3.org/2000/svg" xmlns:xlink="http://www.w3.org/1999/xlink" x="0px" y="0px"
	 viewBox="0 0 398 398" style="enable-background:new 0 0 398 398;" xml:space="preserve">
<style type="text/css">
	.st0{fill:#FFD200;}
	.st1{fill:#11995B;}
	.st2{fill:#00AB66;}
	.st3{fill:#6DB33F;}
	.st4{fill:#C1D82F;}
	.st5{fill:#EDED8A;}
</style>
<title>icon-rollerskate</title>
<g>
	<g id="Layer_1-2">
		<polygon class="st0" points="263.7,269.6 226.1,269.6 213.6,221.1 276.2,221.1 		"/>
		<path class="st1" d="M212.9,263.5h46.8c0.7,0,1.3,0.6,1.3,1.3v7.5c0,0.7-0.6,1.3-1.3,1.3h-46.8c-0.7,0-1.3-0.6-1.3-1.3v-7.5
			C211.6,264.1,212.2,263.5,212.9,263.5z"/>
		<polygon class="st0" points="139.3,269.6 104.2,269.6 92.5,221.1 151,221.1 		"/>
		<path class="st1" d="M104.9,263.5h46.8c0.7,0,1.3,0.6,1.3,1.3v7.5c0,0.7-0.6,1.3-1.3,1.3h-46.8c-0.7,0-1.3-0.6-1.3-1.3v-7.5
			C103.6,264.1,104.2,263.5,104.9,263.5z"/>
		<path class="st2" d="M319.6,222.1l-0.2,0.1v-0.1c0-2.1-0.1-4.3-0.2-6.9c0-5.2-2.7-10-7.2-12.6c-3.7-2.3-7.6-4.2-11.6-5.7
			c-12.7-4.8-25.7-9-38.3-14.3c-22.8-9.5-38.8-26.1-47.9-49.2c-4.8-12.3-6.8-25.1-6.9-38.2c0-1.7-1.1-3.3-2.8-3.9
			c-3.4-1.3-6.7-2.8-10.2-4c-9.7-3.3-19.7-5.4-29.8-3.2c-6.1,1.3-12.2,3.4-18,5.6c-9.4,3.6-19,6.1-29.2,5.1
			c-5.9-0.6-11.7-2-17.6-2.9c-1-0.1-2.4,0.2-3,0.8c-0.5,0.5-0.5,2.1,0,2.9c4.9,9.6,4.7,19.3,0.6,28.9c-2.9,6.9-6.3,13.7-9.5,20.5
			c-5.2,11-9.1,22.3-9.4,34.6c-0.3,11.5,2.1,22.5,6.3,33.2c0.5,1,0.7,2.1,0.8,3.3c0.3,6.1,0.1,12.1-2.8,17.8
			c-1.4,2.6-2.2,5.5-3.2,8.3c-1.2,3.1-0.3,4.2,2.9,4.4l50.7,3.3c46.6,3,93.2,3.9,139.9,2.8c7.1-0.2,14.1-1.7,20.6-4.6l0,0
			c5.7-2.5,11.6-4.5,17.5-6.5c5.1-1.8,8.5-6.5,8.5-11.9L319.6,222.1z"/>
		<path class="st3" d="M146.6,89.7c-9.4,3.6-21.3,10.7-31.5,9.7c-5.9-0.6-4.8-2-10.7-2.9c-1-0.1-2.4,0.2-3,0.8
			c-0.5,0.5-0.5,2.1,0,2.9c4.9,9.6-2.2,19.3-6.3,28.9c-2.9,6.9-6.3,13.7-9.6,20.5l0,0c13.9-0.2,27.9-5.2,39.2-13.6
			C139.3,125.3,147.2,107.8,146.6,89.7z"/>
		<path class="st4" d="M146.6,89.7c-9.4,3.6-19,6.1-29.2,5.1c-5.9-0.6-11.7-2-17.6-2.9c-1-0.1-2.4,0.2-3,0.8c-0.5,0.5-0.5,2.1,0,2.9
			c4.9,9.6,4.7,19.3,0.6,28.9c-2.9,6.9-6.3,13.7-9.5,20.5l0,0c27.5-0.4,51.1-19.7,56.9-46.7L146.6,89.7z"/>
		<circle class="st2" cx="112.9" cy="284.5" r="30.3"/>
		<circle class="st4" cx="112.9" cy="284.5" r="17.7"/>
		<path class="st3" d="M197.7,236c0,0-5.3-52.4,50-60.5l14.2,7.5c0,0-33.9,6.7-30.8,53.1"/>
		<path class="st4" d="M204.5,238.3c0,0-7.6-52.4,47.7-60.5l16.5,7.5c0,0-33.9,6.7-30.8,53.1"/>
		<path class="st1" d="M319.4,222.2l0.2-0.1v8c0,5.4-3.6,10.2-8.8,11.7c-5.6,1.7-11,3.7-16.4,6l0,0c-7.2,3-14.8,4.7-22.6,4.8
			c-46.3,1.1-92.5,0.1-138.8-2.9l-50.7-3.2c-3.3-0.2-4.1-1.4-2.9-4.4c1-2.8,1.9-5.7,3.2-8.3c3-5.7,3.2-11.7,2.8-17.8l161.4,15.5
			C271.5,234,296.3,230.8,319.4,222.2L319.4,222.2z"/>
		<circle class="st3" cx="112.9" cy="284.5" r="8.1"/>
		<circle class="st2" cx="252.1" cy="284.5" r="30.3"/>
		<circle class="st4" cx="252.1" cy="284.5" r="17.7"/>
		<circle class="st3" cx="252.1" cy="284.5" r="8.1"/>
		<circle class="st5" cx="182.3" cy="120.2" r="8.1"/>
		<circle class="st5" cx="192.4" cy="146.4" r="8.1"/>
		<circle class="st5" cx="211.6" cy="168.6" r="8.1"/>
		<path class="st5" d="M183.3,122.7c-1.4,0-2.5-1.1-2.6-2.5c0-1.4,1.1-2.5,2.5-2.6l0,0l27.7-1c1.4-0.1,2.6,1,2.6,2.4
			c0.1,1.4-1,2.6-2.4,2.6L183.3,122.7L183.3,122.7z"/>
		<path class="st5" d="M193.4,149c-1.4,0-2.5-1.1-2.6-2.5s1.1-2.5,2.5-2.6l0,0l27.7-1c1.4-0.1,2.6,1,2.6,2.4c0.1,1.4-1,2.6-2.4,2.6
			l-27.7,1H193.4z"/>
		<path class="st5" d="M211.6,171.2c-1.4,0-2.5-1.1-2.6-2.5c0-1.4,1.1-2.5,2.5-2.6l0,0l27.7-1h0.1c1.4,0,2.5,1.2,2.5,2.6
			c0,1.3-1.1,2.4-2.4,2.5L211.6,171.2L211.6,171.2z"/>
		<path class="st5" d="M88.5,153.5h-0.6c-0.6,0-1-0.5-1-1c0-0.6,0.5-1,1-1c0,0,0,0,0,0c2,0,3.9-0.1,5.9-0.3c0.5-0.1,1,0.3,1.1,0.9
			c0,0,0,0,0,0c0.1,0.6-0.4,1-0.9,1.1c0,0,0,0,0,0C91.3,153.5,89.4,153.5,88.5,153.5z"/>
		<path class="st5" d="M106.5,151c-0.6,0-1-0.5-1-1c0-0.5,0.3-0.8,0.7-1c4.1-1,8-2.4,11.9-4.2c0.5-0.2,1.1,0.1,1.3,0.6
			c0.2,0.5,0,0.9-0.4,1.2c-3.9,1.8-8,3.2-12.2,4.3C106.6,151,106.5,151,106.5,151z M129.5,140.4c-0.3,0-0.6-0.2-0.8-0.4
			c-0.3-0.5-0.2-1.1,0.2-1.4c3.4-2.4,6.5-5.3,9.3-8.4c0.4-0.4,1-0.5,1.4-0.1c0.4,0.4,0.5,1,0.1,1.4c-2.9,3.2-6.1,6.1-9.6,8.7
			C130,140.3,129.8,140.4,129.5,140.4z M146.4,121.5c-0.2,0-0.3,0-0.5-0.1c-0.5-0.3-0.7-0.9-0.4-1.4c0,0,0,0,0,0
			c2.1-3.7,3.8-7.5,5.1-11.5c0.2-0.5,0.8-0.8,1.3-0.6c0.5,0.2,0.7,0.7,0.6,1.2c-1.4,4.1-3.1,8.1-5.2,11.8
			C147.1,121.3,146.8,121.5,146.4,121.5z"/>
		<path class="st5" d="M154.6,97.4h-0.2c-0.5-0.1-0.9-0.6-0.8-1.2c0.3-1.9,0.6-3.9,0.8-5.9c0.1-0.6,0.6-1,1.1-0.9
			c0.6,0.1,1,0.6,0.9,1.1c-0.2,2.1-0.5,4.1-0.8,6.1C155.6,97.1,155.1,97.4,154.6,97.4z"/>
		<path class="st5" d="M136.8,206c-0.4,0-0.7-0.2-0.9-0.6c-1.8-3.5-3.9-6.9-6.5-9.9c-0.4-0.4-0.3-1.1,0.1-1.4s1.1-0.3,1.4,0.1
			c2.7,3.1,4.9,6.6,6.8,10.3c0.2,0.5,0,1.1-0.5,1.4c0,0,0,0,0,0C137.1,206,136.9,206,136.8,206z M121.2,187.9
			c-0.2,0-0.4-0.1-0.6-0.2c-3.3-2.2-6.8-4-10.6-5.3c-0.5-0.2-0.8-0.8-0.6-1.3c0.2-0.5,0.7-0.7,1.2-0.6c3.9,1.4,7.6,3.2,11,5.5
			c0.4,0.3,0.5,1,0.2,1.4C121.8,187.7,121.5,187.9,121.2,187.9L121.2,187.9z M98.6,179.8h-0.1c-2.2-0.3-4.4-0.4-6.7-0.4
			c-1.7,0-3.4,0.1-5.2,0.3c-0.6,0-1-0.4-1.1-0.9c0-0.5,0.3-1,0.8-1.1c1.8-0.2,3.6-0.3,5.5-0.3c2.3,0,4.6,0.1,6.9,0.4
			c0.6,0.1,0.9,0.6,0.8,1.2C99.5,179.5,99.1,179.8,98.6,179.8L98.6,179.8z"/>
	</g>
</g>
</svg>
