<?xml version="1.0" encoding="utf-8"?>
<!-- Generator: Adobe Illustrator 23.1.1, SVG Export Plug-In . SVG Version: 6.00 Build 0)  -->
<svg version="1.1" id="Layer_1" xmlns="http://www.w3.org/2000/svg" xmlns:xlink="http://www.w3.org/1999/xlink" x="0px" y="0px"
	 viewBox="0 0 497.9 497.9" style="enable-background:new 0 0 497.9 497.9;" xml:space="preserve">
<style type="text/css">
	.st0{fill:#00A4E4;}
	.st1{fill:#EDED8A;}
	.st2{fill:#42357C;}
	.st3{fill:#FFD200;}
	.st4{fill:#0095D6;}
	.st5{fill:#0081C6;}
	.st6{fill:#FFE512;}
</style>
<title>icon-shoe</title>
<g>
	<g id="Layer_1-2">
		<path class="st0" d="M376.5,100.2c-5.3-2.9-11.8-2.6-17.3,0.1c-10.9,5.5-15.5,17.3-18.2,28.6c-3.3,13.9-5.1,29.6-16,38.8
			c-5.7,4.8-13.1,7.2-20.2,9.4c-22.2,6.8-46.2,13.6-68,4.8c-1.8-0.8-3.7-1.2-5.6-1.2c-9,0.1-10,9-9.6,16c0.9,16.9,3.8,34.1-0.5,50.5
			c-4.7,17.4-17.2,31.8-31.4,43c-14.2,11.1-30.3,19.6-45.4,29.5c-20.4,13.4-47.7,46.6-20.2,69.1c6.4,5.1,14,8.3,22,9.5
			c31.4,4.9,63.4-2.2,93.3-12.7c15.9-5.6,30.3-10.8,41.8-23.1c6.4-6.9,15.3-27.6,24.3-30.3c6.3-1.9,9.6,9.9,16.2,9.9
			c11.5-0.1,24-5.1,34.4-10.1c3.9-1.9,8-3.9,10.8-7.2c4.8-5.8,4.8-14.2,4-21.7c-2.7-26-10.7-52.6-3.4-77.7c2.9-10,8.1-20.4,4.5-30.1
			c-2-5.4-6.4-9.7-7.7-15.3c-1.8-8.4,4.1-16.3,8.6-23.6c4.5-7.3,7.8-15.3,9.7-23.7c0.9-3.8,1.5-7.7,1.9-11.7
			C385.4,113.2,384.7,104.6,376.5,100.2z M344.3,206.4c-4.5-0.4-9.1-2.1-13.2-4.1c-8.1-3.8-17.8-1.4-23.1,5.7
			c-6.8,9.3-12.4,19.6-17.7,29.9c-5.4,10.6-10.5,21.3-17.8,30c-2.8,3.2-7.2,4.4-11.2,3L232,260.9c-2.6-0.9-3.9-3.7-3-6.2
			c0.1-0.2,0.1-0.3,0.2-0.5c8.9-19-0.7-39.9,2.1-61c0.2-1.7,1.8-2.8,3.4-2.6c0.3,0,0.7,0.2,0.9,0.3c20.1,10,38.8,5.8,57.8-1.2
			c13.9-5.1,28.5-8.8,42.9-12.5c13.2-3.4,21.4,2.3,22.3,14.6C359.3,200.4,352.9,207.2,344.3,206.4z"/>
		<circle class="st1" cx="293.7" cy="275.7" r="5.9"/>
		<circle class="st1" cx="303.2" cy="256.8" r="5.9"/>
		<circle class="st1" cx="312.7" cy="237.8" r="5.9"/>
		<circle class="st1" cx="322.2" cy="218.9" r="5.9"/>
		<path class="st2" d="M364.5,179.9c-1.8-8.4,4.1-16.3,8.6-23.6c4.5-7.3,7.8-15.3,9.7-23.7c0.9-3.8,1.5-7.7,1.9-11.7
			c0.6-7.7,0-16.3-8.2-20.8c-0.2-0.1-0.6,0.2-1.1,0.6c-4.4,3.9-8.1,8.5-11,13.6c-3.4,5.7-6,11.7-7.9,18.1c0,0-9.5,23.7-2.4,33.2
			L364.5,179.9z"/>
		<path class="st3" d="M344.3,206.4c-4.5-0.4-9.1-2.1-13.2-4.1c-8.1-3.8-17.8-1.4-23.1,5.7c-6.8,9.3-12.4,19.6-17.7,29.9
			c-5.4,10.6-10.5,21.3-17.8,30c-2.8,3.2-7.2,4.4-11.2,3L232,260.9c-2.6-0.9-3.9-3.7-3-6.2c0.1-0.2,0.1-0.3,0.2-0.5
			c8.9-19-0.7-39.9,2.1-61c0.2-1.7,1.8-2.8,3.4-2.6c0.3,0,0.7,0.2,0.9,0.3c20.1,10,38.8,5.8,57.8-1.2c13.9-5.1,28.5-8.8,42.9-12.5
			c13.2-3.4,21.4,2.3,22.3,14.6C359.3,200.4,352.9,207.2,344.3,206.4z"/>
		<path class="st0" d="M380.2,103.2L380.2,103.2c-1.7-1.7-3.7-3.1-5.9-4l-8.2,6.8l-2.5,0.5l0.2,1.4l-9.7,8l-2.4,14.2l0.7-0.8
			l-3,24.5l1.7,1.6c0,0,1.8-14.4,8-26.6c3.4-6.7,9.1-12,16.2-14.1c4.7-1.4,9.4-1.2,9.5,5C384.8,119.7,387.3,109.4,380.2,103.2z"/>
		<path class="st4" d="M190.4,325.9L190.4,325.9c-0.2-15.1-16.8-24.2-29.7-16.4c-5.5,3.3-10.9,6.6-16.2,10.1
			c-20.4,13.5-48,46.9-19.8,69.4c6.4,5.1,14.1,8.1,22.1,9.3c31.3,4.7,63-2.4,92.8-12.8c15.9-5.6,30.3-10.8,41.8-23.1
			c6.4-6.9,15.3-27.6,24.3-30.3L212.6,345c-10.7,1.5-20.5-6-22-16.7C190.5,327.5,190.4,326.7,190.4,325.9z"/>
		<path class="st5" d="M350.6,325.6c-3.2,1.4-6.4,2.5-9.8,3.3c-9.5,2.4-19.1,1.6-27-4.6c-11.6-9.3-25.9,15.2-31.5,21.6
			c-15.6,18-38,29.8-60.9,35.7c-12.9,3.3-25.9,6.2-39.1,7.3c-24.3,2-48.6-3.5-68.1-18.6c-0.9-0.7-1.4-1.1-1.4-1.1
			c0.8,7.4,4.6,14.6,13.1,20.9c6.1,4.4,13.3,7.3,20.8,8.4c31.3,4.8,63.1-2.3,93-12.8c15.9-5.6,30.3-10.8,41.8-23.1
			c6.4-6.9,15.3-27.6,24.3-30.3c6.3-1.9,9.6,9.9,16.2,9.9c11.5-0.1,24-5.1,34.4-10.1c3.9-1.9,8-3.9,10.8-7.2
			c4.8-5.8,4.8-14.2,4-21.7l-4.6,8.9C363.1,318.4,357.2,322.7,350.6,325.6z"/>
		<path class="st6" d="M294.5,203.2c-0.6-8.1,4.5-15.5,12.3-17.9c9.8-3,19.7-5.5,29.6-8.1c13.4-3.4,21.5,2.4,22.3,15
			c0.5,8.4-6,15-14.4,14.2c-4.5-0.4-9.1-2.1-13.2-4.1c-8.1-3.9-17.8-1.4-23.2,5.8c-6.8,9.3-12.4,19.5-17.7,29.8
			c-5.4,10.6-10.5,21.3-17.8,30c-2.8,3.2-7.2,4.4-11.2,3l31.3-58.3C294.1,209.8,294.8,206.5,294.5,203.2L294.5,203.2z"/>
	</g>
</g>
</svg>
