<?xml version="1.0" encoding="utf-8"?>
<!-- Generator: Adobe Illustrator 23.1.1, SVG Export Plug-In . SVG Version: 6.00 Build 0)  -->
<svg version="1.1" id="Layer_1" xmlns="http://www.w3.org/2000/svg" xmlns:xlink="http://www.w3.org/1999/xlink" x="0px" y="0px"
	 viewBox="0 0 574.6 574.6" style="enable-background:new 0 0 574.6 574.6;" xml:space="preserve">
<style type="text/css">
	.st0{fill:#FFE512;}
	.st1{fill:#FFD200;}
	.st2{fill:#EABF0A;}
	.st3{fill:none;stroke:#EABF0A;stroke-width:10.303;stroke-miterlimit:10;}
	.st4{fill:#EFEDAB;}
</style>
<title>icon-pawn</title>
<g>
	<g id="Layer_1-2">
		<path class="st0" d="M415.6,421.4c-0.4-3.1,0-6.3-0.1-9.4c-0.7-19.3-9.6-34.1-25.9-44.1c-10.2-6.3-21.7-10.1-33.5-10.6
			c-12.3-0.5-19.1-7-24.8-16.4c-10.5-17.4-16-36.3-17.6-56.3c-2.4-29.7-4.1-59.5-6.4-89.2c-0.3-3.7,0.5-5.8,3.6-8
			c13.6-10,18.9-27.9,13.3-43.8c-5.6-15.9-21.2-26.9-37.6-26.4c-17.2,0.5-32,11.8-36.9,27.9c-4.9,16.1,1,33.2,15.1,43.3
			c2,1.4,2.6,2.8,2.4,5.2c-1.7,24-3.3,47.9-4.9,71.9c-1,14.9-1.9,29.9-6.1,44.4c-4.6,16-10.8,31.1-22.8,43.1
			c-1.5,1.4-3.4,2.3-5.5,2.7c-8,1.6-16.1,2.6-24,4.5c-20.2,5-35,16.4-42.4,36.5c-3.2,8.7-2.2,17.6-2.6,26.5
			c-0.2,4.8,1.7,8.6,5.1,11.6c2.5,2.2,5.1,4.1,7.9,5.7c9,5.1,18.9,8,29,10.1c30,6.1,60.3,7.3,90.8,7c3.9,0,7.8,0.1,11.7,0
			c25.8-0.9,51.5-2.2,76.7-8.5c9.8-2.5,19.3-5.8,27.5-11.9C412.9,433.1,416.4,428.4,415.6,421.4z"/>
		<path class="st1" d="M279.9,120.8c-17.2,0.5-25.4,8.1-30.2,24.2c-4.9,16.1,1,33.2,15.1,43.3c2,1.4,2.6,2.8,2.4,5.2
			c-1.7,24-3.3,47.9-4.9,71.9c-1,14.9-1.9,29.9-6.1,44.4c-4.6,16-10.8,31.1-22.8,43.1c-1.5,1.4-3.4,2.3-5.5,2.7
			c-8,1.6-16.1,2.6-24,4.5c-20.2,5-35,16.4-42.4,36.5c-3.2,8.7-2.2,17.6-2.6,26.5c-0.2,4.8,1.7,8.6,5.1,11.6
			c2.5,2.2,5.1,4.1,7.9,5.7c9,5.1,18.9,8,29,10.1c17.1,3.4,34.4,5.5,51.8,6.3c0,0-60.6-36.2,0-81.1c56.5-41.8,27.1-255.5,27.1-255.5
			"/>
		<path class="st2" d="M299.2,461.4c-1.3,0-2.5,0-3.7,0s-2.4,0-3.6,0c-25.2,0.3-58.4-0.3-91.6-7c-12.4-2.5-22-5.9-30.2-10.6
			c-3.1-1.8-5.9-3.9-8.6-6.2c-4.6-4-6.8-8.9-6.5-14.7c0.1-2.2,0.1-4.5,0.1-6.7c0.1-6.8,0.1-13.9,2.7-21
			c7.5-20.3,22.7-33.4,45.1-38.9c4.8-1.2,9.8-2,14.5-2.8c3.2-0.5,6.5-1.1,9.7-1.7c1.3-0.2,2.5-0.8,3.5-1.6
			c6.5-6.5,14.9-17.1,21.8-41.4c4-13.7,4.9-28.3,5.9-42.3l0.9-13.8c1.3-19.4,2.6-39.5,4.1-59.3c0.1-1.1,0.1-1.1-0.8-1.8
			c-15.5-11-22-29.8-16.6-47.6c5.4-17.8,21.7-30.1,40.5-30.7c18.2-0.6,35.2,11.4,41.4,29c6.2,17.6,0.1,37.4-14.7,48.3
			c-1.9,1.4-2.2,2.1-2,4.5c1,12.9,1.9,26,2.7,38.6c1.1,16.6,2.3,33.7,3.6,50.5c1.7,20.2,7.4,38.6,17.1,54.6
			c6.1,10,12.1,14.1,21.6,14.5c12.1,0.5,24.3,4.4,35.4,11.2c17.6,10.8,27,26.8,27.8,47.3c0.1,1.4,0,2.8,0,4.1
			c-0.1,1.7-0.1,3.4,0.1,5l0,0c0.9,7.6-2.2,13.9-9.4,19.2c-9.5,7-20.4,10.4-28.9,12.5c-25,6.3-49.9,7.6-77.5,8.6
			C302.2,461.4,300.7,461.4,299.2,461.4z M181.5,379.4c-7.5,7-12.9,15.8-15.8,25.6c-1.9,6.9-2.5,14.4,0.4,21
			c5,11.3,18.2,16.1,30.2,18.7c30.6,6.6,62.2,6.6,93.6,6.3c30.4-0.3,61.1-0.8,90.5-8.2c12.4-3.1,26.3-9.2,29.4-21.6
			c5.3-20.7-14.1-48.3-34.1-52.5c-7.2-1.5-14.8-0.9-21.9-2.9c-31.9-9.1-43.8-52.6-46.2-81.1c-2.5-29.1-4.2-58.2-6.2-87.3
			c-9.3,2.2-19,2.2-28.3,0l-4.5,64.5c-2.6,36.8-7,74.3-39.5,97.9c-3.3,2.4-7,3.4-11,4.2c-7.3,1.5-11.7,2-18.9,3.7
			C192.6,369.3,186.3,374.9,181.5,379.4z M254.1,156.2c-0.2,18.1,14.4,33,32.5,33.2c0.2,0,0.4,0,0.6,0l0,0
			c18.1,0.1,33-14.5,33.1-32.6c0-0.1,0-0.1,0-0.2c0.1-18.5-14.4-33.3-32.9-33.4h-0.3C268.8,123.2,254.1,138,254.1,156.2z"/>
		<path class="st2" d="M265.9,164.5c-0.7,0-1.3-0.2-1.9-0.5l-1.7-1c-1.6-0.9-2.4-2.8-1.9-4.5c2.9-10.4,8-17.9,15.4-22.8
			c7.6-5.1,16-5.9,24.2-2.6c2,0.8,3,3.1,2.1,5.1c-0.6,1.5-2.1,2.5-3.8,2.4c-8.1-0.2-13.7,0.4-18.5,4.2c-4.5,3.6-7.7,8.8-10.2,16.7
			C269.1,163.4,267.6,164.5,265.9,164.5z"/>
		<path class="st3" d="M181.9,375c0,0,11.8,39.1,107,36.1c0,0,78.2,0,102.1-39.1"/>
		<path class="st4" d="M255.1,387.2c11.5-7,30.6-22.7,32.7-50.7c0.3-3.3-2.2-6.3-5.6-6.5c0,0,0,0,0,0l0,0c-3.2-0.2-6,2-6.4,5.2
			c-1.4,10.4-6.7,32.2-26.2,39.6c-2.4,0.9-3.9,3.3-3.8,5.9l0.1,1.7c0.2,3.3,3,5.9,6.3,5.7C253.3,388,254.2,387.7,255.1,387.2z"/>
	</g>
</g>
</svg>
