<?xml version="1.0" encoding="utf-8"?>
<!-- Generator: Adobe Illustrator 23.1.1, SVG Export Plug-In . SVG Version: 6.00 Build 0)  -->
<svg version="1.1" id="Layer_1" xmlns="http://www.w3.org/2000/svg" xmlns:xlink="http://www.w3.org/1999/xlink" x="0px" y="0px"
	 viewBox="0 0 619.6 619.6" style="enable-background:new 0 0 619.6 619.6;" xml:space="preserve">
<style type="text/css">
	.st0{fill:#00A4E4;}
	.st1{fill:#0095D6;}
	.st2{fill:#42357C;}
</style>
<title>icon-pinewood-derby</title>
<g>
	<g id="Layer_1-2">
		<path class="st0" d="M488.9,293.1c-0.8-10.8-4.4-20.6-15-25.3c-4.9-2.2-6.2-5.2-6.9-9.7c-2.3-15.9-7.5-31.3-15.3-45.5
			c-12.8-23.2-31.5-37.7-59-38.5c-11.3-0.3-21.1,6-24.8,16.8c-2.2,6.4-7.1,9.6-11.6,13.3c-3.2-2.1-5.9-4.1-8.8-5.7
			c-12.5-7.1-28.2-4.2-38.4,5.9c-4,3.9-7.7,8.4-10.1,13.3c-3.4,6.8-8.5,10-15,12.9c-39.3,17-78.5,34.4-117.8,51.3
			c-18.3,7.8-27.3,21.8-30.1,40.8c-0.3,2.1-1.2,4.1-2.6,5.7c-10.2,12.3-13.5,26.4-9.8,41.8c4.4,18.6,13.9,33.3,33.9,38
			c11.8,2.8,23.1,0.4,34.4-3.4c3.3-1.1,7.1-1.3,10.6-1.2c1.3,0,3.3,1.8,3.6,3.2c4,14.4,11.9,24.5,22.6,31.2
			c23.9,15,55.6,7.7,72.2-15.2c8.6-11.8,13.5-25.8,15.5-41.3c0.5-3.9,1.9-5.6,5.4-7c17.5-6.8,34.9-13.8,52.3-20.7
			c13.7-5.4,27.3-10.8,41.4-16.4c1,1.6,1.6,2.6,2.2,3.5c7.9,11.7,18.8,18,33,17.2c14.2-0.8,23.9-8.7,29.7-21.3
			C486.6,322.8,490,308.3,488.9,293.1z"/>
		<g id="S4WCVi.tif">
			<path class="st1" d="M415.4,337.1c-14.1,5.6-27.7,11-41.4,16.4c-17.4,6.9-34.8,13.9-52.3,20.7c-3.4,1.3-4.9,3.1-5.4,7
				c-2,15.5-6.9,29.5-15.5,41.3c-16.6,22.9-48.3,30.2-72.2,15.2c-10.7-6.7-18.5-16.7-22.6-31.2c-0.4-1.3-2.4-3.1-3.6-3.2
				c-3.6-0.1-7.3,0.1-10.6,1.2c-11.2,3.8-22.6,6.2-34.4,3.4c-20.1-4.7-29.5-19.4-33.9-38c-3.7-15.4-0.4-29.5,9.8-41.8
				c1.4-1.6,2.2-3.6,2.6-5.6c2.8-19,11.9-33,30.1-40.8c39.4-16.9,78.5-34.4,117.8-51.3c6.5-2.8,11.6-6,15.1-12.8
				c2.4-4.8,6.1-9.3,10.1-13.3c10.3-10,26-13,38.4-5.9c2.9,1.7,5.6,3.6,8.8,5.7c4.6-3.8,9.4-7,11.6-13.3
				c3.7-10.8,13.5-17.2,24.8-16.8c27.5,0.8,46.2,15.2,59,38.5c7.8,14.1,12.9,29.5,15.3,45.5c0.7,4.6,2,7.6,6.9,9.7
				c10.6,4.7,14.2,14.5,15,25.4c1.1,15.2-2.3,29.7-8.6,43.5c-5.8,12.6-15.6,20.4-29.7,21.3c-14.1,0.8-25.1-5.5-33-17.2
				C417,339.7,416.4,338.7,415.4,337.1z M352.3,304.7c4.7-2.7,9.5-4.2,12.6,2.2c2.2,4.4,2.5,9.7,3.8,15.2c1.9-0.6,3.8-1.1,5.8-1.7
				c13.5-4.8,27-9.6,40.6-14.4c2-0.7,4.2-1.6,6.1-1.2c5.4,1.1,6.6-1.9,8-6.2c4.8-14.5,11.3-27.8,27.4-33.4c3-1,4.7-4.1,4-7.2
				c-2.4-9.2-4.5-18.3-7.6-27c-5.6-15.8-14-30-28.1-39.7c-3.2-2.1-6.6-4-10.1-5.5c-2.2-1-4.9-0.1-5.9,2.1c-0.6,1.2-0.6,2.6,0,3.8
				c4.5,9.6,9,19.3,13.3,29c2.3,5.3,4.1,10.7,5.5,16.3c2.6,9.6,2.7,19.3-0.8,28.8c-7.6,20.2-22.2,22.8-36.2,6.5
				c-0.3-0.3-0.5-0.6-0.7-0.9c-4.3-8-11.7-12.4-19.4-16.4c-6.5-3.4-12.8-7-19.4-10.1c-17.4-8.1-33.8-16.4-52.6-8.7
				c-16.2,6.6-32.9,11.8-49.3,18c-19.2,7.2-38.2,14.9-57,23.2c-16.1,7.1-33.1,12.3-37.7,31.3c-0.3,1-0.6,2-1,3
				c-1.5,4.3-2.9,8.7-4.1,13.2c-1.3,5.1-2.9,10.7-4.4,15.6c-3.1,10-3.6,21.8-1.1,31.9c5.3,20.4,33.2,24.4,50.8,24.7
				c3.6,0.1,7.9-0.4,9.9-3.4c1.1-1.6,1.3-3.6,1.5-5.5c2.6-20.3,12.9-40.5,29.3-53.1c12-9.2,24.2-14.8,40.1-14.6
				c15.5,0.2,34.4,24.8,40.4,4.2l0.1-0.2c0.7-2.5,2.9-5.4,5.2-6.4c7.2-3.1,14.8-5.2,22.1-8.1C345.9,309.1,349,306.6,352.3,304.7z
				 M422.6,327c4.7-1.9,7.1-7.5,4.7-12c-2.1-3.8-5.4-3.5-12.7-0.9c-15.3,5.5-30.6,10.9-46,16.3c-6.2,2.2-7.5,1.2-7.9-5.1
				c-0.2-4-0.5-8-1-12c-0.2-1.2-0.9-2.3-2-3c-0.5-0.3-1.9,0.7-2.8,1.2c-2.7,1.6-5.2,3.8-8.1,4.9c-6,2.4-12.2,4.6-18.4,6.4
				c-3.9,1.2-5.4,3.6-5.9,7.4c-0.7,4.8-0.7,10.3-3.3,13.9c-3.5,5-4.7,11.1-2.9,16.9c2.3,7,1.6,7.4,8.3,4.8c18.5-7.3,37-14.6,55.4-22
				L422.6,327z M238.2,401.7c0,3.2,0.1,6.4,0.4,9.6c0.8,8.8,3.3,16.5,11.5,20.8c7.4,3.8,16.6,4,24.3,1c11.1-4.3,19.2-14.2,24.1-25.1
				c6-13.5,10.1-29,7.5-43.8c-1.6-9.3-5.5-20.2-14.2-25.1c-10.9-6.1-23.4,0-31.7,7.6C244.9,360.7,238.3,381.3,238.2,401.7z
				 M369.8,246.3c1.8,1,4,0.3,5-1.5c0.6-1,0.6-2.3,0.1-3.4l0-0.1c-6.9-13.8-15-26.7-28.2-35.4c-12.4-8.2-28.4-4.6-36.8,6.7
				c-3.3,4.5-0.5,10.8,5,11.8C334.2,228.2,351.8,236.7,369.8,246.3z M482.1,305.3c1-7.1,0.5-14.4-2-21.1c-0.5-1.2-1-2.4-1.6-3.6
				c-4.3-8.3-11.7-10-19.7-5.5c-9.1,5.2-14.7,13.2-18.2,22.8c-4.9,13.5-5.2,27,1.4,40c6.4,12.6,19.4,13.5,28,2.4
				c1.3-1.6,2.5-3.4,3.4-5.3C477.9,325.6,480.8,315.6,482.1,305.3L482.1,305.3z"/>
		</g>
		<path class="st2" d="M208.1,411.8c0,0-7.8-23.7,4.7-48.4c0,0,9.7-28.5,39.7-40.9c0,0,0.5-0.2,1.5-0.6
			c27.3-10.7,57.7,6.1,63.4,34.8c2.5,12.7,3.1,28.7-3.1,45.1c0,0-12.6,37.5-47.3,42.7C267.1,444.5,223.2,452.6,208.1,411.8z"/>
		<path class="st1" d="M241.7,397.3c0,3,0.1,6,0.4,9c0.8,8.3,3.1,15.5,10.8,19.4c6.9,3.6,15.5,3.7,22.7,0.9
			c10.4-4,18-13.3,22.5-23.5c5.6-12.6,9.4-27.2,7.1-41c-1.5-8.7-5.1-18.9-13.2-23.5c-10.2-5.7-21.9,0-29.7,7.1
			C247.9,358.9,241.8,378.2,241.7,397.3z"/>
		<path class="st2" d="M413.8,334.8c0,0-5.9-17.9,3.5-36.4c0,0,7.3-21.4,29.9-30.8c0,0,0.4-0.2,1.1-0.5c20.5-8.1,43.5,4.6,47.8,26.2
			c1.9,9.6,2.3,21.6-2.3,34c0,0-9.5,28.2-35.6,32.2C458.3,359.4,425.2,365.5,413.8,334.8z"/>
		<path class="st1" d="M437.8,324.1c0,2.3,0.1,4.5,0.3,6.8c0.6,6.2,2.3,11.6,8.1,14.6c5.4,2.6,11.6,2.9,17.1,0.7
			c7.8-3,13.6-10,17-17.7c4.2-9.5,7.1-20.5,5.3-30.9c-1.1-6.5-3.8-14.3-10-17.7c-7.7-4.3-16.5,0-22.4,5.4
			C442.6,295.1,437.9,309.7,437.8,324.1z"/>
	</g>
</g>
</svg>
