<?xml version="1.0" encoding="utf-8"?>
<!-- Generator: Adobe Illustrator 23.1.1, SVG Export Plug-In . SVG Version: 6.00 Build 0)  -->
<svg version="1.1" id="Layer_1" xmlns="http://www.w3.org/2000/svg" xmlns:xlink="http://www.w3.org/1999/xlink" x="0px" y="0px"
	 viewBox="0 0 562.4 562.4" style="enable-background:new 0 0 562.4 562.4;" xml:space="preserve">
<style type="text/css">
	.st0{fill:#FFE512;}
	.st1{fill:#FFD200;}
	.st2{fill:#EABF0A;}
	.st3{fill:#EFEDAB;}
</style>
<title>icon-rook</title>
<g>
	<g id="Layer_1-2">
		<path class="st0" d="M198.9,435.4c-5.8,9.2-7.4,11.9-8.1,16.2h181c-1.5-6-6.1-10.7-9-16.1c1.3-2.5,2.4-4.8,3.7-7
			c10.3-18.6,11.7-37.3,1.5-56.5c-4.8-9.1-9.5-18.4-13.9-27.1l5.5-8.3c-1.3-10-8.7-10.5-15.8-11.9c-3.6-41.6-8.2-88.7-11.2-129.7
			c3.2-1.7,4.7-17.6,2.2-19.9c14.1-12.7,23.3-40.8,27.2-55c1-3.6-1.1-7.4-4.8-8.4c-0.5-0.1-1.1-0.2-1.6-0.2l-16.6-0.4
			c-8.3-0.2-15.1,6.3-15.3,14.6c0,0.4,0,0.9,0,1.3l0,0c0.4,6.8-4.7,12.7-11.6,13.1c-0.3,0-0.5,0-0.8,0h0c-6.8,0-12.4-5.5-12.4-12.4
			c0-0.3,0-0.6,0-0.9v-0.1c0.6-8.2-5.6-15.4-13.8-16c-0.4,0-0.8,0-1.2,0l-5.6,0.1c-8.3,0.1-14.9,6.8-14.8,15.1c0,0.3,0,0.6,0,0.9
			v0.1c0.5,6.8-4.6,12.7-11.4,13.2c-0.3,0-0.6,0-0.9,0l0,0c-6.8,0-12.4-5.5-12.4-12.4c0-0.3,0-0.6,0-0.9v-0.2
			c0.6-8.2-5.6-15.4-13.8-16c-0.4,0-0.7,0-1.1,0l-17.3,0.1c-3.8,0-6.8,3.1-6.8,6.8c0,0.6,0.1,1.2,0.2,1.8
			c3.9,14.5,13.2,43.6,27,56.7c-6.1,2.9-0.7,16,4.3,19.3c-4,41.4-7.9,88.3-11.9,129.5c-8,1.2-14.2,3.5-14.7,13.1
			c2,2.2,4.2,4.8,6.8,7.6c-5.7,9.6-11.2,18.8-16.5,28c-10.2,17.5-9.2,35.2-0.4,52.9C196.1,429.6,197.5,432.7,198.9,435.4z"/>
		<path class="st1" d="M223.7,110.8l-17.3,0.1c-3.8,0-6.8,3.1-6.8,6.8c0,0.6,0.1,1.2,0.2,1.8c3.9,14.5,13.2,43.6,27,56.7
			c-6.1,2.9-0.7,16,4.3,19.3c-4,41.4-7.9,88.3-11.9,129.5c-8,1.2-14.2,3.5-14.7,13.1c2,2.2,4.2,4.8,6.8,7.6
			c-5.7,9.6-11.2,18.8-16.5,28c-10.2,17.5-9.2,35.2-0.4,52.9c1.5,3.1,3.1,6.2,4.4,8.9c-5.8,9.2-7.4,11.9-8.1,16.2
			c0.4-2.7,105.8,0,114.1,0c-11.6,0-35.9-16.9-45.3-24.2c-13.7-10.7-26.1-28.2-21.8-46.4c2-8.4,7.1-15.6,11.2-23.2
			c15.9-29.3,13-61.2,9.3-93c-3.3-27.6-8.5-55-15.5-82c-3.3-13.1-6.8-26.3-11.3-39C227.8,133.6,221.2,122.1,223.7,110.8z"/>
		<path class="st2" d="M199.9,119.5c3.9,14.5,13.2,43.6,27,56.7c-6.1,2.9-0.7,16,4.3,19.3c-4,41.4-7.9,88.3-11.9,129.5
			c-8,1.2-14.2,3.5-14.7,13.1c2,2.2,4.2,4.8,6.8,7.6c-1.7,2.8-3.3,5.6-5,8.4c-3.9,6.6-7.8,13.1-11.6,19.6
			c-10.2,17.5-9.2,35.2-0.4,52.9c1.5,3.1,3.1,6.2,4.4,8.9c-5.8,9.2-7.4,11.9-8.1,16.2h17.7c-2.8,0-7.7-30.6-8-33
			c-1.5-15.2,0.6-30.6,6.1-44.8c4.5-11.5,11-22.1,16.2-33.4c12.8-28,16.1-59,17.2-89.4c1-29.8,1.3-57.4-13.7-84.3L199.9,119.5z"/>
		<path class="st1" d="M367,370.9c-1.2-3.2-14.3-23.9-13-26l5.5-8.3c-1.3-10-8.7-10.5-15.8-11.9c-3.6-41.6-8.2-88.7-11.2-129.7
			c1.6-0.8,2.8-5.2,3.2-9.7c0.3-3.3-17.6,0.4-19.2,1.6c-9,6.8-7.1,21.7-5,31.4c3.8,18,11.8,34.8,17,52.4c7.1,23.9,5.7,43.3-5.8,65
			c-3.6,6.9-6.4,15.2-3.2,22.4c2.7,5.9,8.9,9.5,15.2,11.3C335.9,369.8,368.5,374.8,367,370.9z"/>
		<path class="st2" d="M199.2,324.2h164.1c1.4,0,2.5,1.1,2.5,2.5v16c0,1.4-1.1,2.5-2.5,2.5H199.2c-1.4,0-2.5-1.1-2.5-2.5v-16
			C196.7,325.4,197.8,324.2,199.2,324.2z"/>
		<path class="st2" d="M218.6,174.6h125.2c1.4,0,2.5,1.1,2.5,2.5v16c0,1.4-1.1,2.5-2.5,2.5H218.6c-1.4,0-2.5-1.1-2.5-2.5v-16
			C216.1,175.7,217.2,174.6,218.6,174.6z"/>
		<path class="st3" d="M243,354.7c-6.9,11.6-16.4,34.4-5.2,60.1c1.3,3.1,4.9,4.5,8,3.2c0,0,0,0,0,0l0,0c2.9-1.3,4.3-4.6,3.2-7.6
			c-3.6-9.8-9.1-31.6,4.6-47.2c1.7-2,1.9-4.8,0.6-7l-0.9-1.5c-1.7-2.9-5.4-3.8-8.2-2.1C244.2,353.1,243.5,353.8,243,354.7z"/>
		<path class="st1" d="M296,205.8c-2.8,7.7-5.3,17.7-4.1,27.3c0.4,3,2.9,5.2,5.9,5.2l0,0c3.3,0,5.9-2.7,5.9-6c0-0.8-0.2-1.7-0.5-2.4
			c-2.3-5.3-4.4-13-3.6-23.3c0.1-1-0.7-1.9-1.7-2C297.1,204.5,296.3,205,296,205.8z"/>
		<path class="st1" d="M266.3,205.8c2.8,7.7,5.3,17.7,4.1,27.3c-0.4,3-2.9,5.2-5.9,5.2l0,0c-3.3,0-5.9-2.7-5.9-6
			c0-0.8,0.2-1.7,0.5-2.4c2.3-5.3,4.4-13,3.6-23.3c-0.1-1,0.7-1.9,1.7-2C265.2,204.5,266,205,266.3,205.8z"/>
		<circle class="st2" cx="235.6" cy="162.1" r="6.8"/>
		<circle class="st1" cx="326.9" cy="162.1" r="6.8"/>
		<circle class="st1" cx="281.2" cy="162.1" r="6.8"/>
	</g>
</g>
</svg>
