<?xml version="1.0" encoding="utf-8"?>
<!-- Generator: Adobe Illustrator 23.1.1, SVG Export Plug-In . SVG Version: 6.00 Build 0)  -->
<svg version="1.1" id="Layer_1" xmlns="http://www.w3.org/2000/svg" xmlns:xlink="http://www.w3.org/1999/xlink" x="0px" y="0px"
	 viewBox="0 0 631.9 631.9" style="enable-background:new 0 0 631.9 631.9;" xml:space="preserve">
<style type="text/css">
	.st0{fill:#00A4E4;}
	.st1{fill:#0095D6;}
	.st2{fill:#0081C6;}
	.st3{fill:#8BD2F4;}
</style>
<title>icon-knight</title>
<g>
	<g id="Layer_1-2">
		<path class="st0" d="M325.8,233.2c2.6,10.9,13.2,17.9,24.2,16.1c4.6-0.8,9.2-1.8,13.9-2.6c10-1.7,19.2,0,27.3,6.3l0.1,0.1
			c4.8,3.7,11.8,2.9,15.5-1.9c2.4-3,4.6-6.3,6.4-9.7c5.1-9.6,2.5-21.5-6.2-28l-0.2-0.1c-13-9.8-23.4-21.9-30.7-36.4
			c-4.4-8.7-8.9-17-16.8-22.8c0.6-2.3,1.1-4.2,1.4-5.8c2.9-7.9,3.3-16.2,3.4-21.6c0-1.3-1.1-2.4-2.4-2.5c-0.7,0-1.3,0.3-1.8,0.8
			L344.3,141l-1.9,1.5c-0.6,0.1-1.1,0.1-1.7,0.1c-1-0.2-2-0.4-3-0.5c-31.9-4.4-59.9,3.2-80.5,29c-7.5,9.4-13.1,20.9-17.4,32.3
			c-10.8,28.1-13.1,57.7-12,87.6c1.2,32.6,5.1,64.6,20.7,94.3h-8c-5.2,0-9.9,3.8-10.4,9c-0.5,5.5,3.5,10.4,9,10.9c0.3,0,0.7,0,1,0
			h5.3c-4.3,7.7-8.4,14.5-12,21.6c-8.7,17-7.4,34.1,0.6,51c1.1,2.3,2.2,4.5,3.4,6.8l-0.5,0.7h-4.4c-5.1,0-9.6,3.6-10.3,8.7
			c-0.7,5.5,3.1,10.5,8.6,11.2c0.1,0,0.2,0,0.2,0l0,0h0.1c0.3,0.1,0.6,0.1,1,0.1h151.8c5.2,0,9.9-3.8,10.4-9
			c0.5-5.5-3.5-10.4-9-10.9c-0.3,0-0.7,0-1,0h-4.5l-0.9-1.5c18.2-27.5,8.3-53.2-6.3-78l0.5-0.7h0.8c5.2,0,9.9-3.8,10.4-9
			c0.5-5.5-3.5-10.4-9-10.9c-0.3,0-0.7,0-1,0h-4.4l-0.1-0.1c0.6-5.3,1.3-10.6,1.9-16c2.6-21.5-4-43.1-18-59.5l-0.2-0.2
			c-15.8-18.5-27.4-39.3-32-63.5c-0.8-4.1-1.4-8.1-1-12.2C320.6,230.5,325.1,230.1,325.8,233.2L325.8,233.2z"/>
		<path class="st1" d="M240.1,203.1c-5,41.1,2.8,82.9,15.5,122c6.7,20.3,14.6,40.1,23.7,59.4c8.3,17.8,19.8,34.5,19.8,55
			c0,7.3-1.8,14.9,0.6,21.8c2.1,6,7.1,10.5,12.2,14.4c15.8,12.1,33.9,20.7,51.9,29.2c-43.5,3.4-88.1,0.5-131.8,0.5
			c-0.3,0-0.6,0-1-0.1c0,0-0.1,0-0.1,0c-5.5-0.6-9.4-5.5-8.9-11c0-0.1,0-0.2,0-0.2c0.7-5,5.2-8.7,10.3-8.7h4.4l0.5-0.7
			c-1.1-2.3-2.3-4.5-3.4-6.8c-8-16.9-9.3-33.9-0.6-51c3.6-7.1,7.7-13.9,12-21.6h-5.3c-5.5,0-10-4.5-10-10c0-0.3,0-0.7,0-1
			c0.5-5.2,5.2-9,10.4-9h8c-15.6-29.7-19.5-61.7-20.7-94.3c-1.1-29.9,1.3-59.4,12-87.6"/>
		<path class="st1" d="M353.6,309.6l-0.2-0.2c-15.8-18.5-27.4-39.3-32-63.5c-0.8-4.1-1.4-8.1-1-12.2c0.3-3.1,4.7-3.5,5.5-0.4v0.1
			c2.6,10.9,13.2,17.9,24.2,16.1c4.6-0.8,9.2-1.8,13.9-2.6c10-1.7,19.2,0,27.3,6.3l0.1,0.1c4.8,3.7,11.8,2.9,15.5-1.9
			c2.4-3,4.6-6.3,6.4-9.7c5.1-9.6,2.5-21.5-6.2-28l-0.2-0.1c-13-9.8-23.4-21.9-30.7-36.4c-4.4-8.7-8.9-17-16.8-22.8
			c0.6-2.3,1.1-4.2,1.4-5.8c2.9-7.9,3.3-16.2,3.4-21.6c0-1.3-1.1-2.4-2.4-2.5c-0.7,0-1.3,0.3-1.8,0.8L344.3,141l-1.9,1.5
			c-0.6,0.1-1.1,0.1-1.7,0.1c-1-0.2-2-0.4-3-0.5c-31.9-4.4-59.9,3.2-80.5,29c0,0,44.9-8.1,42.9,32c-2,40,14,80.1,36,96.1
			S353.6,309.6,353.6,309.6z"/>
		<path class="st2" d="M265.7,505.4H232c-0.3,0-0.6,0-1-0.1c0,0-0.1,0-0.1,0c-5.5-0.6-9.4-5.5-8.9-11c0-0.1,0-0.2,0-0.2
			c0.7-5,5.2-8.7,10.3-8.7h4.4l0.5-0.7c-1.1-2.3-2.3-4.5-3.4-6.8c-8-16.9-9.3-33.9-0.6-51c3.6-7.1,7.7-13.9,12-21.6h-5.3
			c-5.5,0-10-4.5-10-10c0-0.3,0-0.7,0-1c0.5-5.2,5.2-9,10.4-9h8c-15.6-29.7-19.5-61.7-20.7-94.3c-1.1-29.9,1.3-59.4,12-87.6
			c4.3-11.4,9.9-22.9,17.5-32.3c11.6-14.5,25.6-23.3,41.4-27.4c-31,26.1-48.2,49.8-55.5,89.7c-7.3,40.1-5.5,86.3,9.6,124.2
			c8.4,21,26,51.2,3.4,69.7C234.1,445.3,253.3,485.5,265.7,505.4z"/>
		<path class="st2" d="M218.5,485.8h181.2c1.4,0,2.5,1.1,2.5,2.5v16.6c0,1.4-1.1,2.5-2.5,2.5H218.5c-1.4,0-2.5-1.1-2.5-2.5v-16.6
			C216,486.9,217.2,485.8,218.5,485.8z"/>
		<path class="st2" d="M224.5,383.7h169.1c1.4,0,2.5,1.1,2.5,2.5v16.6c0,1.4-1.1,2.5-2.5,2.5H224.5c-1.4,0-2.5-1.1-2.5-2.5v-16.6
			C222,384.8,223.2,383.7,224.5,383.7z"/>
		<path class="st3" d="M307.5,174.3c-11.3,8.1-29.7,25.7-29.7,54.5c0,3.4,2.8,6.3,6.2,6.3c0,0,0,0,0,0l0,0c3.3,0,6-2.5,6.2-5.8
			c0.7-10.8,4.5-33.5,23.9-42.6c2.4-1.1,3.8-3.7,3.5-6.3l-0.2-1.7c-0.4-3.4-3.5-5.8-6.9-5.4C309.4,173.3,308.4,173.7,307.5,174.3z"
			/>
		<circle class="st2" cx="346.2" cy="195.1" r="8"/>
		<circle class="st1" cx="340.4" cy="196.2" r="4.6"/>
		<circle class="st2" cx="229" cy="262.1" r="7"/>
		<circle class="st1" cx="305.1" cy="262.1" r="7"/>
		<circle class="st1" cx="267.1" cy="262.1" r="7"/>
		<path class="st3" d="M359.3,351.1c0-7.9-2.2-22.1-15.5-31.6c-1.6-1.1-3.8-0.8-4.9,0.8c0,0,0,0,0,0l0,0c-1.1,1.5-0.8,3.6,0.7,4.8
			c4.7,3.8,14,13,11.9,25c-0.3,1.5,0.5,3,1.8,3.7l0.9,0.5c1.7,0.9,3.8,0.3,4.7-1.5C359.2,352.3,359.3,351.7,359.3,351.1z"/>
	</g>
</g>
</svg>
