<?xml version="1.0" encoding="utf-8"?>
<!-- Generator: Adobe Illustrator 23.1.1, SVG Export Plug-In . SVG Version: 6.00 Build 0)  -->
<svg version="1.1" id="Layer_1" xmlns="http://www.w3.org/2000/svg" xmlns:xlink="http://www.w3.org/1999/xlink" x="0px" y="0px"
	 viewBox="0 0 471 471" style="enable-background:new 0 0 471 471;" xml:space="preserve">
<style type="text/css">
	.st0{fill:#EABF0A;}
	.st1{fill:#FFE512;}
	.st2{fill:#42357C;}
	.st3{fill:#FFD200;}
	.st4{fill:#EDED8A;}
</style>
<title>icon-pupper</title>
<g>
	<g id="Layer_1-2">
		<path class="st0" d="M286.6,258.7c0,0,3.8,12.5,6.9,24.3c2.5,9.2,12.3,16,21.8,15.1l0,0c5.5-0.6,9.9-5,10.3-10.6l3.8-49.1
			L286.6,258.7z"/>
		<path class="st1" d="M135.1,158.6c0.8,3.7-0.6,7.5-3.6,9.7c-1,0.7-1.9,1.5-2.8,2.3c-1.7,1.7-15.5,17.9-22.7,26.4
			c-2.9,3.4-4.8,7.4-5.7,11.8l-0.1,0.7c-0.5,2.4-0.6,4.9-0.4,7.4c1,10.8,5.8,20.8,13.5,28.5l5.2,5.2c5.3,5.3,12.6,8.2,20.2,8
			c7-0.3,13.5-3.6,17.9-9.1l9-11.1c0.5-0.6,1.4-0.6,2-0.1c0.4,0.3,0.5,0.8,0.4,1.3l-1.7,7.2c-1.2,5.5-2.1,11-2.6,16.5
			c-0.7,5.8-3.1,11.3-6.9,15.7c-5,5.8-5.6,12.9-6.5,20.1c-1.3,10.9-3.5,22.6-8.8,32.4c-4,7.3-3.3,16.4,2.6,22.2
			c6.2,6.3,16.1,7.2,23.4,2.1l7.7-5.4c4.3-3,6.4-8.1,5.6-13.2c-1.5-8.5,0.1-17.3,4.5-24.7l2.2-3.8c2.2-3.9,8-2.6,8.6,1.9
			c0.3,2.9-0.2,5.9-1.5,8.6l-4.6,9.1c-1.6,3-2.1,6.4-1.4,9.7c0.9,4,0.1,8.2-2.2,11.7l-3.8,5.7c-1.1,1.7-1.8,3.7-1.8,5.8v4.8
			c0,5.3,4,9.8,9.3,10.4l16.2,1.8c1.1,0.1,2.1,0.1,3.2-0.1l1.5-0.3c2.2-0.4,4.2-1.2,6.1-2.3c5.5-3.3,8.8-9.3,8.9-15.7v-13.6
			c0-11,3-21.7,8.6-31.1l2.7-4.5c0,0,6.9-12,10.1-24.1c0.9-3.1,3.7-5.3,7-5.2c11.6,0,22.9-3.5,32.5-10c9.7-6.5,21.6-15.4,29.2-24
			c2.1-2.3,5.6-2.6,8-0.5c0.4,0.4,0.8,0.8,1.1,1.3l8.7,14.6c0.2,0.3,0.5,0.6,0.7,1c2.7,4.1,3.9,8.9,3.4,13.8l-1.5,14.4
			c0,5.4,4.3,9.7,9.7,9.7h11c3.9,0,7.4-2.3,8.9-5.9l4.2-9.9c0,0,5.9-15.7-8-36.2c-2.2-3.2-3.3-7-3.2-10.9l0.4-20
			c-0.3-4.7,0.1-9.4,1.2-14c3-12.6-0.3-25.8-9.4-35l-5.1-5.1c-4.9-6.2-7.5-13.8-7.5-21.7c0-8-2.4-15.8-7.5-21.9l-0.4-0.5
			c-1.4-1.7-3.5-2.7-5.7-2.7l0,0c-2.1,0-4,0.8-5.5,2.3l0,0c-1.4,1.4-2.2,3.3-2.3,5.3c-0.1,7.6-0.9,26.7-4.5,28.5
			c-4.4,2.2-13.2,17.2-53,15.9c-2.6,0-5.3,0.4-7.8,1.2c-10.9,3.2-22.6-1.1-28.9-10.5l-16.4-24.6L192,113.2
			c-5.4-8.4-13.9-14.5-23.6-16.9l-2.4-0.6c-1.1-0.3-2.1,0.4-2.4,1.5c0,0.1-0.1,0.3-0.1,0.5v11.9c0,0.6-0.5,1.1-1.1,1.1
			c-0.4,0-0.8-0.3-1-0.7L156,94.9c-1.2-1.7-3.3-2.5-5.3-1.9c-1.8,0.6-3.1,2.3-3.2,4.3l-1.6,17.6c-0.3,3.3-1.8,6.5-4.2,8.9
			l-14.2,14.2l-6.1,6.1c-0.8,0.8-1.2,1.8-1.3,2.8c-0.2,2.6,2.1,4.7,4.7,4.7h1.1C130.3,151.4,134.1,154.4,135.1,158.6z"/>
		<path class="st0" d="M157.6,359.2l18.9-73.4c1.2-4.7,5-8.3,9.7-9.2l0.3-0.1c9-1.7,16.7,6.7,14.4,15.6l-4.6,18.5
			c0,0-3.4-7.9-10.2-1.1c0,0-7.1,9.5-5.8,25.1c0,0,4.8,13.1-7.1,16.6C173.3,351.1,165.2,359.4,157.6,359.2z"/>
		<path class="st0" d="M222.9,160.3c6.3,9.5,18,13.7,28.9,10.5c2.5-0.8,5.2-1.2,7.8-1.2c39.8,1.2,48.6-13.8,53-15.9
			c3.6-1.8,4.3-20.9,4.5-28.5c0-2,0.9-3.9,2.3-5.3l0,0c1.5-1.5,3.4-2.3,5.5-2.3l0,0c2.2,0,4.4,1,5.8,2.7l0.4,0.5
			c5,6.2,7.5,13.9,7.5,21.9c0,7.9,2.7,15.5,7.5,21.7l5.1,5.1c9.1,9.2,12.4,22.4,9.4,35c-1.1,4.6-1.5,9.3-1.2,14l-0.4,20
			c-0.1,3.9,1,7.7,3.2,10.9c13.9,20.4,8,36.2,8,36.2l-4.2,9.9c-1.5,3.6-5,5.9-8.9,5.9h-11c-3.2,0-6.3-1.6-8.1-4.3l6.4-6.1
			c3.5-3.4,5.3-8.1,4.8-13l-1.5-16.6c0-0.4-0.1-0.8-0.2-1.2l-6.2-37.5c-0.3-1.7-0.3-3.4,0-5.1l1.8-11.7c1.3-8.5-4.3-16.5-12.7-18.1
			l-4.3-0.9c-2.1-0.4-4.4-0.4-6.5,0l-22,4.7c-4.1,0.9-8.3,0.1-11.8-2.1l-6.2-3.9c-4.1-2.5-9-3.1-13.6-1.6l-18.5,6.2
			c-5.2,1.7-10.8,0.7-15.1-2.7l0,0c-2.9-2.3-4.9-5.6-5.7-9.2L222.9,160.3z"/>
		<path class="st2" d="M130.9,216.9c0,5.6-4.6,12.4-10.2,12.4c-5.6,0-10.2-6.8-10.2-12.4c0-5.6,4.5-10.2,10.2-10.2
			S130.9,211.3,130.9,216.9z"/>
		<path class="st3" d="M164.7,233.8l3.8-9c1.9-4.2,5.7-7.3,10.3-8.2l0,0c2.8-0.6,5.4-2,7.5-4.1c1.9-2,3.6-4.1,5.2-6.3
			c2.2-3.1,6.5-3.9,9.7-1.6c0.9,0.7,1.7,1.5,2.2,2.6l0,0c1.2,2.5,0.9,5.5-0.9,7.6l-35.2,41c-1.1,1.3-2.9,0-2.5-1.6l2.8-14.4
			c0.2-0.9-0.4-1.8-1.3-2c-0.2-0.1-0.5-0.1-0.7,0l0,0C164.3,238,164.2,235.1,164.7,233.8z"/>
		<path class="st2" d="M178.6,161.7c-2.4-4.4-6.7-5.5-10.8-2.5c-4.3,3.1-5.7,7.5-6.1,12.9c0,0.3,0,0.6,0,0.9
			c0.1,1.3,0.4,2.6,0.8,3.8c2,5.7,7.4,7.2,12.1,3.4C178.6,177,182,168.1,178.6,161.7z"/>
		<path class="st2" d="M130.5,154.4c-3.1,4.2-4.5,9.5-3.9,14.7v0.1c0.2,2.1,2,3.5,4.1,3.3c0.9-0.1,1.8-0.5,2.4-1.2
			c3.6-4,5.3-10.6,4.2-15.5c-0.5-2-2.5-3.3-4.5-2.8C131.8,153.2,131,153.7,130.5,154.4L130.5,154.4z"/>
		<circle class="st4" cx="177.4" cy="171.7" r="5.4"/>
	</g>
</g>
</svg>
