<svg xmlns="http://www.w3.org/2000/svg" viewBox="0 0 356.14 346.55"><defs><style>.cls-1,.cls-2{fill:#eded8a;}.cls-1{opacity:0.45;}.cls-3{fill:#362e6d;}.cls-4{fill:#6c5d9b;}.cls-5{fill:#5a4099;}.cls-6{fill:#0095d6;}.cls-7{fill:#8bd2f4;}.cls-8{fill:#0081c6;}</style></defs><title>Asset 2</title><g id="Layer_2" data-name="Layer 2"><g id="Layer_1-2" data-name="Layer 1"><circle class="cls-1" cx="178.07" cy="173.27" r="173.27"/><circle class="cls-2" cx="178.07" cy="173.27" r="155.89"/><ellipse class="cls-3" cx="177.3" cy="231.19" rx="117.77" ry="34.66"/><ellipse class="cls-4" cx="178.07" cy="192.23" rx="178.07" ry="45.91"/><path class="cls-5" d="M178.07,146.32c98.35,0,178.07,20.56,178.07,45.91s-79.72,45.92-178.07,45.92h0A47.87,47.87,0,0,0,194,170.36Z"/><path class="cls-6" d="M250.43,171.24V153.87A73.13,73.13,0,0,0,177.3,80.74h0a73.13,73.13,0,0,0-73.13,73.13v17.37Z"/><path class="cls-7" d="M163.4,82.05s72.84,55.32,10.51,89.64l44.59,2.18s36.59-53.64-30.9-92.41C187.6,81.46,175.21,79.42,163.4,82.05Z"/><path class="cls-8" d="M179.44,171.25h71V153.87a73.13,73.13,0,0,0-71.37-73.11s32.24,17.69,34.21,49.17S179.44,171.25,179.44,171.25Z"/><path class="cls-3" d="M104.13,155.34h0c.13,6,.16,11.93.16,17.9,0,6.15,32.74,13.76,73.13,13.76s73.13-7.61,73.13-13.76V154.85c0,3.69-20.12,6.08-22.71,6.5-9.46,1.51-19,2.57-28.56,3.17a301.44,301.44,0,0,1-57.37-1.85A298.67,298.67,0,0,1,104.13,155.34Z"/><path class="cls-2" d="M119.29,213.12c-1.36,4,0,8.15,3,9.17s6.59-1.43,8-5.47,3.08-17.3,0-18.32S120.65,209.08,119.29,213.12Z"/><path class="cls-2" d="M67.33,200.73c-3.38,2.6-4.55,6.76-2.6,9.3s6.27,2.49,9.65-.11,12.21-12.63,10.26-15.16S70.72,198.14,67.33,200.73Z"/><path class="cls-2" d="M31.39,174.08c-4.11,1.11-6.77,4.52-5.94,7.61s4.85,4.69,9,3.57,16.09-7,15.26-10.12S35.51,173,31.39,174.08Z"/><path class="cls-2" d="M184,216.61c.27,4.26-2.09,7.88-5.28,8.09s-6-3.08-6.28-7.34,1.46-17.5,4.65-17.71S183.76,212.36,184,216.61Z"/><path class="cls-2" d="M237.22,213.12c1.36,4,0,8.15-3,9.17s-6.59-1.43-7.95-5.47-3.08-17.3-.05-18.32S235.86,209.08,237.22,213.12Z"/><path class="cls-2" d="M289.23,201c3.29,2.72,4.3,6.92,2.26,9.38s-6.36,2.26-9.65-.46-11.73-13.08-9.69-15.54S286,198.29,289.23,201Z"/><path class="cls-2" d="M325.11,174.08c4.12,1.11,6.78,4.52,5.94,7.61s-4.84,4.69-9,3.57-16.1-7-15.26-10.12S321,173,325.11,174.08Z"/></g></g></svg>