<svg xmlns="http://www.w3.org/2000/svg" viewBox="0 0 351 346.55"><defs><style>.cls-1,.cls-2{fill:#eded8a;}.cls-1{opacity:0.45;}.cls-3{fill:none;}.cls-4{fill:#203b98;}.cls-5{fill:#ef6572;}.cls-6{fill:#008646;}.cls-7{fill:#d2a97e;}.cls-8{fill:red;}.cls-9{fill:#00b3e9;}.cls-10{fill:#ffc000;}</style></defs><title>Asset 3</title><g id="Layer_2" data-name="Layer 2"><g id="Layer_1-2" data-name="Layer 1"><circle class="cls-1" cx="175.93" cy="173.27" r="173.27"/><circle class="cls-2" cx="175.93" cy="173.27" r="155.89"/><polygon class="cls-3" points="201.97 153.95 251.89 159.21 251.34 166.3 252.16 158.93 201.93 153.77 201.97 153.95"/><polygon class="cls-3" points="44.34 197.96 43.31 198.09 43.28 198.15 44.61 198 44.38 197.27 44.34 197.96"/><path class="cls-4" d="M344.36,190.1,333,165.76,318.85,159l-6.92-29.84-23.47-27.84-93.14,28.15-10-36.88L75.11,128.09,27.69,143.92,34.3,165l-2.24-6.37-7.64-1.09L0,236.17l17.19,22.66.07-.15.75,9.15H66.45l52.87,9.28L134,276l34.94,5.46,53-3.27L272.94,282l53.32-7.65L347,190.87ZM43.28,198.15l0-.06,1-.13,0-.69.23.73ZM251.34,166.3l.55-7.09L202,154l-.05-.18,50.24,5.16Z"/><polygon class="cls-5" points="24.42 142.57 32.06 143.66 37.52 159.22 24.42 142.57"/><polygon class="cls-6" points="17.2 243.83 0 221.17 24.42 142.57 37.52 159.22 44.07 181.32 17.2 243.83"/><polygon class="cls-7" points="12.55 186.78 44.62 178.05 44.34 182.96 12.55 186.78"/><polygon class="cls-5" points="288.46 86.34 311.94 114.18 322.31 158.94 314.12 155.67 301.56 143.66 288.46 86.34"/><polygon class="cls-6" points="265.54 154.03 301.56 143.66 316.3 156.21 265.54 154.03"/><polygon class="cls-8" points="195.12 114.55 288.46 86.34 301.56 143.66 265.54 154.03 251.34 151.3 252.16 143.93 201.67 138.75 195.12 114.55"/><polyline class="cls-4" points="349.46 176.84 332.99 150.76 317.16 172.59 345.23 187.37 349.46 176.84"/><polygon class="cls-9" points="75.11 113.09 185.29 77.61 202.21 139.84 168.92 135.47 135.62 138.75 133.98 261.02 119.32 262.11 75.11 113.09"/><polygon class="cls-8" points="135.62 138.75 168.92 135.47 168.92 266.48 133.98 261.02 135.62 138.75"/><polygon class="cls-5" points="168.92 135.47 251.89 144.21 251.34 151.3 212.04 149.66 221.87 263.2 168.92 266.48 168.92 135.47"/><polygon class="cls-7" points="212.04 149.66 251.34 151.3 265.54 154.03 315.76 155.67 324.49 159.49 278.94 161.67 317.16 172.59 334.08 170.95 351 175.87 290.95 186.24 212.04 149.66"/><polygon class="cls-10" points="212.04 149.66 221.87 263.2 272.94 267.03 290.95 186.24 212.04 149.66"/><polygon class="cls-6" points="290.95 186.24 351 175.87 330.26 259.38 272.94 267.03 290.95 186.24"/><polygon class="cls-9" points="278.94 161.67 298.6 134.38 332.99 150.76 317.16 172.59 278.94 161.67"/><polygon class="cls-10" points="66.45 252.83 18.01 252.83 12.55 186.78 44.89 182.96 66.45 252.83"/><polygon class="cls-4" points="66.45 252.83 27.69 128.92 75.11 113.09 119.32 262.11 66.45 252.83"/></g></g></svg>