<?xml version="1.0" encoding="UTF-8"?>
<svg width="22px" height="15px" viewBox="0 0 22 15" version="1.1" xmlns="http://www.w3.org/2000/svg" xmlns:xlink="http://www.w3.org/1999/xlink">
    <!-- Generator: Sketch 60.1 (88133) - https://sketch.com -->
    <title>ic_play_games_24px</title>
    <desc>Created with Sketch.</desc>
    <defs>
        <path d="M20.1758333,4 C19.7533333,1.7 17.5758333,0 14.965,0 L7.035,0 C4.42416667,0 2.2575,1.7 1.82416667,4 C1.82416667,4 0.166666667,12.8 0.166666667,12.93 C0.166666667,14.07 1.17416667,15 2.40916667,15 C3.02666667,15 3.59,14.8 4.00166667,14.42 L7.75,11 L14.25,11 L17.9983333,14.42 C18.41,14.8 18.9625,15 19.5908333,15 C20.8366667,15 21.8333333,14.07 21.8333333,12.93 C21.8333333,12.8 20.1758333,4 20.1758333,4 Z M9.91666667,6 L7.75,6 L7.75,8 L6.66666667,8 L6.66666667,6 L4.5,6 L4.5,5 L6.66666667,5 L6.66666667,3 L7.75,3 L7.75,5 L9.91666667,5 L9.91666667,6 Z M12.95,6.3 C12.4733333,6.3 12.0833333,5.94 12.0833333,5.5 C12.0833333,5.06 12.4733333,4.7 12.95,4.7 C13.4266667,4.7 13.8166667,5.06 13.8166667,5.5 C13.8166667,5.94 13.4266667,6.3 12.95,6.3 Z M14.7808333,8 C14.3041667,8 13.9141667,7.64 13.9141667,7.2 C13.9141667,6.76 14.3041667,6.4 14.7808333,6.4 C15.2575,6.4 15.6475,6.76 15.6475,7.2 C15.6475,7.64 15.2575,8 14.7808333,8 L14.7808333,8 Z M14.7808333,4.6 C14.3041667,4.6 13.9141667,4.24 13.9141667,3.8 C13.9141667,3.36 14.3041667,3 14.7808333,3 C15.2575,3 15.6475,3.36 15.6475,3.8 C15.6475,4.24 15.2575,4.6 14.7808333,4.6 L14.7808333,4.6 Z M16.6333333,6.3 C16.1566667,6.3 15.7666667,5.94 15.7666667,5.5 C15.7666667,5.06 16.1566667,4.7 16.6333333,4.7 C17.11,4.7 17.5,5.06 17.5,5.5 C17.5,5.94 17.11,6.3 16.6333333,6.3 Z" id="path-1"></path>
    </defs>
    <g id="Page-1" stroke="none" stroke-width="1" fill="none" fill-rule="evenodd">
        <g id="Video-animation-Copy-2" transform="translate(-469.000000, -515.000000)">
            <g id="Group-6" transform="translate(168.000000, 82.000000)">
                <g id="Group-9" transform="translate(274.000000, 415.000000)">
                    <g id="ic_play_games_24px" transform="translate(27.000000, 18.000000)">
                        <mask id="mask-2" fill="white">
                            <use xlink:href="#path-1"></use>
                        </mask>
                        <g id="Shape" fill-rule="nonzero"></g>
                        <g id="🎨-Color" mask="url(#mask-2)" fill="#FFFFFF">
                            <g transform="translate(-2.000000, -4.000000)" id="Shape">
                                <rect x="0" y="0" width="26" height="24"></rect>
                            </g>
                        </g>
                    </g>
                </g>
            </g>
        </g>
    </g>
</svg>