<?xml version="1.0" encoding="UTF-8"?>
<svg width="127px" height="85px" viewBox="0 0 127 85" version="1.1" xmlns="http://www.w3.org/2000/svg" xmlns:xlink="http://www.w3.org/1999/xlink">
    <!-- Generator: Sketch 60.1 (88133) - https://sketch.com -->
    <title>icon-controller</title>
    <desc>Created with Sketch.</desc>
    <g id="Page-1" stroke="none" stroke-width="1" fill="none" fill-rule="evenodd">
        <g id="Artboard-Copy-3" transform="translate(-365.000000, -226.000000)" fill-rule="nonzero">
            <g id="icon-controller" transform="translate(365.000000, 226.000000)">
                <path d="M93.3072288,67.9218105 C85.3645313,75.7226342 73.8115168,71.3385713 72.1162375,61.5407366 L68.4588294,61.5407366 C64.660148,61.5407366 60.8693151,61.5407366 57.0784822,61.5407366 C56.5840257,61.5407366 55.7363861,62.0477902 55.6579009,62.4300305 C53.9704701,71.1903556 42.4802438,75.6836301 34.7416077,67.8828063 C33.7448462,68.9125151 32.7951759,70.0046304 31.7356263,71.0031358 C28.1410063,74.3262867 24.6248715,77.7508484 20.8497356,80.8711779 C13.4642827,86.971422 4.47773273,83.741881 2.65687718,73.9986521 C-1.26738046,52.7024033 1.57378207,32.4826682 13.3857976,13.9323094 C17.2865097,7.91787426 22.4351357,3.3309899 29.7107094,1.64601197 C35.8560969,0.21846123 41.7503318,1.25597079 47.3934143,3.78343768 C49.6930293,4.81314641 51.8199769,6.2562988 54.0411068,7.46542648 C54.5500764,7.81718914 55.0945693,8.11523265 55.6657494,8.35472039 C62.117229,10.2191173 68.4745264,10.8665856 74.5806713,7.03638118 C81.4795162,2.62891577 88.8806661,0.015639813 97.2314864,1.45099138 C103.635875,2.5431067 108.572591,6.13148562 112.473303,11.0772079 C119.09745,19.5176992 122.966768,29.3155338 125.148655,39.7998409 C127.488985,50.7168554 127.61173,61.9885372 125.509687,72.9533418 C125.172306,74.7715506 124.599853,76.538781 123.806559,78.211097 C122.62583,80.8173731 120.361323,82.7830873 117.604061,83.5952004 C114.8468,84.4073135 111.870378,83.9852418 109.451625,82.4391434 C104.059695,79.1940008 99.6959202,74.7397304 95.4655705,70.2230535 L93.3072288,67.9218105 Z M37.4179514,36.211462 L41.0361169,36.211462 C42.1663031,36.211462 43.2964893,36.211462 44.4266755,36.1568562 C46.0748638,36.0476447 46.8597153,35.2129565 46.8911093,33.5669827 C46.8911093,32.1082287 46.8911093,30.6494746 46.8911093,29.1907206 C46.8361697,27.0064899 45.9728331,26.1952043 43.7517032,26.1874035 C41.7267863,26.1874035 39.7097179,26.1874035 37.5199821,26.1874035 C37.5199821,23.8861605 37.5199821,21.7721372 37.5199821,19.6503132 C37.5199821,17.8093188 36.6723424,17.0058339 34.8122443,16.959029 C33.3367234,16.9200249 31.8690511,16.959029 30.4013787,16.959029 C28.22734,16.9980331 27.450337,17.7781155 27.4267914,19.9155412 C27.4032459,22.0529669 27.4267914,24.0265753 27.4267914,26.2030051 C25.0722368,26.2030051 23.0002288,26.2030051 20.9203723,26.2030051 C19.0053345,26.2030051 18.1576949,27.0844982 18.0792097,28.9878992 C18.0792097,30.056612 18.0085731,31.1253249 18.0085731,32.1940377 C18.0085731,35.6420018 18.5972117,36.211462 22.0270129,36.211462 L27.4424885,36.211462 C27.4424885,38.7935346 27.4424885,40.8919562 27.4424885,43.0605852 C27.4424885,44.7299615 28.4157044,45.5958529 30.1109837,45.5804584 C31.5865045,45.5804584 33.0541769,45.5804584 34.5218493,45.5804584 C36.5860088,45.5804584 37.4101029,44.8001689 37.4336484,42.7485523 C37.457194,40.6969356 37.4179514,38.5517091 37.4179514,36.211462 Z M91.5020702,60.0819826 C91.570306,56.0252968 88.3210678,52.6796351 84.2397177,52.6041143 C80.1583676,52.5285936 76.7860905,55.7517317 76.7023616,59.8081307 C76.6186326,63.8645298 79.8550693,67.2224269 83.9361015,67.3133462 C88.0339349,67.3916649 91.4205094,64.1548617 91.5020702,60.0819826 L91.5020702,60.0819826 Z M43.8537339,67.3289479 C47.9213071,67.3286716 51.2229628,64.0594685 51.2386834,60.016642 C51.254292,55.9738154 47.978068,52.679434 43.9106176,52.6480192 C39.8431673,52.6166044 36.5158297,55.8599834 36.4682634,59.9025637 C36.4594729,63.9742437 39.7573353,67.2903834 43.8537339,67.3289479 L43.8537339,67.3289479 Z M101.038067,19.1978654 C101.033946,17.72354 100.436973,16.3120301 99.3800133,15.2776104 C98.3230539,14.2431906 96.8938554,13.6717368 95.4106309,13.6904838 C92.4034971,13.8145292 90.0185555,16.2534888 89.9794583,19.2446703 C89.9878703,21.2080878 91.0495179,23.0178999 92.7644888,23.9923679 C94.4794583,24.9668359 96.587209,24.9579149 98.2937679,23.9689654 C100.000327,22.9800159 101.046428,21.1612829 101.038067,19.1978654 L101.038067,19.1978654 Z M100.959531,43.3180124 C100.982712,41.8377752 100.406185,40.4104233 99.3596357,39.3570295 C98.3130867,38.3036357 96.8843946,37.7126538 95.3949338,37.7169969 C92.4664063,37.9275905 90.1491583,40.2641369 89.9794583,43.1775976 C89.9452977,44.6582251 90.5176914,46.0891382 91.565395,47.1422419 C92.6130986,48.1953456 94.0462378,48.7803025 95.5362071,48.7629874 C96.9920712,48.7891381 98.3952977,48.222052 99.4197154,47.1935447 C100.444133,46.1650374 101.000514,44.7646929 100.959531,43.3180124 L100.959531,43.3180124 Z M107.811285,36.6795114 C110.628902,36.7263163 113.187518,34.0740363 113.195367,31.1097232 C113.083103,28.1423135 110.630203,25.7942698 107.642542,25.7942698 C104.654881,25.7942698 102.201981,28.1423135 102.089717,31.1097232 C102.003384,34.2066503 104.475666,36.609304 107.811285,36.6795114 Z M83.2611292,36.6795114 C86.2901823,36.7892713 88.8364026,34.4400388 88.9513028,31.429557 C89.0748392,28.3900684 86.6959289,25.8265385 83.6378579,25.7037526 C80.5797869,25.5809668 78.0005844,27.9454215 77.8770477,30.9849101 C77.7814858,32.4626553 78.3062614,33.9136985 79.326515,34.9927939 C80.3467687,36.0718893 81.7712847,36.6825607 83.2611292,36.6795114 L83.2611292,36.6795114 Z" id="Shape" fill="#FFE300"></path>
                <path d="M37.519837,36.554647 C37.519837,38.9258654 37.519837,41.0283456 37.519837,43.1308258 C37.519837,45.2333061 36.66875,45.9762878 34.5961957,46 C33.1225543,46 31.648913,46 30.1673913,46 C28.4652174,46 27.5116848,45.1384573 27.4880435,43.4469883 C27.4880435,41.2891796 27.4880435,39.1234669 27.4880435,36.5072227 L22.0347826,36.5072227 C18.5910326,36.5072227 18.0078804,35.9302262 18,32.4366312 C18,31.3537749 18,30.2709185 18.0709239,29.1880621 C18.1497283,27.2594712 19.0008152,26.3979286 20.9236413,26.3663123 C23.0119565,26.3663123 25.1081522,26.3663123 27.4565217,26.3663123 C27.4565217,24.1610793 27.4565217,22.0823113 27.4565217,19.9956391 C27.4565217,17.908967 28.2445652,17.0395203 30.4432065,17 C31.9168478,17 33.3904891,17 34.8720109,17 C36.7396739,17.0474244 37.5592391,17.8615427 37.5907609,19.7269011 C37.5907609,21.8768057 37.5907609,24.0188062 37.5907609,26.3505042 C39.7894022,26.3505042 41.8146739,26.3505042 43.8478261,26.3505042 C46.09375,26.3505042 47,27.1804306 47,29.3935677 C47,30.8716271 47,32.3496866 47,33.827746 C47,35.4955029 46.2119565,36.3412374 44.5255435,36.4518942 C43.3907609,36.5309349 42.2559783,36.4993186 41.1211957,36.5072227 L37.519837,36.554647 Z" id="Path" fill="#FFFFFF"></path>
                <path d="M91,60.0956327 C90.8255598,63.9929523 87.4605235,67.0510852 83.403446,66.9993533 C79.3463685,66.9476214 76.066873,63.804764 76,59.9043673 C76.1744402,56.0070477 79.5394765,52.9489148 83.596554,53.0006467 C87.6536315,53.0523786 90.933127,56.195236 91,60.0956327 Z" id="Path" fill="#C0D731"></path>
                <path d="M43.4755945,67 C40.4357219,66.9900615 37.7025133,65.1461193 36.5550533,62.3310998 C35.4075933,59.5160802 36.0728656,56.2868341 38.2395368,54.1545808 C40.4062079,52.0223276 43.6456797,51.4088573 46.441947,52.6012611 C49.2382144,53.7936649 51.0381361,56.5560684 50.9993865,59.5957247 C50.9256162,63.7006209 47.5811263,66.991983 43.4755945,67 Z" id="Path" fill="#FFFFFF"></path>
                <path d="M100,19.4943618 C100.008317,21.4529787 98.9677599,23.2672648 97.2702454,24.2537963 C95.5727309,25.2403278 93.4761523,25.2492269 91.7702705,24.2771415 C90.0643886,23.3050562 89.0083674,21.4996692 89,19.5410523 C89.03889,16.5571844 91.4111919,14.1241881 94.4023885,14.000446 C95.8777522,13.9817448 97.2993763,14.5518014 98.350734,15.583692 C99.4020917,16.6155825 99.9959012,18.0236412 100,19.4943618 Z" id="Path" fill="#1EA1DB"></path>
                <path d="M99.9974163,43.5617181 C100.042843,45.004915 99.4875986,46.403415 98.4612047,47.4309874 C97.4348108,48.4585598 96.0270239,49.0253455 94.5662411,48.9991293 C93.0741148,49.016371 91.6389009,48.4338957 90.5896806,47.3852596 C89.5404603,46.3366235 88.9672379,44.9117807 89.001448,43.4374345 C89.1713937,40.5363336 91.4919963,38.2096995 94.4247633,38 C95.9136156,37.9957416 97.3419354,38.5820913 98.3895332,39.6276291 C99.437131,40.6731669 100.016376,42.0904338 99.9974163,43.5617181 Z" id="Path" fill="#1EA1DB"></path>
                <path d="M106.668191,36.9995704 C103.364956,36.9364631 100.916676,34.5068329 101.002172,31.3751342 C101.113345,28.3744071 103.542431,26 106.501086,26 C109.459741,26 111.888827,28.3744071 112,31.3751342 C111.992228,34.3569531 109.458452,37.0390124 106.668191,36.9995704 Z" id="Path" fill="#8ACEF1"></path>
                <path d="M82.3516016,36.9963886 C80.873791,36.9994403 79.4607812,36.3882885 78.4487685,35.3083441 C77.4367557,34.2283998 76.9162189,32.776215 77.0110089,31.2973072 C77.0874962,29.3295558 78.2050194,27.5521986 79.9426183,26.6347487 C81.6802172,25.7172988 83.7739092,25.7991387 85.4350208,26.8494401 C87.0961324,27.8997415 88.0723012,29.7589387 87.995814,31.72669 C87.9451072,33.1763806 87.3217288,34.5463772 86.2630266,35.5348308 C85.2043244,36.5232843 83.7971707,37.0490866 82.3516016,36.9963886 L82.3516016,36.9963886 Z" id="Path" fill="#8ACEF1"></path>
                <path d="M57,61.6022752 C56.5062355,61.6022752 55.6597822,62.1095174 55.5814068,62.4918999 C53.8963376,71.2164651 42.4221919,75.7114109 34.6943861,67.9076854 C33.6990196,68.9377772 32.7506783,70.0302988 31.6926116,71.0291756 C28.1030223,74.3535627 24.5918083,77.7793982 20.8219558,80.9008884 C13.4468389,87.0034017 4.47286562,83.7726594 2.65455837,74.0258062 C-1.26420725,52.7216356 1.57297906,32.4943792 13.3684636,13.9371199 C17.2637166,7.92044757 22.4051371,3.33185698 29.6705286,1.64625228 C35.8073155,0.218170513 41.6933015,1.256066 47.3284864,3.78447306 C49.6248831,4.81456483 51.7488541,6.25825404 53.9668754,7.4678315 L49.5778579,46.5488888 L57,61.6022752 Z M37.3669842,36.2245599 L40.9800861,36.2245599 C42.1086906,36.2245599 43.2372951,36.2245599 44.3658996,36.1699339 C46.0117812,36.0606817 46.7955343,35.2256831 46.8268844,33.579097 C46.8268844,32.1198003 46.8268844,30.6605037 46.8268844,29.201207 C46.7720217,27.0161639 45.9098933,26.2045764 43.691872,26.1967727 C41.6697889,26.1967727 39.6555434,26.1967727 37.4688721,26.1967727 C37.4688721,23.8946737 37.4688721,21.7798641 37.4688721,19.6572507 C37.4688721,17.8155715 36.6224188,17.0117878 34.7649239,16.9649654 C33.291468,16.9259468 31.8258497,16.9649654 30.3602313,16.9649654 C28.1892352,17.003984 27.4133196,17.7843566 27.389807,19.9225774 C27.3662944,22.0607982 27.389807,24.0351407 27.389807,26.2123801 C25.0385476,26.2123801 22.9694393,26.2123801 20.8924936,26.2123801 C18.9801359,26.2123801 18.1336826,27.0942011 18.0553073,28.9983101 C18.0553073,30.0674205 17.9847695,31.1365309 17.9847695,32.2056413 C17.9847695,35.654888 18.5725843,36.2245599 21.9975855,36.2245599 L27.405482,36.2245599 C27.405482,38.8075931 27.405482,40.9067952 27.405482,43.0762309 C27.405482,44.7462282 28.3773359,45.6124417 30.0702427,45.5970415 C31.5436985,45.5970415 33.0093169,45.5970415 34.4749352,45.5970415 C36.5362059,45.5970415 37.3591467,44.8164617 37.3826593,42.7640819 C37.4061719,40.7117021 37.3669842,38.5656776 37.3669842,36.2245599 Z M43.7937599,67.3536209 C47.8556404,67.3533446 51.1526755,64.0829254 51.168374,60.038595 C51.1839608,55.9942646 47.9123219,52.6986578 43.8505639,52.6672313 C39.788806,52.6358048 36.4661251,55.8803902 36.4186254,59.9244743 C36.4098472,63.9976689 39.7030942,67.3150421 43.7937599,67.3536209 L43.7937599,67.3536209 Z" id="Shape" fill="#FBD00A"></path>
                <path d="M37.489343,36.4812307 L41.1165481,36.4812307 C42.249558,36.4812307 43.3825678,36.4812307 44.5155777,36.4259362 C45.2066863,36.4624276 45.8789294,36.1925863 46.3544723,35.6877958 C46.8300152,35.1830054 47.0609439,34.4941267 46.9861686,33.8033953 C46.9861686,32.3262412 46.9861686,30.8490872 46.9861686,29.3640339 C46.9310917,27.1601517 46.0655981,26.3386329 43.838919,26.3307336 C41.808943,26.3307336 39.7868352,26.3307336 37.5916286,26.3307336 C37.5916286,23.9609678 37.5916286,21.8518762 37.5916286,19.7111877 C37.5286836,17.8074758 36.7103987,17.0175538 34.8456534,17.0175538 C33.3664461,16.9780577 31.8951069,17.0175538 30.4237677,17.0175538 C28.2442974,17.0175538 27.4653531,17.8074758 27.4417487,20.011358 C27.4181444,22.2152403 27.4417487,24.1742467 27.4417487,26.3781289 C25.0813115,26.3781289 23.0041268,26.3781289 20.919074,26.3781289 C18.9992517,26.3781289 18.1494944,27.2707408 18.0708131,29.1981503 C18.0708131,30.2803434 18,31.3625365 18,32.4368303 C18,35.9361846 18.5901093,36.5128276 22.0284795,36.5128276 L27.457485,36.5128276 C27.457485,39.1274693 27.457485,41.2523593 27.457485,43.4483423 C27.457485,45.1387753 28.4331323,46.0155887 30.1326471,46 C31.6118544,46 33.0831936,46 34.5545328,46 C36.6238494,46 37.4500024,45.2098683 37.4736068,43.1323735 C37.4972111,41.0548788 37.489343,38.8509966 37.489343,36.4812307 Z" id="Path" fill="#E2831B"></path>
                <path d="M43.5002646,67 C47.631061,66.9997178 50.9840351,63.6595142 51,59.5288856 C51.0158513,55.398257 47.6887041,52.0323283 43.5580324,52.0002312 C39.4273607,51.9681341 36.0483056,55.2819527 36,59.4123297 C35.9910728,63.5724384 39.3401947,66.960598 43.5002646,67 L43.5002646,67 Z" id="Path" fill="#6CB245"></path>
                <path d="M12.8849168,84.9999644 C11.6759196,85.0031556 10.4759121,84.7917387 9.34052234,84.3754778 C5.39105427,82.9470481 2.59448812,79.2393752 1.65970278,74.2281626 C-2.48451224,51.7635676 1.13778096,31.3206302 12.4642634,13.4379384 C16.8577545,6.46751335 22.3496183,2.29150283 29.2514501,0.683543641 C35.1483877,-0.698052363 41.0920645,0.00445407946 47.4174453,2.88473049 C49.0212261,3.64271324 50.5816194,4.48963508 52.091372,5.42155931 C52.7613015,5.8196463 53.431231,6.20212203 54.1089503,6.60801464 C54.3036973,6.70948779 54.4828645,6.83437783 54.6698215,6.95146223 C54.9326966,7.13966575 55.2179197,7.29436468 55.5189182,7.41199423 C60.9718327,8.97311966 67.3595326,10.0893243 73.4356373,6.16309389 C81.4358418,1.01137998 89.015393,-0.861970533 96.6105239,0.441569199 C102.709998,1.48752324 108.007115,4.85174853 112.346077,10.4327719 C118.577979,18.4179285 122.737774,27.9564049 125.144846,39.5945949 C127.488367,50.6474769 127.612826,62.0572224 125.510971,73.1587916 C125.156057,75.0481036 124.561816,76.8842675 123.742668,78.6227306 C122.45934,81.4844249 119.997855,83.6457383 116.998153,84.5447712 C113.998451,85.443804 110.756876,84.99174 108.116173,83.3061069 C102.780107,80.0979942 98.581363,75.8048992 94.0242844,70.9419935 L92.583157,69.3808681 L92.5364178,69.3340343 C89.1028146,72.6075168 84.1705679,73.7636338 79.6441317,72.3559818 C75.1176956,70.9483298 71.7053804,67.1971825 70.7247598,62.5509443 L65.2095263,62.5509443 C62.4051702,62.5509443 59.4995458,62.5509443 56.6406606,62.5509443 C56.4572436,62.6003333 56.2852352,62.6851855 56.1343186,62.8007244 C55.1774789,67.3698121 51.7931103,71.0428744 47.3239667,72.3626177 C42.8150641,73.7039092 37.9344808,72.5481465 34.5018278,69.3262287 L34.2603416,69.5838144 C33.5904121,70.3097377 32.897113,71.0668836 32.1414948,71.7615844 C31.2534487,72.5967865 30.3809824,73.4319886 29.4695667,74.2749963 C26.8443779,76.7493801 24.1257105,79.3096258 21.2979848,81.6669252 C18.9710415,83.7330678 15.9927888,84.9129613 12.8849168,84.9999644 Z M35.0549091,1.95586086 C33.2504745,1.95791594 31.4522344,2.16743637 29.6954732,2.58031104 C23.3155632,4.07118582 18.2131932,7.96619376 14.1157175,14.4838924 C3.05409091,31.9372747 -0.482513629,51.9118746 3.57601273,73.8612981 C4.35500052,78.1856155 6.69196387,81.3547001 10.002662,82.5411555 C13.31336,83.7276108 16.8577545,82.8299637 20.0516044,80.1994673 C22.8325908,77.8577792 25.5045189,75.3365616 28.1374976,72.8855947 L30.8172156,70.3565715 C31.5183046,69.7165101 32.1882341,68.9905867 32.8347939,68.2880803 L33.7617894,67.2967657 L34.4472986,66.5708423 L35.1561775,67.28896 C38.4201363,70.5985459 42.65004,71.7771956 46.7630955,70.5282953 C50.5882502,69.4084407 53.4776341,66.2546593 54.2647479,62.3401924 C54.451705,61.3566834 55.8227235,60.6853995 56.6017112,60.6619826 C59.4683863,60.6073432 62.3818006,60.6151488 65.1705769,60.6619826 L72.306105,60.6619826 L72.4463228,61.4425453 C73.1168365,65.6472764 76.0603873,69.131958 80.088193,70.4892672 C84.1856687,71.8006125 88.4778914,70.6375741 91.8742781,67.28896 L92.583157,66.5864536 L93.9697553,68.085134 L95.4108827,69.6462594 C99.8589029,74.407692 103.979748,78.5915081 109.074328,81.6747308 C111.24153,83.0833009 113.915446,83.4707698 116.392106,82.7351273 C118.868767,81.9994848 120.899985,80.2144495 121.950997,77.8499735 C122.7006,76.2536774 123.240021,74.5665468 123.555711,72.8309553 C125.607476,61.9874278 125.485666,50.8432188 123.197377,40.0473213 C120.860414,28.7135507 116.794097,19.43266 110.772522,11.6972835 C106.721785,6.37384583 101.96996,3.3452625 96.283349,2.34614222 C89.0932918,1.11285313 82.1680903,2.83789673 74.471691,7.81008122 C67.7723961,12.1500099 60.8316149,10.9947771 54.958047,9.28534475 C54.4726625,9.12067003 54.0135243,8.88669341 53.5948184,8.59064393 C53.4468107,8.48917078 53.298803,8.39550325 53.1430055,8.30964136 C52.4497064,7.91155437 51.7641971,7.52907864 51.0786879,7.09976915 C49.6372485,6.21235897 48.1470163,5.40710114 46.6150878,4.68783036 C43.0021771,2.95596438 39.0593747,2.02417811 35.0549091,1.95586086 Z M83.469,68.3036916 L83.2664631,68.3036916 C78.7753752,68.1234736 75.2425824,64.3954129 75.2953085,59.8919479 C75.3480347,55.3884828 78.9671389,51.7444948 83.4612101,51.6699001 L83.4612101,51.6699001 C85.6827076,51.6760235 87.8098538,52.5704924 89.3704243,54.1547354 C90.9309948,55.7389785 91.7958561,57.8819035 91.7730097,60.1077831 L91.7730097,60.1077831 C91.7049444,64.6556607 88.0082102,68.3077458 83.469,68.3114972 L83.469,68.3036916 Z M83.469,53.6135013 C79.9583797,53.5811693 77.0863023,56.4066329 77.0540355,59.9243508 C77.0217688,63.4420687 79.8415315,66.3199528 83.3521518,66.3522848 C85.6696764,66.4587049 87.8609987,65.2915388 89.0693667,63.3071191 C90.2777347,61.3226994 90.311206,58.8362397 89.1566942,56.8198835 C88.0021825,54.8035273 85.8430751,53.577561 83.5235291,53.6213069 L83.469,53.6135013 Z M43.5302962,68.3349141 L43.5302962,68.3349141 C41.3002756,68.3268409 39.1670281,67.4211903 37.6099891,65.8215021 C36.0546516,64.2532902 35.1954061,62.123343 35.2262864,59.9126424 C35.3146211,55.3770348 38.9875868,51.7346924 43.5147165,51.693317 L43.5147165,51.693317 C48.125643,51.727661 51.8430041,55.4874149 51.8343212,60.1077831 C51.7747154,64.6630492 48.0767546,68.3267742 43.5302962,68.3349141 L43.5302962,68.3349141 Z M43.5302962,53.6447238 L43.5302962,53.6447238 C40.0558622,53.6694494 37.2334268,56.4629749 37.165966,59.9438649 C37.1292396,61.6272342 37.7725041,63.2541276 38.949848,64.4555174 C40.1558862,65.675838 41.8007567,66.3593049 43.5147165,66.3523383 L43.5147165,66.3523383 C46.9527701,66.2999486 49.7438148,63.5513614 49.8556822,60.1077831 C49.8601195,56.5724693 47.0193644,53.6946141 43.4913468,53.660335 L43.5302962,53.6447238 Z M94.8110621,49.7419102 L94.8110621,49.7419102 C93.0532941,49.7542925 91.3660793,49.049865 90.1371354,47.7905034 C88.923474,46.5584819 88.2625569,44.884531 88.3065141,43.1539609 C88.4852364,39.7083798 91.2112841,36.9432635 94.6474747,36.7221241 C96.3645651,36.7067779 98.0155095,37.3848086 99.2279228,38.6032803 C100.474648,39.8396556 101.168738,41.5291134 101.152023,43.2866566 C101.218845,45.0048398 100.575648,46.674599 99.3740919,47.902221 C98.1725357,49.1298431 96.5189637,49.8066773 94.8032722,49.7731327 L94.8110621,49.7419102 Z M94.7175836,38.6735309 L94.7175836,38.6735309 C92.3398119,38.897176 90.4735529,40.8134633 90.3085127,43.2007947 C90.2786242,44.4033274 90.7368022,45.5665793 91.5782628,46.4245187 C92.4391907,47.3050851 93.6198033,47.7980016 94.8500115,47.7905034 L94.8500115,47.7905034 C96.0410353,47.8173141 97.1901406,47.3495947 98.0251256,46.4981393 C98.8601106,45.646684 99.3066918,44.4872414 99.2590824,43.2944622 L99.2590824,43.2944622 C99.2719958,42.0546207 98.7862708,40.8617664 97.9114335,39.9848763 C97.059814,39.1435463 95.9055041,38.6820146 94.7097937,38.7047534 L94.7175836,38.6735309 Z M29.8045314,46.56502 C27.5922061,46.56502 26.2523471,45.2692859 26.2211876,43.0837103 C26.2211876,41.6162524 26.2211876,40.1487945 26.2211876,38.5330296 L26.2211876,37.1904618 L21.8121168,37.1904618 C17.9171779,37.1904618 16.8655443,36.1679246 16.8499646,32.1948604 C16.8499646,31.2113514 16.8499646,30.1497861 16.9200735,28.9477195 C17.0213419,26.5123638 18.291092,25.2634635 20.6981642,25.2244354 C22.1315018,25.2244354 23.5648393,25.2244354 25.0838655,25.2244354 L26.197818,25.2244354 L26.197818,24.2018982 C26.197818,22.7344403 26.197818,21.3138162 26.197818,19.8853864 C26.197818,17.2158619 27.4286187,15.9825728 30.0927569,15.9825728 C31.3858767,15.9825728 32.9204826,15.9435447 34.5096177,15.9825728 C36.846581,16.0450179 38.1085412,17.2705013 38.1474906,19.6356063 C38.1474906,21.1108699 38.1474906,22.5861334 38.1474906,24.1160363 L38.1474906,25.2166297 L43.3589189,25.2166297 C46.1321154,25.2166297 47.3940756,26.4499188 47.4641845,29.1662771 C47.5187137,30.5790956 47.5187137,32.0075254 47.5187137,33.5686508 C47.4719744,35.7386151 46.3112826,36.9640986 44.1612763,37.1124055 C43.3043898,37.1670449 42.4475032,37.1670449 41.6217761,37.1670449 L38.0929615,37.1670449 L38.0929615,38.3222777 C38.0929615,39.8365694 38.0929615,41.2649991 38.0929615,42.6934289 C38.0929615,45.2224521 36.8076316,46.4713524 34.2447618,46.4947693 L31.6429426,46.4947693 L29.8590606,46.4947693 L29.8045314,46.56502 Z M23.1831353,27.1602309 C22.3574082,27.1602309 21.5394711,27.1602309 20.7293238,27.1602309 C19.3583053,27.1602309 18.9220721,27.6129573 18.8675429,29.0101645 C18.8208037,30.1888142 18.797434,31.219157 18.797434,32.1324154 C18.797434,35.0439143 18.9454417,35.1844156 21.8121168,35.1844156 L28.1608672,35.1844156 L28.1608672,38.4861959 C28.1608672,40.0863494 28.1608672,41.5460017 28.1608672,42.9978484 C28.1608672,44.114053 28.6282599,44.5589738 29.8279011,44.5589738 L31.6117831,44.5589738 L34.2058124,44.5589738 C35.763788,44.5589738 36.1143325,44.1764981 36.1299123,42.6856233 C36.145492,41.1947485 36.1299123,39.844375 36.1299123,38.337889 L36.1299123,35.2156381 L41.5828268,35.2156381 C42.4163437,35.2156381 43.2031213,35.2156381 43.989899,35.1609987 C45.1194313,35.0829424 45.5089252,34.6770498 45.5478746,33.5296226 C45.5478746,31.9684972 45.5478746,30.5634843 45.5478746,29.189694 C45.5089252,27.5505123 45.0804819,27.1446196 43.3822885,27.136814 C42.01127,27.136814 40.6402515,27.136814 39.2147039,27.136814 L36.2233908,27.136814 L36.2233908,24.1004251 C36.2233908,22.5783278 36.2233908,21.1186755 36.2233908,19.6590232 C36.1922313,18.3476779 35.8338969,17.9573965 34.4706683,17.9573965 C32.9126927,17.9183684 31.4170362,17.9573965 30.1394962,17.9573965 C28.5192016,17.9573965 28.1608672,18.3320666 28.1452875,19.9400258 C28.1452875,21.3606499 28.1452875,22.7812741 28.1452875,24.2409263 L28.1452875,27.1680365 L23.1831353,27.1680365 L23.1831353,27.1602309 Z M107.06454,37.6587994 L106.971061,37.6587994 C105.118577,37.6559791 103.344806,36.9079144 102.047859,35.5825026 C100.90029,34.3769875 100.285402,32.7592922 100.341875,31.094267 C100.487844,27.6077952 103.34835,24.8550568 106.830844,24.8497653 L106.916532,24.8497653 C110.387992,24.8941962 113.207986,27.671707 113.312022,31.1489064 C113.29065,32.9380192 112.555707,34.6441741 111.271074,35.886922 C110.155653,37.0083541 108.644575,37.6448507 107.06454,37.6587994 L107.06454,37.6587994 Z M106.823054,26.7309214 C104.379003,26.7333766 102.373624,28.6704291 102.281555,31.1176839 C102.233496,32.2739697 102.655064,33.4004248 103.450037,34.2399347 C104.389889,35.1864737 105.66971,35.7151859 107.002221,35.7074776 C108.094701,35.6901466 109.136182,35.2412922 109.900055,34.4584923 C110.810352,33.5773401 111.334298,32.3701093 111.356763,31.1020726 C111.242007,28.7001096 109.284928,26.8005697 106.885373,26.7621439 L106.823054,26.7309214 Z M82.7912806,37.6509938 L82.573164,37.6509938 C80.818417,37.6235144 79.1494048,36.8858624 77.9459766,35.6059195 C76.7812631,34.3352687 76.1823045,32.6446501 76.2867326,30.9225432 C76.363488,29.2174917 77.1134353,27.612925 78.3714231,26.4621961 C79.629411,25.3114673 81.2922726,24.7089469 82.9938174,24.7873202 C84.6963545,24.8322249 86.3086788,25.5640226 87.4652073,26.8167833 C89.233173,28.6756233 89.7195939,31.4140427 88.7002928,33.7699842 C87.6809917,36.1259257 85.3538111,37.6421097 82.7912806,37.6197713 L82.7912806,37.6509938 Z M82.8535996,26.7699495 C81.0589174,26.721897 79.4078349,27.7485838 78.6540941,29.3813132 C77.9003533,31.0140427 78.1885444,32.9396084 79.387104,34.2789628 C80.2400591,35.1732035 81.4166511,35.6853102 82.6510628,35.699587 L82.6510628,35.699587 C85.1119388,35.7858056 87.1766258,33.8567321 87.2626705,31.3908808 C87.3487151,28.9250295 85.4235339,26.8561681 82.9626579,26.7699495 L82.8535996,26.7699495 Z M94.8578014,25.692773 C93.1096636,25.7107289 91.4268759,25.027822 90.1838747,23.7960056 C88.9656802,22.5999385 88.2804113,20.9620991 88.2831363,19.2531306 C88.3022784,15.7149052 91.1103566,12.8252887 94.6396848,12.7120151 C96.3833668,12.6699521 98.0702086,13.3347322 99.318112,14.5557713 C100.566015,15.7768104 101.269376,17.4507778 101.268871,19.1984912 L101.268871,19.1984912 C101.299233,22.740001 98.4698226,25.6413889 94.9357001,25.692773 L94.8578014,25.692773 Z M94.756533,14.6634218 L94.6942139,14.6634218 C92.2462711,14.7898145 90.3116349,16.789687 90.2617732,19.245325 C90.2613987,20.4345682 90.7386818,21.573924 91.5860527,22.406604 C92.4566037,23.2690211 93.6336434,23.7492132 94.8578014,23.7413662 L94.8578014,23.7413662 C97.3194135,23.6986008 99.2851426,21.6731182 99.2590824,19.2062968 L99.2590824,19.2062968 C99.2590824,16.6973363 97.2292717,14.6634218 94.7253734,14.6634218 L94.756533,14.6634218 Z" id="Shape" fill="#FBD00A"></path>
            </g>
        </g>
    </g>
</svg>