<?xml version="1.0" encoding="UTF-8"?>
<svg width="146px" height="86px" viewBox="0 0 146 86" version="1.1" xmlns="http://www.w3.org/2000/svg" xmlns:xlink="http://www.w3.org/1999/xlink">
    <!-- Generator: Sketch 60.1 (88133) - https://sketch.com -->
    <title>icon-robots</title>
    <desc>Created with Sketch.</desc>
    <g id="Page-1" stroke="none" stroke-width="1" fill="none" fill-rule="evenodd">
        <g id="Artboard-Copy-2" transform="translate(-356.000000, -228.000000)" fill-rule="nonzero">
            <g id="icon-robots" transform="translate(356.000000, 228.000000)">
                <path d="M29.4093718,57 L0,57 L0,26.2575734 L0,26.2575734 C16.2717236,26.2575734 33.4207054,21.208505 29.4093718,55.8195136 L29.4093718,57 Z" id="Path" fill="#6CB245"></path>
                <path d="M30,58 L0,58 L0,27 L16.7675827,27 C24.0633766,27.0228722 29.9731568,32.8992485 30,40.1576233 L30,58 Z M0.950163018,57.0547085 L29.0428505,57.0547085 L29.0428505,40.1576233 C29.0351588,33.4188236 23.5480917,27.9567803 16.7745692,27.9452915 L0.950163018,27.9452915 L0.950163018,57.0547085 Z" id="Shape" fill="#00AA66"></path>
                <path d="M27.8421251,39.1514585 L27.4587695,38.5158842 C25.4417511,35.1110749 22.704059,32.2022418 19.4431531,29.9991886 L19.4431531,29.9991886 C18.2040362,29.1606358 16.6959702,28.8323191 15.2262418,29.0811369 L15.2262418,29.0811369 C14.4649431,29.2104118 13.7357759,29.4886516 13.0794507,29.9003215 L12.758826,30.1051177 C10.7698852,31.3644304 9.71193441,33.7025944 10.0683669,36.0512683 L10.0683669,36.0512683 C10.417536,38.3418347 11.9170423,40.2837099 14.0273844,41.1782343 L25.0680248,45.8673602 C26.873281,46.6371113 29.5637401,43.8052747 29.5637401,43.8052747 L29.5637401,43.8052747 C31.2026271,43.8034901 32.583463,42.5649555 32.7839269,40.9169426 L33,39.1514585 L27.8421251,39.1514585 Z" id="Path" fill="#6CB245"></path>
                <path d="M26.2005656,45.9997072 C25.9645447,46.0041655 25.7301861,45.9576602 25.5121778,45.8631058 L14.3327591,41.5421871 C12.0707175,40.5432342 10.4623447,38.395929 10.0785222,35.8624438 C9.68155494,33.2446511 10.8124691,30.6309044 12.9559834,29.2121114 L13.2726418,29.0036144 C15.3891954,27.6274054 18.080441,27.6695666 20.1565203,29.1114577 C23.4583543,31.4051631 26.2344153,34.4321504 28.2863808,37.9761711 L28.4928972,38.3356485 L34,38.3356485 L33.2358895,41.9951287 L33.0844442,42.1245406 C32.1643361,42.898678 31.2036976,43.6187458 30.2069829,44.2814051 C28.0592128,45.6977462 26.8683019,45.9997072 26.2005656,45.9997072 Z M14.732024,40.4709444 L25.9458621,44.7846735 C26.63425,45.0866346 29.2088206,43.8644113 32.1826561,41.3624484 L32.5543855,39.5578717 L27.8458126,39.5578717 L27.3019862,38.6160409 C25.3492852,35.2277707 22.7050112,32.331065 19.5576229,30.1323736 C18.4539234,29.3665103 17.1133358,29.0659352 15.8059091,29.2911964 C15.1270748,29.4104852 14.4770337,29.6669063 13.8921909,30.046099 L13.5755325,30.2545959 C11.804475,31.4095059 10.8644367,33.5569719 11.1868266,35.7114633 C11.5013035,37.8313569 12.8419553,39.6312022 14.732024,40.4709444 Z" id="Shape" fill="#00AA66"></path>
                <path d="M24,39.8429201 L24.9811589,37.3802424 L39.0870956,29 L44,35.4243766 L28.1308212,46.4814426 C27.5048089,46.9794094 26.6723439,47.1303428 25.912391,46.8836641 C25.152438,46.6369853 24.5655445,46.0253318 24.3483825,45.2536729 L24.3483825,45.2536729 C24.3483825,45.2536729 28.9129044,43.2763925 24,39.8429201 Z" id="Path" fill="#6CB245"></path>
                <path d="M26.9849145,47 C26.6762415,46.9996002 26.3696313,46.9500376 26.0767684,46.8532009 C25.1364746,46.5565241 24.4091489,45.810672 24.1407979,44.8679176 L24,44.3715968 L24.4716728,44.1758646 C25.1304506,43.9104965 25.6670706,43.4125059 25.9782099,42.7777778 C26.0880136,42.3343231 25.9868104,41.8653593 25.703654,41.5055188 C24.6822868,39.943007 24.6822868,37.9300614 25.703654,36.3675497 L25.837412,36.1508462 L39.4384847,28 L45,35.1791759 L28.8082467,46.3638705 C28.288591,46.7712971 27.647011,46.9951334 26.9849145,47 Z M25.4502179,44.9727741 C25.7139201,45.4110849 26.1555189,45.7148478 26.6614504,45.8059455 C27.1673819,45.8970432 27.6882764,45.7665862 28.0901777,45.4481236 L28.0901777,45.4481236 L43.296346,34.9624724 L39.1498491,29.5309051 L26.6540396,36.9757174 C25.9018887,38.1598072 25.9156493,39.6710359 26.689239,40.8414275 C27.1649632,41.4875333 27.3154951,42.3147963 27.0975528,43.0853569 C26.7896481,43.887635 26.2062066,44.5561072 25.4502179,44.9727741 L25.4502179,44.9727741 Z" id="Shape" fill="#00AA66"></path>
                <path d="M32,5.38055872 L27.3645507,0 L1,0 L1,24.3514823 L7.48547161,24.4655074 L7.67948145,24.7790764 L29.49173,25 L30.1014752,22.8620296 L28.8819848,20.3463512 C32.5612427,19.0706956 31.3348234,15.8779932 31.3348234,15.8779932 C30.1084041,12.6852908 27.607063,14.6023375 27.607063,14.6023375 L27.607063,8.73004561 L27.2051855,7.8677309 L32,7.8677309 L32,5.38055872 Z" id="Path" fill="#6CB245"></path>
                <rect id="Rectangle" fill="#0680C4" opacity="0.2" x="1" y="0" width="4" height="24"></rect>
                <path d="M16.4957088,21.9940622 C16.3115217,21.9911528 16.1437261,21.8918803 16.0583194,21.7352906 C15.9964512,21.6239979 15.9831989,21.4936843 16.0214779,21.3730174 C16.0597569,21.2523504 16.1464316,21.1512145 16.2624344,21.0918584 L20.9643711,18.7209509 L20.8331543,13.4755803 C20.8331542,13.3056718 20.9276357,13.1486699 21.0810083,13.0637157 C21.2343809,12.9787614 21.4233437,12.9787614 21.5767163,13.0637157 C21.730089,13.1486699 21.8245704,13.3056718 21.8245704,13.4755803 L21.9995261,19.0146917 C22.007858,19.197809 21.905762,19.3692223 21.7370925,19.4553028 L16.7654323,21.9660869 C16.6796335,21.9979285 16.5866184,22.0075759 16.4957088,21.9940622 Z" id="Path" fill="#00AA66"></path>
                <rect id="Rectangle" fill="#00AA66" x="17" y="24" width="6" height="1"></rect>
                <polygon id="Path" fill="#00AA66" points="15 8 28 8 21.6223699 15"></polygon>
                <path d="M29.4040609,26 L22.4303461,26 C22.1639164,26 21.9479324,25.7815592 21.9479324,25.5120987 C21.9479324,25.2426383 22.1639164,25.0241974 22.4303461,25.0241974 L29.049345,25.0241974 L29.496287,23.6609438 L28.3399131,21.6734636 C28.2764184,21.5421787 28.2764184,21.3885974 28.3399131,21.2573125 C28.3901226,21.1187186 28.4996695,21.0105635 28.6378745,20.9631367 C29.5465949,20.7344043 30.3187112,20.1305087 30.76617,19.2985323 C31.0518404,18.6145122 31.0771111,17.8477684 30.8371132,17.1460267 C30.6526446,16.4790109 30.1732873,15.9359175 29.5388529,15.6751478 C28.914177,15.5682748 28.2731656,15.7180819 27.7581791,16.0912989 C27.6040811,16.1886678 27.4085804,16.1886678 27.2544825,16.0912989 C27.0909664,16.0124078 26.9882761,15.8439888 26.9919927,15.6607978 L26.9919927,9.92078262 L22.2529881,15.9406235 C22.1677491,16.0466185 22.0424721,16.1116106 21.9076245,16.1197935 C21.7727769,16.1279763 21.640715,16.0786003 21.5435563,15.9836736 L17.1521733,11.5423369 C17.0550064,11.4488801 17,11.3192016 17,11.183586 C17,11.0479703 17.0550064,10.9182918 17.1521733,10.824835 C17.2423582,10.7225767 17.3714043,10.6641017 17.5068892,10.6641017 C17.6423742,10.6641017 17.7714203,10.7225767 17.8616051,10.824835 L21.8769892,14.8787207 L27.133879,8.19160307 C27.2608448,8.02364085 27.4803259,7.95749592 27.6774849,8.02777684 C27.8746438,8.09805775 28.0046115,8.28877017 27.9993859,8.50012888 L27.9993859,14.7997955 C28.5811022,14.5457416 29.2294181,14.4927819 29.8439086,14.6491201 C30.7733088,14.9836717 31.4897978,15.7456087 31.7735632,16.7011755 C32.1025227,17.6347165 32.072132,18.6592651 31.6884313,19.5711831 C31.2382563,20.4850255 30.462632,21.1925663 29.51757,21.5514883 L30.4682086,23.3667681 C30.5228388,23.4900091 30.5228388,23.630978 30.4682086,23.7542191 L29.8368143,25.6627741 C29.7754559,25.8549193 29.6034104,25.9889869 29.4040609,26 Z" id="Path" fill="#00AA66"></path>
                <path d="M14.5462484,19 C12.5638259,18.9089683 11,17.1450469 11,15 C11,12.8549531 12.5638259,11.0910317 14.5462484,11 C14.7968485,11 15,11.2196187 15,11.490532 C15,11.7614453 14.7968485,11.981064 14.5462484,11.981064 C13.0569695,12.059788 11.8868859,13.3880791 11.8868859,15 C11.8868859,16.6119209 13.0569695,17.940212 14.5462484,18.018936 C14.7968485,18.018936 15,18.2385546 15,18.509468 C15,18.7803813 14.7968485,19 14.5462484,19 L14.5462484,19 Z" id="Path" fill="#00AA66"></path>
                <path d="M19.5582556,25 L0,24.6722455 L0,0 L27.1399436,0 L32,5.52998605 L32,8.64714086 L13.712302,8.64714086 C11.2992893,8.64713781 9.34208143,10.609841 9.33825125,13.0334728 L9.33825125,15.9344491 C9.3420741,18.3553611 11.2950573,20.3169414 13.7053591,20.320781 L16.4825342,20.320781 L19.5582556,25 Z M0.944239531,23.7377964 L17.7669777,24.0237099 L15.9687568,21.2970711 L13.7053591,21.2970711 C12.2924481,21.2952294 10.9383401,20.7287565 9.9418689,19.7226655 C8.94539767,18.7165745 8.38847693,17.3535701 8.39401172,15.9344491 L8.39401172,13.0055788 C8.39783663,10.0608826 10.7735687,7.67469252 13.7053591,7.67085077 L31.0627034,7.67085077 L31.0627034,5.88563459 L26.7164244,0.948396095 L0.944239531,0.948396095 L0.944239531,23.7377964 Z" id="Shape" fill="#00AA66"></path>
                <polygon id="Rectangle" fill="#00AA66" transform="translate(15.968191, 9.590874) rotate(-46.090000) translate(-15.968191, -9.590874) " points="15.4940686 7.59785571 16.450798 7.59582062 16.4423134 11.5838922 15.485584 11.5859273"></polygon>
                <circle id="Oval" fill="#C0D731" cx="7" cy="10" r="1"></circle>
                <circle id="Oval" fill="#C0D731" cx="7" cy="16" r="1"></circle>
                <circle id="Oval" fill="#C0D731" cx="7" cy="21" r="1"></circle>
                <path d="M51.3115932,10.8603783 L51.3605485,10.8603783 C53.4570443,9.85165577 55.8642677,9.72463536 58.0534313,10.5072193 C61.6201714,11.6938337 65.123969,13.8127882 66.4947161,17.3443789 C72.8169377,33.5896962 57.1792303,36.4149688 57.1792303,36.4149688 C57.1792303,36.4149688 56.0392722,39.6357795 50.2555584,38.3008382 C49.9070585,38.6653878 49.5119256,38.9813133 49.0806323,39.2402414 C45.9195215,41.0907949 41.5485165,39.4450736 39.2895812,35.5603238 C37.0306458,31.675574 37.8279171,27.0350638 40.9890279,25.1845103 C41.605548,24.8234912 42.284261,24.5838181 42.9891998,24.4781921 C43.0801167,24.2592335 42.9472381,24.0897172 43.0591358,23.8636954 C39.8700506,20.4380524 41.6604143,14.7875072 43.7584966,12.2588883 C45.5876012,9.97090445 48.7977947,9.37651413 51.3115932,10.8603783 L51.3115932,10.8603783 Z" id="Path" fill="#6CB245"></path>
                <path d="M57.1598859,15.6989788 C58.1512026,14.4988128 59.7503123,13.9888198 61.2515079,14.3940659 C61.0095685,14.1017084 60.7605133,13.8164815 60.4972263,13.545516 L60.4972263,13.545516 C60.2029458,13.1932846 60.2053855,12.6796344 60.5029986,12.330226 C60.8006117,11.9808177 61.3064507,11.8977306 61.6998074,12.1336431 C63.3869559,13.2444755 64.7031,14.8365731 65.4783313,16.7044034 C71.8826093,33.1049474 56,36 56,36 L59.2234866,33.6468785 C61.289331,32.147701 62.8465811,30.0496252 63.6851335,27.6357225 L63.6851335,27.6357225 C64.5734518,25.1052704 64.6283229,22.3560051 63.8416825,19.7919841 C63.691596,20.1416185 63.49274,20.4681328 63.2510658,20.7617554 C62.4543502,21.7191242 61.2559373,22.2469952 60.0133475,22.1878897 C60.0532324,22.5431496 59.9451056,22.8991626 59.7144812,23.1719223 C59.4922229,23.4430216 59.1713487,23.6142286 58.8228172,23.6476823 C58.4742857,23.681136 58.1268133,23.5740801 57.8572406,23.3501891 C57.2966298,22.8817452 57.2172569,22.0481858 57.679344,21.4819532 L57.786082,21.3749931 L57.6651123,21.2751637 C55.9955987,19.8716709 55.7699177,17.3808287 57.1598859,15.6989788 Z" id="Path" fill="#C0D731"></path>
                <path d="M40.8468026,14.7443153 C39.9591151,17.0222335 39.5434519,20.5805963 40.7411255,23.0212228 C40.9539293,23.4559718 41.2266737,23.8584454 41.5513165,24.2167761 C41.1779241,28.7513896 44.3693719,34.0570995 47.8355801,37 L48.58941,36.1086407 C45.5811358,33.5336028 42.7419449,29.0343608 42.6855838,25.0939869 C42.9774121,25.2480171 43.2843377,25.3712951 43.6014518,25.4618494 C44.5157638,25.6415495 45.4626875,25.5430168 46.3208753,25.1788782 C47.1381114,30.1308742 49.0332537,32.9605862 51.0129377,34.6159677 C52.2031613,35.6130798 53.6140048,36.3092903 55.1272987,36.646286 C56.0435696,36.8491414 56.9945667,36.8321756 57.9030833,36.596766 C61.5905478,35.6640858 64.6992809,33.1817629 66.4347462,29.7842345 C68.275491,26.1718801 68.5033811,21.9449025 67.0617636,18.1541182 C65.7306632,14.6054993 63.0196298,11.7530133 59.5516457,10.2521475 C56.6436429,8.97459542 53.3495141,8.90844033 50.3929655,10.0682163 C49.6884516,9.36078828 47.7439933,9.00707428 47.3776461,9 C46.3139823,9.01677001 45.2848788,9.38192376 44.4468685,10.0399192 C42.8320447,11.2388421 41.5847274,12.8687775 40.8468026,14.7443153 Z M49.4982329,10.6907529 C49.4917343,10.6556825 49.4917343,10.6197091 49.4982329,10.5846387 L49.4982329,10.5846387 C49.5014224,10.6199376 49.5014224,10.655454 49.4982329,10.6907529 L49.4982329,10.6907529 Z M47.3846913,24.5209702 L47.7087677,22.0378979 L48.490778,19.031329 C49.3080141,15.9115715 50.2450176,12.3461344 50.5338683,11.249621 C53.2716843,10.1030853 56.3579049,10.1337684 59.0725763,11.3345124 C62.2515369,12.7062334 64.7421059,15.3117326 65.9768122,18.5573522 C67.3003948,22.0394039 67.0904277,25.9218634 65.3991108,29.2395149 C63.8136918,32.3428116 60.9748993,34.6108682 57.6071875,35.4648813 C56.876518,35.655802 56.1112196,35.670347 55.3738785,35.5073269 C52.9151251,34.9555331 48.6105454,32.804952 47.3917364,24.5209702 L47.3846913,24.5209702 Z M45.1161566,10.9666498 C45.7514912,10.4548351 46.5353329,10.1643341 47.3494656,10.1389591 C48.0852678,10.2315009 48.8000002,10.4491998 49.4630072,10.7827185 C49.2727884,11.4901465 48.7584933,13.3506822 47.3494656,18.7342092 C46.6449517,21.5214755 45.9827087,23.9550278 45.9404378,23.9833249 C45.8418059,24.2592218 44.425733,24.4997473 43.8268962,24.3370389 C42.889238,24.0622717 42.1174832,23.390651 41.7133546,22.4977261 C40.7199901,20.4744821 41.0088408,17.2839818 41.8613026,15.1687721 C42.5303836,13.4881557 43.6586584,12.0315163 45.1161566,10.9666498 L45.1161566,10.9666498 Z" id="Shape" fill="#00AA66"></path>
                <path d="M45.6445687,39.9988704 C42.9014846,39.9988704 40.0188033,38.3241709 38.3296777,35.4552186 C37.2179186,33.6261432 36.7838881,31.4751867 37.1012227,29.3672744 C37.366415,27.4407933 38.5063119,25.7367256 40.2002796,24.7343969 C40.866949,24.3553857 41.601555,24.1060542 42.3640355,24 L42.5036327,24.9265755 C41.8592244,25.014477 41.2382211,25.2242433 40.6749099,25.5442925 C39.2312861,26.4090133 38.2637211,27.8702407 38.0435035,29.5182719 C37.7501185,31.4198228 38.1427453,33.3623775 39.1533009,35.0090897 C41.2472582,38.5506672 45.3165154,40.0812326 48.2271161,38.4408508 C48.6208818,38.2169943 48.9823931,37.9423007 49.3020142,37.6240917 L50,38.2761263 C49.6233218,38.6540624 49.1959298,38.979655 48.7296659,39.2438829 C47.7871124,39.7589449 46.7226819,40.0194332 45.6445687,39.9988704 L45.6445687,39.9988704 Z" id="Path" fill="#00AA66"></path>
                <rect id="Rectangle" fill="#0680C4" opacity="0.2" x="1" y="27" width="4" height="30"></rect>
                <path d="M22.0077324,68.2118617 L19.186512,76.6094892 L25.3003467,76.6094892 L30,85 L6.03033962,85 L6.03033962,82.2031631 C6.03033962,82.2031631 11.6584959,63.1163522 11.6727805,63.0878857 C11.9013351,62.2765895 7.9373418,59.9281004 7.30881674,59.4868692 C5.10897902,57.9639096 3.20197684,56.1847513 2.37346653,53.5800634 C1.4949599,50.8188096 2.16633895,47.5095751 4.38760366,45.6307839 C6.05431245,44.3290733 8.18623595,43.7703303 10.2800261,44.0864744 C14.5654243,44.6415718 17.629484,47.7230741 18.8508225,51.7297387 L21.9791631,61.6930255 L22.0077324,68.2118617 Z" id="Path" fill="#6CB245"></path>
                <path d="M31,86 L5.94755667,86 L5.94755667,82.5412163 L5.94755667,82.463252 L11.4728024,63.5249939 C11.3119408,63.2273117 10.5565908,62.5114569 7.97581143,60.8458541 C7.73102206,60.6828376 7.54917853,60.5694349 7.4442688,60.4914705 C3.89132597,57.9824348 2.87719859,55.8632211 2.38761985,54.3039333 C1.42245035,51.1995333 2.30369207,47.6840482 4.54176629,45.7987276 C6.29177601,44.3816332 8.54207983,43.7608587 10.7594162,44.0835111 C14.9558054,44.6363495 18.2849408,47.6273469 19.6627553,52.0996675 L19.6627553,52.0996675 C19.6627553,52.1918073 19.7326951,52.3193853 19.7956409,52.5320155 L22.7540953,62.142898 L22.7540953,68.8194844 L20.2152798,76.4954326 L25.7335316,76.4954326 L31,86 Z M7.12254563,84.8234465 L29.0276971,84.8234465 L25.0760973,77.6436354 L18.613658,77.6436354 L21.6070822,68.5997666 L21.6070822,62.2846514 C21.313335,61.3490788 18.7325557,52.9501881 18.5786881,52.4398758 L18.5786881,52.4398758 C17.3477472,48.4211661 14.3822989,45.7278509 10.6405186,45.2388016 C8.74936416,44.946723 6.82317984,45.4597288 5.31809829,46.6563359 C3.36979727,48.5199212 2.66576931,51.3599302 3.51365095,53.9353744 C4.33194684,56.5578129 6.31124373,58.1879773 8.12268505,59.5133718 L8.61925777,59.8394047 C11.9204172,61.9657062 12.8576108,62.8941911 12.6198154,63.737624 C12.6198154,63.737624 7.5631665,81.1662081 7.12254563,82.6971451 L7.12254563,84.8234465 Z" id="Shape" fill="#00AA66"></path>
                <polygon id="Path" fill="#C0D731" points="12.25171 64.1412602 26 62 25.5554036 69 11 68.2601626"></polygon>
                <path d="M12.4545455,79.9988219 C10.8318182,79.9988219 8.36363636,79.6918106 7,78.0262744 L7.83181818,77.1589676 C9.26363636,78.9012566 12.7,78.8091532 13.9068182,78.6326217 C17.0772727,78.1874553 17.8954545,76.0921034 17.9295455,76 L19,76.491218 C18.9590909,76.6140226 17.9363636,79.3694487 14.0704545,79.9143938 C13.5337505,79.9781163 12.9941855,80.0063075 12.4545455,79.9988219 Z" id="Path" fill="#00AA66"></path>
                <path d="M26.4394825,69 L10,68.2266895 L11.6460768,63.2172797 L27,61 L26.4394825,69 Z M11.5822204,67.1659538 L25.3397329,67.8092387 L25.7157763,62.3344739 L12.5400668,64.2369547 L11.5822204,67.1659538 Z" id="Shape" fill="#00AA66"></path>
                <circle id="Oval" fill="#C0D731" cx="7" cy="31" r="1"></circle>
                <circle id="Oval" fill="#C0D731" cx="7" cy="37" r="1"></circle>
                <circle id="Oval" fill="#C0D731" cx="7" cy="42" r="1"></circle>
                <circle id="Oval" fill="#00AA66" cx="16" cy="35" r="3"></circle>
                <circle id="Oval" fill="#00AA66" cx="9" cy="51" r="3"></circle>
                <path d="M115.477279,57 L145,57 L145,26.4021067 L145,26.4021067 C114.596639,24.2079483 113.886446,30.5780857 115.477279,55.8250635 L115.477279,57 Z" id="Path" fill="#F79722"></path>
                <path d="M146,58 L116,58 L116,40.1576233 C116,32.8908686 121.922606,27 129.228512,27 L146,27 L146,58 Z M116.950384,57.0547085 L145.049616,57.0547085 L145.049616,27.9452915 L129.228512,27.9452915 C122.447489,27.9452915 116.950384,33.4129387 116.950384,40.1576233 L116.950384,57.0547085 Z" id="Shape" fill="#E2831B"></path>
                <path d="M117.185755,39.1388232 L117.569111,38.50404 C119.586129,35.1034686 122.323821,32.1982561 125.584727,29.997945 L125.584727,29.997945 C126.823844,29.1604359 128.33191,28.8325278 129.801639,29.0810359 L129.801639,29.0810359 C130.562937,29.2101499 131.292105,29.4880434 131.94843,29.8992009 L132.241174,30.1249016 C134.230115,31.3826469 135.288066,33.7179006 134.931633,36.0636512 L134.931633,36.0636512 C134.582464,38.3513666 133.082958,40.2908248 130.972616,41.1842358 L119.931975,45.8675253 C118.126719,46.6363183 115.43626,43.8080064 115.43626,43.8080064 L115.43626,43.8080064 C113.797373,43.806224 112.416537,42.569231 112.216073,40.9232694 L112,39.1599827 L117.185755,39.1388232 Z" id="Path" fill="#F79722"></path>
                <path d="M119.763579,45.999752 C119.074096,45.999752 117.901975,45.6977902 115.771472,44.2814457 C114.773172,43.6187847 113.811005,42.8987151 112.889433,42.1245757 L112.737747,41.9951635 L112,38.3141055 L117.515864,38.3141055 L117.722709,37.9546272 C119.758531,34.4267313 122.512345,31.4079416 125.78966,29.1114604 C127.869043,27.6695658 130.56457,27.6274045 132.684491,29.0036169 L133.001653,29.2121144 C135.164351,30.6193566 136.314348,33.2354415 135.925061,35.8624633 C135.540728,38.3937877 133.93309,40.5401808 131.670951,41.5422208 L131.670951,41.5422208 L120.466851,45.8559607 C120.244738,45.954946 120.005093,46.0039439 119.763579,45.999752 Z M113.771971,41.3337234 C116.757433,43.8356925 119.32231,45.0579188 120.018688,44.755957 L120.018688,44.755957 L131.229681,40.4422172 C133.120245,39.6012476 134.463884,37.8064574 134.787414,35.6899137 C135.103299,33.534693 134.160243,31.3899303 132.388013,30.2330328 L132.091535,30.0461041 C131.78573,29.8405283 131.459844,29.6694148 131.119364,29.5356449 C129.54744,28.9286212 127.791882,29.1424144 126.396405,30.1108102 C123.24401,32.3095071 120.595529,35.20622 118.639721,38.5944986 L118.09503,39.5363318 L113.378966,39.5363318 L113.771971,41.3337234 Z" id="Shape" fill="#E2831B"></path>
                <path d="M122,39.8429201 L121.018143,37.3802424 L106.90217,29 L102,35.4243766 L117.86624,46.4814426 C118.492697,46.9794094 119.325755,47.1303428 120.086248,46.8836641 C120.846742,46.6369853 121.434053,46.0253318 121.65137,45.2536729 L121.65137,45.2536729 C121.65137,45.2536729 117.0836,43.2763925 122,39.8429201 Z" id="Path" fill="#F79722"></path>
                <path d="M119.020127,47 C118.361659,46.9975779 117.722541,46.7786418 117.202617,46.3773932 L101,35.1844624 L106.565247,28 L120.161355,36.1078792 L120.295203,36.3247423 C121.317255,37.8884046 121.317255,39.9028325 120.295203,41.4664948 C120.011632,41.8292043 119.910449,42.300682 120.020463,42.7466863 C120.295203,43.6281296 121.513922,44.1458027 121.528011,44.1458027 L122,44.3416789 L121.859108,44.8383652 C121.590577,45.7818139 120.862763,46.5282152 119.921838,46.8251105 C119.63259,46.9308097 119.328169,46.989853 119.020127,47 Z M102.676619,34.9116348 L117.900034,45.4050074 L117.900034,45.4050074 C118.364231,45.7787762 118.988118,45.8921397 119.555518,45.7058174 C119.970728,45.5756156 120.323881,45.2995362 120.548809,44.9293078 C119.788888,44.5145737 119.20214,43.8451302 118.893324,43.0405007 C118.675236,42.2693727 118.825869,41.4415005 119.301912,40.794919 C120.065257,39.6168006 120.065257,38.1044807 119.301912,36.9263623 L106.847031,29.5180412 L102.676619,34.9116348 Z" id="Shape" fill="#E2831B"></path>
                <path d="M114,5.38055872 L118.634413,0 L145,0 L145,24.3514823 L138.515978,24.4655074 L138.315084,24.7790764 L116.514637,25 L115.898101,22.8620296 L117.124246,20.3463512 C113.44581,19.0706956 114.671955,15.8779932 114.671955,15.8779932 C115.898101,12.6852908 118.398883,14.6023375 118.398883,14.6023375 L118.398883,8.73004561 L118.807598,7.8677309 L114,7.8677309 L114,5.38055872 Z" id="Path" fill="#F79722"></path>
                <rect id="Rectangle" fill="#E2831B" x="141" y="0" width="4" height="24"></rect>
                <path d="M130.525866,18.0162055 C130.235438,18.0162055 130,18.2356255 130,18.5062938 C130,18.7769621 130.235438,18.9963822 130.525866,18.9963822 C132.101304,19.0587482 133.586571,18.3109761 134.394245,17.0488088 C135.201918,15.7866416 135.201918,14.2133584 134.394245,12.9511912 C133.586571,11.6890239 132.101304,10.9412518 130.525866,11.0036178 C130.235438,11.0036178 130,11.2230379 130,11.4937062 C130,11.7643745 130.235438,11.9837945 130.525866,11.9837945 C132.251833,12.0624473 133.607875,13.389537 133.607875,15 C133.607875,16.610463 132.251833,17.9375527 130.525866,18.0162055 L130.525866,18.0162055 Z" id="Path" fill="#E2831B"></path>
                <path d="M144.9653,0 L117.899588,0 L113,5.53250346 L113,8.66528354 L117.615051,8.66528354 L117.615051,14.2461964 C117.041476,14.0649078 116.434634,14.0129398 115.83843,14.0940526 C114.927222,14.4156362 114.223836,15.1499371 113.94383,16.0719225 C113.62407,16.9720334 113.653776,17.9587834 114.027109,18.8381743 C114.46192,19.7129748 115.209599,20.3938925 116.122967,20.746888 L115.179137,22.3720609 C115.110612,22.4893749 115.095469,22.6302185 115.137497,22.7593361 L115.748211,24.5919779 C115.76379,24.6995763 115.825648,24.7950685 115.917632,24.8535196 C116.009616,24.9119707 116.122594,24.9275778 116.227066,24.8962656 L125.540447,24.8962656 L125.540447,25 L126.435697,24.8962656 L127.900022,24.8962656 L145,24.6058091 L144.9653,0 Z M122.993494,24.0456432 L116.511603,24.0456432 L116.074387,22.7316736 L117.184776,20.8229599 C117.220876,20.7688291 117.244571,20.7074397 117.254175,20.6431535 C117.280258,20.4193193 117.147907,20.2071518 116.934938,20.131397 C116.046753,19.9093739 115.292005,19.3277455 114.85296,18.526971 C114.569745,17.8681317 114.547428,17.1268547 114.790501,16.4522822 C114.968533,15.8103239 115.434976,15.2867748 116.053568,15.0345781 C116.664649,14.9315688 117.29171,15.0759601 117.795489,15.4356846 C117.994581,15.5793481 118.270495,15.5494624 118.433962,15.3665284 C118.510443,15.2753918 118.552219,15.1602969 118.551941,15.0414938 L118.551941,9.50899032 L123.166992,15.3665284 L123.166992,15.3665284 L123.083713,18.1881051 C123.076797,18.3671423 123.174085,18.5341073 123.33355,18.6168741 L128.0527,21.0926694 L126.095641,24.0179806 L122.993494,24.0456432 Z M124.013663,17.9806362 L124.103882,15.1659751 L128.135979,11.1479945 L128.170679,11.0995851 L130.669052,8.70668868 L131.265886,8.70668868 C132.42362,8.69941739 133.536867,9.15066871 134.360714,9.96125628 C135.184562,10.7718439 135.65152,11.875365 135.658859,13.0290456 L135.658859,16.0373444 C135.658859,18.4397449 133.704487,20.3872752 131.293646,20.3872752 L128.635654,20.3872752 C128.601469,20.3580444 128.564245,20.3325419 128.524615,20.3112033 L124.013663,17.9806362 Z M144.02147,23.7621024 L127.303188,24.0387275 L129.093689,21.3554633 L131.369985,21.3554633 C132.778596,21.3573018 134.130044,20.8005065 135.126083,19.8079546 C136.122122,18.8154028 136.680873,17.468686 136.679028,16.0650069 L136.679028,13.0290456 C136.680873,11.6253666 136.122122,10.2786498 135.126083,9.28609795 C134.130044,8.2935461 132.778596,7.73675073 131.369985,7.73858921 L114.020169,7.73858921 L114.020169,5.94744122 L118.357623,1.04426003 L144.03535,1.04426003 L144.02147,23.7621024 Z" id="Shape" fill="#E2831B"></path>
                <circle id="Oval" fill="#ECEC89" cx="139" cy="10" r="1"></circle>
                <circle id="Oval" fill="#ECEC89" cx="139" cy="16" r="1"></circle>
                <circle id="Oval" fill="#ECEC89" cx="139" cy="21" r="1"></circle>
                <path d="M94.7153169,10.8603783 L94.6662827,10.8603783 C92.5664062,9.85165577 90.1553012,9.72463536 87.9626076,10.5072193 C84.3901161,11.6938337 80.8806686,13.8127882 79.5077111,17.3443789 C73.1752949,33.5896962 88.8382182,36.4149688 88.8382182,36.4149688 C88.8382182,36.4149688 89.9800145,39.6357795 95.7730546,38.3008382 C96.1221165,38.6653878 96.5178865,38.9813133 96.9498753,39.2402414 C100.116083,41.0907949 104.494137,39.4450736 106.72169,35.5603238 C108.949244,31.675574 108.192716,27.0350638 105.019503,25.1845103 C104.401989,24.8234912 103.722181,24.5838181 103.016106,24.4781921 C102.932047,24.2592335 103.058135,24.0897172 102.946057,23.8636954 C106.140285,20.4380524 104.347034,14.7875072 102.245568,12.2588883 C100.417506,9.98994472 97.2251356,9.39706118 94.7153169,10.8603783 Z" id="Path" fill="#F79722"></path>
                <path d="M88.8614617,15.7722032 C87.870145,14.5755256 86.2710353,14.0670148 84.7698397,14.4710831 C85.0117791,14.1795753 85.2608343,13.8951775 85.5241213,13.6249995 L85.5241213,13.6249995 C85.8928459,13.2815288 85.9244667,12.7084794 85.5957674,12.3265888 C85.2670682,11.9446983 84.6952704,11.8901573 84.3001926,12.2030103 C82.6130441,13.3106141 81.2969,14.8980843 80.5216687,16.7604857 C74.1173907,33.1133619 90,36 90,36 L86.8120928,33.6466078 C84.7462484,32.1517876 83.1889982,30.0598099 82.3504458,27.6529232 L82.3504458,27.6529232 C81.4621275,25.1298258 81.4072564,22.3885512 82.1938968,19.8319825 C82.3439833,20.1806007 82.5428393,20.5061659 82.7845135,20.7989352 C83.5812292,21.7535214 84.7796421,22.2798582 86.0222318,22.2209244 C85.9823469,22.5751517 86.0904737,22.9301301 86.3210981,23.2020969 C86.5433564,23.4724083 86.8642307,23.6431177 87.2127621,23.6764742 C87.5612936,23.7098307 87.908766,23.6030859 88.1783387,23.3798456 C88.7389495,22.9127633 88.8183225,22.0816265 88.3562353,21.5170397 L88.2352656,21.4601601 L88.3633512,21.3606209 C90.04533,19.9548288 90.2683376,17.4528554 88.8614617,15.7722032 Z" id="Path" fill="#ECEC89"></path>
                <path d="M101.560177,10.0388693 C100.722166,9.38153818 99.6930628,9.01675308 98.629399,9 C98.2630518,9 96.2974581,9.38162544 95.6211248,10.0671378 C92.6608572,8.91749565 89.3666938,8.99375218 86.4624445,10.2791519 C82.9891221,11.7753747 80.2725976,14.6254055 78.9382364,18.1731449 C77.4966189,21.960102 77.724509,26.182812 79.5652538,29.7915194 C81.3007191,33.1856177 84.4094522,35.6654345 88.0969167,36.5971731 C89.0054333,36.8323451 89.9564304,36.8492937 90.8727013,36.6466431 C92.3859952,36.3099876 93.7968387,35.61448 94.9870623,34.6183746 C96.9667463,32.9717314 98.8618886,30.1166078 99.6791247,25.1908127 C100.537313,25.5545837 101.484236,25.6530169 102.398548,25.4734982 C102.716085,25.3842819 103.023139,25.2610768 103.314416,25.1060071 C103.258055,29.0636042 100.418864,33.5371025 97.41059,36.1095406 L98.171465,37 C101.602448,34.0600707 104.822076,28.7597173 104.448684,24.229682 C104.773326,23.871713 105.046071,23.4696457 105.258874,23.0353357 C106.456548,20.5971731 106.040885,17.0424028 105.153197,14.7667845 C104.421768,12.8836878 103.17659,11.2452073 101.560177,10.0388693 L101.560177,10.0388693 Z M96.4735866,10.6113074 L96.4735866,10.6113074 C96.4768552,10.646567 96.4768552,10.6820549 96.4735866,10.7173145 C96.4585086,10.6831838 96.4467132,10.6476871 96.4383609,10.6113074 L96.4735866,10.6113074 Z M90.5908958,35.5371025 C89.8535547,35.699958 89.0882563,35.6854276 88.3575868,35.4946996 C84.9912011,34.643159 82.152642,32.380153 80.5656635,29.2826855 C78.8743466,25.9683835 78.6643795,22.0898437 79.9879621,18.6113074 C81.2162431,15.3623094 83.7046985,12.7513439 86.8851529,11.3745583 C89.5998242,10.1750265 92.6860449,10.1443745 95.4238609,11.2897527 C95.7127116,12.3992933 96.649715,15.9611307 97.4669511,19.0636042 L98.2489615,22.0671378 L98.5730379,24.5477032 C97.3330935,32.8091873 93.0496492,34.9575972 90.5908958,35.5371025 Z M104.03302,15.2190813 C104.857302,17.3392226 105.174333,20.5194346 104.180968,22.540636 C103.77684,23.4326594 103.005085,24.1036021 102.067427,24.3780919 C101.503816,24.540636 100.087743,24.3003534 99.9891108,24.024735 C99.9891108,24.024735 99.340958,21.565371 98.580083,18.7809187 C97.1710553,13.4028269 96.6778956,11.5229682 96.4665414,10.8374558 C97.1295484,10.5042738 97.8442808,10.2867947 98.580083,10.1943463 C99.4054926,10.2024128 100.205255,10.4830793 100.855663,10.9929329 C102.284582,12.0673443 103.385213,13.5214825 104.03302,15.1908127 L104.03302,15.2190813 Z" id="Shape" fill="#E2831B"></path>
                <path d="M100.308886,40 C99.2400248,39.9980378 98.1902976,39.7219982 97.2640329,39.1993157 C96.7984684,38.9375389 96.3729289,38.612694 96,38.2343884 L96.6983607,37.5842601 C97.0142629,37.9029587 97.3738736,38.1770428 97.7668527,38.3986313 C100.692984,40.0615911 104.75046,38.5355004 106.845542,34.9769033 C107.852981,33.3335559 108.247862,31.3987748 107.96292,29.5021386 C107.740992,27.857666 106.77018,26.4004718 105.323116,25.5397776 C104.761482,25.2218059 104.142659,25.0127012 103.500394,24.9238666 L103.633083,24 C104.395973,24.1057442 105.130974,24.3543466 105.798001,24.7322498 C107.492879,25.7316481 108.633388,27.4307337 108.898723,29.3515825 C109.216228,31.4533321 108.781964,33.5980001 107.669608,35.421728 C105.937673,38.3301967 103.053444,40 100.308886,40 Z" id="Path" fill="#E2831B"></path>
                <rect id="Rectangle" fill="#E2831B" x="141" y="27" width="4" height="30"></rect>
                <path d="M123.991516,68.2118617 L126.812471,76.6094892 L120.706353,76.6094892 L116,85 L139.974547,85 L139.974547,82.2031631 L134.332637,63.0878857 C134.104104,62.2765895 138.060582,59.9281004 138.69619,59.4868692 C140.888679,57.9639096 142.795502,56.1989845 143.631076,53.5800634 C144.502358,50.8188096 143.831042,47.5095751 141.609987,45.6307839 C139.943435,44.3290733 137.811712,43.7703303 135.718118,44.0864744 C131.433124,44.6415718 128.376494,47.7230741 127.148129,51.7297387 L124.020082,61.6930255 L123.991516,68.2118617 Z" id="Path" fill="#F79722"></path>
                <path d="M140.072001,86 L115,86 L120.252514,76.468721 L125.778159,76.468721 L123.242946,68.8224384 L123.242946,62.1115676 L123.242946,62.0265302 L126.310414,52.1054963 C127.711084,47.6339446 131.02367,44.636375 135.225681,44.0836317 C137.448182,43.7607335 139.703773,44.3813291 141.458665,45.7985533 C143.692734,47.718982 144.58216,51.2338626 143.608694,54.3377289 C142.677248,57.3140391 140.415165,59.206122 138.552274,60.5242022 L138.013016,60.8785248 C135.442785,62.5509277 134.686423,63.259573 134.51134,63.5642904 C134.917534,64.981581 139.791867,81.7552148 140.008971,82.4992923 L140.008971,82.5772433 L140.072001,86 Z M116.960939,84.8236488 L138.895438,84.8236488 L138.895438,82.697713 C138.50325,81.3583734 133.40481,63.8052298 133.3838,63.7485382 C133.152689,62.9052503 134.084135,61.9981844 137.389717,59.8509892 C137.620828,59.7021737 137.802915,59.5887904 137.886955,59.5250123 C139.71483,58.2352779 141.689776,56.5699615 142.509168,53.947974 C143.364093,51.3700721 142.661712,48.5244454 140.709306,46.6560141 C139.200613,45.4684059 137.277744,44.9563835 135.386759,45.2387235 C131.646968,45.7276888 128.670544,48.4205408 127.43095,52.4385596 L127.43095,52.4385596 C127.339907,52.7645364 127.024756,53.792072 125.90422,57.3990765 L124.398499,62.2887289 L124.398499,68.6098448 L127.38893,77.6450722 L120.931839,77.6450722 L116.960939,84.8236488 Z" id="Shape" fill="#E2831B"></path>
                <polygon id="Path" fill="#ECEC89" points="133.74829 64.1412602 120 62 120.451436 69 135 68.2601626"></polygon>
                <path d="M132.536141,80 C131.999887,80.0009545 131.464019,79.9676315 130.931133,79.9001717 C127.065452,79.3550689 126.040979,76.5988453 126,76.4760052 L127.051793,76 C127.085942,76.09213 127.905521,78.1880884 131.074559,78.6333836 C131.893546,78.7313965 132.718693,78.746813 133.540125,78.6794486 C134.714855,78.5719636 136.272055,78.2264759 137.166762,77.143948 L138,78.0268609 C136.634035,79.6928791 134.161639,80 132.536141,80 Z" id="Path" fill="#E2831B"></path>
                <path d="M119.553653,69 L119,61 L134.360334,63.2172797 L136,68.2266895 L119.553653,69 Z M120.263466,62.3344739 L120.639666,67.8092387 L134.402923,67.1659538 L133.444676,64.2369547 L120.263466,62.3344739 Z" id="Shape" fill="#E2831B"></path>
                <circle id="Oval" fill="#ECEC89" cx="139" cy="31" r="1"></circle>
                <circle id="Oval" fill="#ECEC89" cx="139" cy="37" r="1"></circle>
                <circle id="Oval" fill="#ECEC89" cx="139" cy="42" r="1"></circle>
                <circle id="Oval" fill="#E2831B" cx="130" cy="35" r="3"></circle>
                <circle id="Oval" fill="#E2831B" cx="136" cy="51" r="3"></circle>
            </g>
        </g>
    </g>
</svg>