<?xml version="1.0" encoding="utf-8"?>
<!-- Generator: Adobe Illustrator 23.1.1, SVG Export Plug-In . SVG Version: 6.00 Build 0)  -->
<svg version="1.1" id="Layer_1" xmlns="http://www.w3.org/2000/svg" xmlns:xlink="http://www.w3.org/1999/xlink" x="0px" y="0px"
	 viewBox="0 0 554.1 300" style="enable-background:new 0 0 554.1 300;" xml:space="preserve">
<style type="text/css">
	.st0{fill:#EF6572;}
	.st1{fill:#038646;}
	.st2{fill:#D2AA7F;}
	.st3{fill:#ED2224;}
	.st4{fill:#234095;}
	.st5{fill:#0FB2E8;}
	.st6{fill:#FDC010;}
</style>
<title>Asset 1</title>
<g>
	<g id="Layer_1-2">
		<polygon class="st0" points="60.7,115.6 70.1,116.9 77.1,136.1 		"/>
		<polygon class="st1" points="21.6,241.4 0,213.5 60.7,115.6 77.1,136.1 85.4,163.4 		"/>
		<polygon class="st2" points="15.2,170.8 86.1,159.3 85.8,165.4 		"/>
		<polygon class="st0" points="422.5,42.6 451.9,76.8 465.3,132.1 455.1,128.2 439.4,113.4 		"/>
		<polygon class="st1" points="394.9,126.7 439.4,113.4 457.8,128.8 		"/>
		<polygon class="st3" points="307.2,78.6 422.5,42.6 439.4,113.4 394.9,126.7 377.3,123.5 378.2,114.4 315.6,108.5 		"/>
		<polyline class="st4" points="552.2,153.5 531.5,121.4 512.1,148.6 547.1,166.6 552.2,153.5 		"/>
		<polygon class="st5" points="140.8,78.3 294.6,32.9 316.3,109.9 275,104.8 233.8,109.3 233.1,260.8 197.3,262.5 		"/>
		<polygon class="st3" points="233.8,109.3 275,104.8 276.5,267.1 233.1,260.8 		"/>
		<polygon class="st0" points="275,104.8 377.9,114.7 377.3,123.5 328.6,121.9 342,262.5 276.5,267.1 		"/>
		<polygon class="st2" points="328.6,121.9 377.3,123.5 394.9,126.7 457.1,128.2 468,132.8 464.6,135.5 512.1,148.6 533,146.4 
			554.1,152.3 479.8,165.8 		"/>
		<polygon class="st6" points="328.6,121.9 342,262.5 458.4,266.1 479.8,165.8 		"/>
		<polygon class="st1" points="479.8,165.8 554.1,152.3 529.3,256 458.4,266.1 		"/>
		<polygon class="st5" points="464.6,135.5 488.7,101.5 531.5,121.4 512.1,148.6 		"/>
		<polygon class="st6" points="114,251.7 22.7,252.6 15.2,170.8 86.5,165.4 		"/>
		<polygon class="st4" points="114,251.7 64.6,98.6 140.8,78.3 197.3,262.5 		"/>
	</g>
</g>
</svg>
