<?xml version="1.0" encoding="UTF-8"?>
<svg width="24px" height="19px" viewBox="0 0 24 19" version="1.1" xmlns="http://www.w3.org/2000/svg" xmlns:xlink="http://www.w3.org/1999/xlink">
    <!-- Generator: Sketch 60.1 (88133) - https://sketch.com -->
    <title>icon-twitter</title>
    <desc>Created with Sketch.</desc>
    <g id="Page-1" stroke="none" stroke-width="1" fill="none" fill-rule="evenodd">
        <g id="Video-animation-Copy-2" transform="translate(-446.000000, -382.000000)" fill="#FFFFFF" fill-rule="nonzero">
            <g id="Group-6" transform="translate(168.000000, 82.000000)">
                <g id="Group-2" transform="translate(199.000000, 284.000000)">
                    <g id="Group-3">
                        <g id="icon-twitter" transform="translate(79.166667, 16.666667)">
                            <path d="M20.6111111,2.93032787 C21.6222222,2.32923497 22.3222222,1.42759563 22.7111111,0.37568306 C21.6222222,0.901639344 20.6111111,1.2773224 19.6,1.42759563 C18.7444444,0.525956284 17.5777778,0 16.1777778,0 C14.8555556,0 13.6888889,0.450819672 12.7555556,1.35245902 C11.8222222,2.25409836 11.3555556,3.38114754 11.3555556,4.65846995 C11.3555556,5.03415301 11.4333333,5.33469945 11.5111111,5.6352459 C7.54444444,5.56010929 4.2,3.90710383 1.63333333,0.826502732 C1.16666667,1.57786885 0.933333333,2.40437158 0.933333333,3.1557377 C0.933333333,4.80874317 1.71111111,6.08606557 3.11111111,7.06284153 C2.25555556,6.98770492 1.55555556,6.76229508 0.933333333,6.46174863 C0.933333333,7.58879781 1.32222222,8.56557377 2.02222222,9.46721311 C2.72222222,10.2937158 3.65555556,10.8196721 4.74444444,11.045082 C4.35555556,11.1202186 3.96666667,11.1953552 3.5,11.1953552 C3.11111111,11.1953552 2.8,11.1953552 2.64444444,11.1202186 C2.95555556,12.0218579 3.5,12.8483607 4.27777778,13.3743169 C5.13333333,13.9754098 6.06666667,14.2759563 7.07777778,14.3510929 C5.36666667,15.6284153 3.42222222,16.3046448 1.16666667,16.3046448 C0.622222222,16.3046448 0.233333333,16.3046448 0,16.2295082 C2.17777778,17.6571038 4.66666667,18.3333333 7.38888889,18.3333333 C10.1111111,18.3333333 12.6,17.6571038 14.7,16.3046448 C16.8777778,14.9521858 18.4333333,13.2240437 19.4444444,11.2704918 C20.4555556,9.31693989 20.9222222,7.28825137 20.9222222,5.18442623 L20.9222222,4.58333333 C21.9333333,3.90710383 22.7111111,3.08060109 23.3333333,2.17896175 C22.4777778,2.55464481 21.5444444,2.78005464 20.6111111,2.93032787 L20.6111111,2.93032787 Z" id="Path"></path>
                        </g>
                    </g>
                </g>
            </g>
        </g>
    </g>
</svg>