<?xml version="1.0" encoding="UTF-8"?>
<svg width="253px" height="72px" viewBox="0 0 253 72" version="1.1" xmlns="http://www.w3.org/2000/svg" xmlns:xlink="http://www.w3.org/1999/xlink">
    <!-- Generator: Sketch 60.1 (88133) - https://sketch.com -->
    <title>Group</title>
    <desc>Created with Sketch.</desc>
    <g id="Page-1" stroke="none" stroke-width="1" fill="none" fill-rule="evenodd">
        <g id="Artboard" transform="translate(-302.000000, -236.000000)">
            <g id="Group" transform="translate(302.000000, 238.000000)">
                <path d="M138,62 C149.333333,44 160.666667,26 172,8" id="Path-2" stroke="#7C7C7C" stroke-width="2"></path>
                <g id="icon-hand" transform="translate(202.000000, 0.000000)">
                    <ellipse id="Oval" stroke="#FBD00A" stroke-width="4" cx="19.5" cy="11" rx="10.5" ry="11"></ellipse>
                    <path d="M50.9453065,34.444695 C50.9208423,31.4296939 48.1906279,28.8267431 45.2989493,29.0679431 C44.3203778,29.1483432 43.3418064,29.6759683 42.3632349,30.0126435 C41.8833117,28.186376 40.5863838,26.703317 38.8697349,26.0177671 C36.912592,25.2338668 35.2392348,25.826817 33.6686276,27.1081925 C33.0446533,25.5136092 31.7908084,24.2660847 30.2191633,23.6761163 C28.5604847,23.0680911 27.0436989,23.4901912 25.5366989,24.5404166 L25.5366989,23.5806412 C25.5366989,20.3495651 25.5366989,17.118489 25.5366989,13.8874129 C25.5379223,13.440521 25.4969568,12.9945599 25.4143775,12.5557875 C24.8321275,9.5005864 21.7251631,7.39008567 18.9606988,8.15891094 C16.5289007,8.89307019 14.8503995,11.1738345 14.8262344,13.7768629 C14.8262344,22.4064658 14.8262344,31.0343938 14.8262344,39.6606468 L14.8262344,42.8414729 C13.4513415,41.5198974 12.2672701,40.328972 11.0146986,39.1933216 C8.13565897,36.7024964 3.9073736,36.7797724 1.11644844,39.3742217 C0.428954183,40.0297978 0.0270883664,40.9418027 0.00131974125,41.9049242 C-0.0244488839,42.8680457 0.328045395,43.8013386 0.979448437,44.4946984 C1.90909131,45.4996988 2.85341276,46.4393741 3.78305563,47.4192495 C9.18966288,53.0774014 14.5473416,58.7757534 20.0028774,64.3937053 C24.059056,68.5845567 28.9861633,70.4940574 34.7499491,69.8910572 C43.4739135,68.9765069 50.6810923,61.0822292 50.896378,52.017126 C51.0627351,46.168024 50.9893423,40.298822 50.9453065,34.444695 Z" id="Path" fill="#F79722" fill-rule="nonzero"></path>
                    <path d="M18.5227787,9 C16.1548321,9.73493675 14.5260821,11.9821067 14.506265,14.5415432 C14.506265,23.0537766 14.506265,31.5643577 14.506265,40.0732866 L14.506265,43.2108509 C13.1610441,41.90725 12.0025264,40.7325221 10.7769871,39.6123175 C7.96008087,37.1553695 3.8230474,37.2315945 1.09235403,39.7907572 C0.419696794,40.4374169 0.0265037643,41.3370178 0.00129125952,42.28704 C-0.0239212452,43.2370623 0.320965749,44.1576617 0.958310666,44.8415913 C1.86789064,45.8329228 2.7918324,46.7598178 3.70141237,47.726366 C8.99133801,53.3075625 14.233391,58.9284122 19.5711893,64.4699555 C23.5398303,68.6038079 28.3606042,70.4873378 34,69.8925389 L30.8260446,66.5517517 C26.5845296,62.0907598 22.8361026,56.5839132 20.6531107,50.5764441 C18.2594792,44.0187861 18.838738,38.1848001 19.0302286,31.4338324 C19.2600172,24.0236293 18.6951201,16.4498564 18.5227787,9 Z" id="Path" fill="#E2831B" fill-rule="nonzero" opacity="0.45"></path>
                    <path d="M14.8437136,42.8414729 L14.8437136,39.6606468 C14.8437136,31.0310438 14.8437136,22.4031158 14.8437136,13.7768629 C14.8639723,11.1821359 16.5290136,8.90398125 18.949722,8.15891094 C21.7147931,7.39008567 24.8224395,9.5005864 25.4048173,12.5557875 C25.4874148,12.9945599 25.5283892,13.440521 25.5271656,13.8874129 C25.5271656,17.118489 25.5271656,20.3495651 25.5271656,23.5806412 L25.5271656,24.5253416 C27.0344965,23.4751162 28.5516152,23.0530161 30.2106579,23.6610413 C31.782648,24.2510097 33.0367682,25.4985342 33.6608794,27.0931175 C35.2318314,25.811742 36.9300256,25.2187918 38.8631284,26.0026921 C40.5801541,26.688242 41.8773667,28.171301 42.3573954,29.9975685 C43.3753331,29.6608933 44.3149679,29.1332682 45.2937541,29.0528681 C48.1860675,28.811668 50.9168812,31.4196439 50.9413509,34.42962 C50.9853962,40.298822 51.0588052,46.168024 50.9168812,52.017126 C50.6966543,61.0621292 43.4878935,68.9765069 34.7669079,69.8910572 C29.0018568,70.4940574 24.073668,68.5845567 20.016599,64.3937053 C14.603911,58.7908284 9.2303744,53.0924764 3.82258032,47.4343245 C2.89273337,46.4544491 1.94820463,45.4996988 0.99878196,44.4946984 C0.339514079,43.8040519 -0.0203050184,42.8693858 0.000885687985,41.902563 C0.0220763943,40.9357403 0.422482264,40.0186412 1.11134238,39.3591467 C3.9028802,36.7646974 8.13209374,36.6874214 11.0117654,39.1782466 C12.2841875,40.313897 13.4685189,41.5198974 14.8437136,42.8414729 Z M17.1487552,29.4498433 C17.1487552,34.6959451 17.1487552,39.9420469 17.1487552,45.1881487 C17.1487552,45.8263239 17.0704523,46.3840991 16.4244534,46.6654992 C15.7784545,46.9468993 15.3624703,46.5850992 14.956274,46.162999 C13.1846709,44.4946984 11.4081738,42.7861979 9.6512525,41.0776973 C7.86341337,39.176133 4.93453982,39.056549 3.00529379,40.8063472 C1.91884104,41.7409975 1.90415925,42.0676226 2.90741517,43.117848 C9.2303744,49.7307503 15.5533336,56.3486775 21.8762929,62.9716298 C24.4728774,65.7482553 27.9949401,67.4155643 31.7375644,67.6398564 C36.094975,67.9909042 40.3977478,66.4615216 43.6112084,63.4194747 C46.824669,60.3774277 48.65808,56.0979451 48.6705667,51.6101009 C48.7341878,45.9469239 48.6705667,40.273697 48.6705667,34.605495 C48.6705667,32.7361944 47.5596443,31.464869 45.9299652,31.3794439 C44.0066502,31.2789439 42.807637,32.3140943 42.6265616,34.3140449 C42.523789,35.4245703 42.5335769,36.5451457 42.4993194,37.6657211 C42.4699558,38.5852964 42.0099262,39.1732216 41.2954123,39.1229716 C40.5808983,39.0727216 40.2089595,38.5702214 40.2089595,37.6456211 C40.2089595,35.6356204 40.2089595,33.6708447 40.2089595,31.680944 C40.2176287,31.1598867 40.1617155,30.6398131 40.0425659,30.1332435 C39.5626568,28.7352602 38.1874144,27.8804174 36.7585641,28.0919269 C35.3297138,28.3034364 34.2456364,29.5223269 34.1698483,31.0025688 C34.1355908,32.5100693 34.2041058,33.9874198 34.1258029,35.4748203 C34.0866398,35.9521482 33.8606036,36.3927565 33.4993797,36.6958958 C32.6869871,37.268746 31.7424584,36.5752957 31.7326705,35.4446703 C31.7326705,33.2336696 31.7326705,31.0226688 31.7326705,28.806643 C31.7907291,27.4343552 30.904601,26.2079301 29.6087043,25.867017 C27.5189957,25.3042168 25.786544,26.5855923 25.6935593,28.8217181 C25.639726,30.2839936 25.6935593,31.7512941 25.6935593,33.2185946 C25.6935593,34.0828949 25.2579994,34.555245 24.5532733,34.56027 C23.8485472,34.565295 23.4521388,34.1331449 23.4080934,33.3090446 C23.3493662,32.2738942 23.295533,31.2286939 23.290639,30.1885185 C23.290639,24.6961916 23.290639,19.1988397 23.290639,13.7065128 C23.290639,12.0683623 22.5516554,10.9226619 21.2792333,10.5055867 C19.0231309,9.7870115 17.1487552,11.244262 17.1487552,13.7165629 C17.1487552,18.9626647 17.1487552,24.2070915 17.1487552,29.4498433 Z" id="Shape" fill="#E2831B" fill-rule="nonzero"></path>
                    <circle id="Oval" fill="#FFE300" fill-rule="nonzero" opacity="0.15" cx="22" cy="53" r="5"></circle>
                    <circle id="Oval" fill="#FFE300" fill-rule="nonzero" opacity="0.15" cx="27.5" cy="61.5" r="1.5"></circle>
                </g>
                <g id="icon-move" fill-rule="nonzero">
                    <path d="M0,38.4974938 C0.531159719,37.3539531 1.43685514,37 2.67622782,37 C11.9374742,37 21.1919109,37 30.4531572,37 C32.3258357,37 32.9931903,37.680679 33,39.5729666 C33,48.8619662 33,58.1509657 33,67.4399652 C33,69.2777985 32.2781676,69.9857047 30.4054891,69.9857047 C21.1782914,69.9857047 11.9579034,69.9857047 2.73070574,69.9857047 C1.61072583,70.0997686 0.5333991,69.5236484 0.00680973999,68.5290516 L0,38.4974938 Z M20.2589765,43.2077925 L10.0784152,53.3771369 L20.2589765,63.5464813 L20.2589765,43.2077925 Z" id="Shape" fill="#FFE300"></path>
                    <path d="M54.5102083,32.9863861 L40.7222108,32.9863861 C38.6805527,32.9863861 38,32.3533416 38,30.352104 C38,21.1219059 38,11.8917079 38,2.6615099 C38,0.6875 38.6805527,0 40.7222108,0 L68.4002887,0 C70.2581976,0 71,0.714727723 71,2.55940594 C71,11.8576733 71,21.1604785 71,30.4678218 C71,32.3329208 70.3194473,33 68.4002887,33 L54.5102083,32.9863861 Z M64.813776,20.8564356 C61.3429573,17.3780941 57.8721386,13.9065594 54.6054857,10.6460396 L44.3971953,20.8564356 L64.813776,20.8564356 Z" id="Shape" fill="#6DB33F"></path>
                    <path d="M54.4761708,37 L68.3719827,37 C70.3191665,37 70.9931917,37.680974 71,39.6217499 C71,48.8557573 71,58.0897648 71,67.3237722 C71,69.3054065 70.3191665,70 68.3107077,70 C59.1103776,70 49.9145863,70 40.723334,70 C38.6808335,70 38,69.319026 38,67.276104 C38,58.1147338 38,48.9510937 38,39.7851837 C38,37.6333058 38.6195585,37.027239 40.7914174,37.0204292 L54.4761708,37 Z M44.1819682,49.8840281 L54.3944708,60.0986381 C57.7986383,56.6937681 61.2436559,53.2412299 64.6069734,49.8840281 L44.1819682,49.8840281 Z" id="Shape" fill="#F8971D"></path>
                    <path d="M75,53.5102167 L75,39.5133127 C75,37.701548 75.680974,37 77.5059843,37 L105.494016,37 C107.291787,37 108,37.6811146 108,39.5201238 L108,67.4117647 C108,69.2643963 107.271358,70 105.439538,70 C96.1419728,70 86.8466777,70 77.5536525,70 C75.7150227,70 75.0068097,69.2712074 75,67.4049536 L75,53.5102167 Z M87.938506,63.9721362 L98.2552621,53.6600619 L87.9180768,43.320743 L87.938506,63.9721362 Z" id="Shape" fill="#00A4E4"></path>
                    <path d="M49,33 L40.717727,33 C38.6794317,33 38,32.3666942 38,30.3646306 C38,21.1306232 38,11.8966158 38,2.66260834 C38,0.687783739 38.6794317,0 40.717727,0 L44.8282891,0 L41.4311303,21.791168 L49,33 Z" id="Path" fill="#00AB66"></path>
                    <path d="M61,37 L69.2839506,37 C71.3209877,37 72,37.6399835 72,39.641634 C72,48.8737363 72,58.1058387 72,67.337941 C72,69.3055498 71.3209877,69.9931917 69.2839506,70 L65.1691358,70 L68.5641975,48.2133278 L61,37 Z" id="Path" fill="#E2831B"></path>
                    <path d="M75,47 L75,38.717727 C75,36.6794317 75.6401156,36 77.6421791,36 L105.344201,36 C107.312216,36 108,36.7134033 108,38.717727 C108,40.0765905 108,41.435454 108,42.7943175 L86.208832,39.3971587 L75,47 Z" id="Path" fill="#0095D6"></path>
                    <path d="M33,58 C33,60.7584929 33,63.5192506 33,66.282273 C33,68.3205683 32.3666942,69 30.3646306,69 C21.1306232,69 11.8966158,69 2.66260834,69 C0.687783739,69 0,68.3205683 0,66.282273 L0,62.1649166 L21.791168,65.5620754 L33,58 Z" id="Path" fill="#FBD00A"></path>
                </g>
            </g>
        </g>
    </g>
</svg>