<?xml version="1.0" encoding="UTF-8"?>
<svg width="80px" height="99px" viewBox="0 0 80 99" version="1.1" xmlns="http://www.w3.org/2000/svg" xmlns:xlink="http://www.w3.org/1999/xlink">
    <!-- Generator: Sketch 60.1 (88133) - https://sketch.com -->
    <title>icon-puzzle</title>
    <desc>Created with Sketch.</desc>
    <g id="Page-1" stroke="none" stroke-width="1" fill="none" fill-rule="evenodd">
        <g id="Artboard" transform="translate(-432.000000, -2515.000000)" fill-rule="nonzero">
            <g id="icon-puzzle" transform="translate(432.000000, 2515.000000)">
                <path d="M47.1989797,4.10008278 L47.2641985,4.16579458 C51.1338502,8.19611849 55.1194465,12.1169227 59.0543171,16.0961374 L59.2354805,16.2786702 C60.1328133,17.2128365 60.1328133,18.6958059 59.2354805,19.6299722 L59.2354805,19.6299722 C57.6339955,21.2654659 56.0035242,22.8790558 54.3947926,24.5218508 C53.5614407,25.3761043 52.9454849,26.3617813 53.431003,27.6176069 C53.8236555,28.9037329 54.9942571,29.78832 56.3296185,29.8080003 C57.646311,29.794838 58.9110015,30.3251158 59.8296967,31.2755639 C60.6565719,32.2169046 61.0742268,33.4530389 60.9891429,34.7071803 C60.9929953,35.8405823 60.5488287,36.9288939 59.7547608,37.7317037 C58.9606929,38.5345135 57.8820704,38.9857554 56.7571643,38.9857488 C55.5150457,39.0834468 54.2858301,38.6758703 53.3440445,37.8540455 C52.3594371,36.899657 51.8067033,35.5799614 51.8150248,34.2033898 C51.8094365,32.8531784 50.9259776,31.6663297 49.6410632,31.2828652 C48.3801655,30.8374852 47.4671016,31.4873019 46.5830239,32.334254 C44.9815388,33.9697478 43.4525191,35.5614337 41.8510341,37.116613 C41.5466794,37.4159668 41.2278317,37.7080193 40.9017375,38.0000717 C40.4865031,38.393417 39.858525,38.4506635 39.3799644,38.1387966 C39.3356157,38.1062219 39.294374,38.069557 39.2567732,38.029277 C37.4161523,36.2185517 35.6335038,34.3786212 33.7856364,32.5532934 C33.1914203,31.9618872 32.771121,31.3339744 33.1914203,30.3629 C33.7783899,29.5816596 34.640728,29.4356334 35.6117642,29.3188124 C38.8219809,28.9172403 40.8872444,26.0770302 40.6843413,22.4920863 C40.5466571,19.6810814 37.8654378,17.2862512 34.9450826,17.2059368 C31.8299331,17.0185018 29.0721531,19.2187701 28.5391424,22.3168548 L28.5391424,22.3168548 C28.4113182,23.0839499 27.8893211,23.7252047 27.1677112,24.0016092 C26.4461013,24.2780138 25.633133,24.1481025 25.0318176,23.6602961 C23.5027979,22.34606 22.1332021,20.7397715 20.6476617,19.2357014 C19.7841128,18.3472517 19.7841128,16.9261766 20.6476617,16.037727 L20.6476617,16.037727 C24.6115184,12.1169227 28.6333474,8.19611849 32.5029991,4.16579458 L32.582711,4.10008278 C34.5052403,2.11762794 37.1399361,1 39.8908453,1 C42.6417546,1 45.2764504,2.11762794 47.1989797,4.10008278 Z" id="Path" fill="#6DB33F"></path>
                <path d="M4.09908157,32.6799637 L4.16468059,32.6218448 C8.18808706,28.742412 12.1021618,24.7467415 16.0672581,20.801925 L16.0672581,20.801925 C16.9701137,19.9128204 18.422487,19.9128204 19.3253427,20.801925 L24.2161139,25.6112593 C24.9169849,26.3277819 25.8875944,26.7179146 26.8910961,26.6864579 L26.8910961,26.6864579 C28.618537,26.5920148 29.4567466,25.778351 29.7264315,24.0493154 C29.7958116,23.4155848 29.9177075,22.7886664 30.0908705,22.1749827 C30.6096887,20.3926554 32.2038406,19.1331817 34.0632555,19.0365651 C35.8324658,18.8038282 37.5590743,19.6976729 38.385502,21.2741406 L38.4219459,21.354054 C38.6785795,21.7828546 38.8516825,22.2560931 38.9321604,22.7489063 C39.1495234,24.0372647 38.8397342,25.3587058 38.0720844,26.4176583 C37.3640676,27.3222874 36.3519669,27.9414866 35.2221715,28.1612236 L33.0355375,28.6261743 C32.8645324,28.7325626 32.7035243,28.8541381 32.5544781,28.9894171 C30.8124597,30.7402473 30.7614382,32.0043321 32.4670127,33.769692 C34.0049453,35.3752251 35.6157656,36.9081096 37.1755645,38.491848 C37.4598269,38.7751774 37.7295118,39.0730365 37.9991966,39.3781604 C38.4395641,39.8626075 38.4395641,40.6009544 37.9991966,41.0854014 L37.9991966,41.0854014 C36.3956651,42.7199939 34.7921335,44.3691161 33.1302917,45.9455897 C32.4815903,46.5485727 32.058841,46.8246373 31.5267601,46.8173724 C30.6480034,46.7844856 29.930331,46.1064897 29.8503408,45.2336339 C29.8503408,45.0084234 29.7993193,44.775948 29.7555866,44.5434726 C29.2960135,41.7783153 27.0995076,39.6242357 24.3181569,39.2110687 C21.4999368,38.8725981 18.806482,40.468452 17.758255,43.0977664 C16.2640551,46.5921619 18.7203739,50.8130429 22.6636038,51.510469 C23.0499092,51.5758527 23.4362145,51.612177 23.7933647,51.6485013 C24.3666923,51.7013943 24.8550688,52.0856891 25.0397461,52.6292568 C25.1878145,53.1643511 25.0440165,53.7376552 24.6607295,54.1403467 C23.1367977,55.9569654 21.493186,57.6704189 19.7408031,59.2693346 C18.7226169,60.2435551 17.1145994,60.2435551 16.0964132,59.2693346 L16.0964132,59.2693346 C12.1021618,55.2881939 8.18808706,51.2925234 4.16468059,47.4130905 L4.09908157,47.3477068 C2.1173297,45.4188037 1,42.7746808 1,40.0138353 C1,37.2529897 2.1173297,34.6088668 4.09908157,32.6799637 Z" id="Path" fill="#FFE300"></path>
                <path d="M79.8990633,41.9663314 C79.8119868,42.4478484 79.6692256,42.917476 79.473687,43.3656495 C79.0649334,44.3461678 78.5133529,45.2600548 77.8370697,46.0772814 C73.0714133,50.9712695 68.2264494,55.7927541 63.4175344,60.6359897 L63.4175344,60.6359897 C62.9220309,61.1213368 62.1322253,61.1213368 61.6367218,60.6359897 L53.5257332,52.4938436 C52.9279376,51.8905991 52.115953,51.5514547 51.2690759,51.5512977 L51.2690759,51.5512977 C50.0360368,51.5365632 48.9083119,52.248194 48.3851688,53.3711363 C48.2073074,53.7889739 48.0930719,54.2313785 48.0463097,54.6834501 C47.6209334,58.4898853 44.499104,60.1792175 41.1249328,58.4971356 L41.1249328,58.4971356 C40.6465257,58.2695394 40.2380388,57.9163634 39.9425309,57.4748359 C39.2586933,56.5072878 38.9299701,55.3310607 39.0124709,54.146924 C39.0700605,52.1467133 40.5144631,50.4611694 42.4731593,50.1084775 C43.1941361,49.9707208 43.8574347,49.8257138 44.5495724,49.6589557 C45.5419551,49.4235646 46.3320471,48.6701288 46.6184556,47.6860581 C46.904864,46.7019874 46.6434171,45.6390517 45.9338478,44.9027243 C45.0542562,43.8731742 44.0448887,42.9668801 43.1004091,42.0025832 L43.1004091,42.0025832 C42.8115702,41.7152268 42.6490398,41.3236175 42.6490398,40.9150303 C42.6490398,40.506443 42.8115702,40.1148338 43.1004091,39.8274774 L44.0088398,38.8921819 C45.4507934,37.4421113 46.8927469,35.9412883 48.3851688,34.5419702 C48.9979991,33.9546917 49.2287116,33.7734328 49.7333954,33.9184399 C50.3813835,34.1214043 50.8712891,34.658352 51.016734,35.3250083 C51.1745633,36.1105916 51.3890192,36.8835862 51.6584033,37.6378708 C52.1828595,39.2218606 53.3529114,40.5065203 54.8760323,41.1706698 C56.3991531,41.8348193 58.1313729,41.8156811 59.6396161,41.1180401 C61.7660881,40.3351706 63.2238337,38.3529988 63.3454367,36.079045 C63.5256809,33.5051698 62.7181869,31.3880668 60.3173343,30.2280104 C58.933935,29.6542937 57.5155342,29.1699524 56.0707811,28.7779398 C55.4723704,28.2559144 55.4651607,27.4511253 56.1645081,26.7333403 C57.7867058,25.0440082 59.4377426,23.3836774 61.132038,21.6580934 C62.0094741,20.7806355 63.4268998,20.7806355 64.3043358,21.6580934 L64.3043358,21.6580934 C68.0750443,25.4355272 71.8024942,29.2637134 75.6164613,32.9976451 C77.6207767,34.9552403 79.5241553,36.9273363 80,39.8564788 L79.8990633,41.9663314 Z" id="Path" fill="#00A4E4"></path>
                <path d="M56.0271651,54.840263 L61.7969467,60.6372958 C62.2818847,61.1209014 63.0636771,61.1209014 63.5486152,60.6372958 L63.5486152,60.6372958 C68.3317427,55.8328071 73.1363193,51.0498954 77.8479501,46.1950602 C78.5192016,45.3821671 79.0662078,44.473128 79.4709246,43.4979295 C79.6638221,43.0554566 79.8053667,42.5920871 79.892755,42.1169986 L80,40.0527946 C79.5281219,37.1758552 77.6406097,35.190767 75.6530022,33.248833 C71.8708281,29.5447735 68.17445,25.7472135 64.435174,22 C64.435174,22 75.2955188,44.5767818 57.8860786,48.7123821 C57.1328017,48.8853697 56.4555142,49.299215 55.9556684,49.8919273 L55.8055254,50.093313 C54.6517413,51.4964563 54.7477208,53.55209 56.0271651,54.840263 Z" id="Path" fill="#0095D6"></path>
                <path d="M23.9763646,26.1656437 L18.2044544,20.3658429 C17.9723081,20.1316328 17.6570605,20 17.328297,20 C16.9995336,20 16.684286,20.1316328 16.4521397,20.3658429 L16.4521397,20.3658429 C11.6672476,25.1654299 6.86805083,29.9578212 2.14037715,34.8149745 C1.46702293,35.6269252 0.919638186,36.5366921 0.516803892,37.513393 C0.43299431,37.6797739 0.36359841,37.8531145 0.309387044,38.0314893 C-0.189153227,39.6712033 -0.0824812235,41.4368801 0.609783858,43.0037751 C1.54228328,44.8055595 2.80405029,46.4143268 4.32898251,47.7457959 C8.11970422,51.451624 11.817446,55.2509972 15.5581015,59 C15.5581015,59 4.69375007,36.4124382 22.1024607,32.2748632 C22.8586016,32.1032311 23.5388425,31.6890701 24.0407354,31.0947548 L24.1909338,30.9148603 C25.3470541,29.5128628 25.2541405,27.456337 23.9763646,26.1656437 L23.9763646,26.1656437 Z" id="Path" fill="#FBD00A"></path>
                <path d="M55.7407409,23.9807627 L61.6318655,18.2229715 C62.1227115,17.7384409 62.1227115,16.9573052 61.6318655,16.4727745 L61.6318655,16.4727745 C56.7700452,11.6865214 51.930125,6.88598088 46.9953044,2.14973336 C46.1721638,1.48008241 45.2520836,0.933600112 44.265093,0.528122214 C44.0961045,0.446762659 43.9202501,0.379839738 43.7394908,0.328099694 C42.0579042,-0.192532692 40.2395046,-0.0908498983 38.6294695,0.613846151 C36.8015821,1.54521863 35.1695079,2.80546078 33.8187494,4.32855009 C30.0884338,8.10754698 25.8033159,11.7936763 22,15.5226675 C22,15.5226675 45.3600976,4.70002048 49.535715,22.1019797 C49.7098336,22.8572068 50.1299947,23.5366256 50.73292,24.0379119 L50.9154208,24.1879288 C52.3382573,25.3455303 54.4269699,25.2558553 55.7407409,23.9807627 Z" id="Path" fill="#00AB66"></path>
                <path d="M44.4737056,98.9943984 C44.352696,99.0018672 44.2313308,99.0018672 44.1103212,98.9943984 C43.084167,98.9251593 42.0745965,98.7029654 41.1160331,98.3353929 C35.1637954,95.470152 29.2478962,92.5547693 23.3247293,89.6393866 L23.3247293,89.6393866 C22.8591954,89.4061908 22.6711305,88.8469192 22.9032033,88.3858437 L25.8611529,82.5192628 C26.1606492,81.9851602 26.4299645,81.4351501 26.6678665,80.8717493 C27.1159376,79.8456047 26.9424726,78.6584975 26.2188166,77.7986781 C25.4951606,76.9388587 24.3435042,76.5515091 23.2375171,76.795944 C22.7180791,76.9276045 22.1915555,77.0304373 21.6604284,77.1039574 C20.8502757,77.1439048 20.0448767,76.9603366 19.3347678,76.5738879 C18.3559764,76.0070683 17.6275528,75.1000608 17.2925471,74.0309865 C16.7329303,72.6820703 16.9884575,71.1377592 17.9539068,70.0339754 C18.7694538,69.010641 20.0204235,68.41797 21.3406501,68.4294404 C22.7630083,68.4052932 24.117178,69.0290259 25.0108333,70.1199326 C25.3242188,70.5304792 25.569525,70.9874361 25.7376022,71.473759 C26.16085,72.6253583 27.2559542,73.4044032 28.4982074,73.4376227 C29.7404606,73.4708422 30.8768131,72.7514694 31.3627939,71.6241841 C32.3003258,69.8047561 33.208787,67.9710019 34.1390512,66.1515739 L34.1390512,66.1515739 C34.3961537,65.6452389 34.8511787,65.2637733 35.3995006,65.0948885 C35.9478226,64.9260038 36.5422582,64.9842325 37.046127,65.2561861 L39.480803,66.5598707 C40.0085772,66.823454 40.3584975,67.3394233 40.4037995,67.9208602 C40.4037995,68.5941918 40.0404151,68.8663897 38.7758371,69.4824165 C37.2058085,70.2306537 36.0507271,71.6235325 35.6191944,73.2889195 C35.1876616,74.9543064 35.5236481,76.7225087 36.5373887,78.121118 C38.3470434,80.5780621 40.6145625,80.8717493 43.1219154,80.3774952 C45.3022222,79.9548722 47.1409477,77.4191339 47.2281599,75.0409839 C47.2263752,74.1521925 47.1656819,73.2644652 47.0464677,72.383473 C47.0247272,72.100607 47.1044661,71.8191993 47.2717661,71.5883686 L47.4389229,71.3663124 C47.6347357,71.0838366 47.9503587,70.9045696 48.2965103,70.8792215 C48.3610402,70.864272 48.428208,70.864272 48.4927379,70.8792215 C52.257401,72.2760264 55.7095535,74.2960213 59.4378782,76.0294921 C59.9180636,76.2558704 60.13012,76.8163831 59.9175457,77.2973612 C59.7285858,77.7343104 59.5614289,78.1067918 59.372469,78.4792731 C57.0468084,83.1066372 54.6630062,87.705349 52.3882194,92.3613655 C51.6382336,94.1635152 50.5481906,95.8090795 49.1759007,97.2107859 C47.8928034,98.3685068 46.2132322,99.0055931 44.4737056,98.9943984 Z" id="Path" fill="#F8971D"></path>
                <path d="M26.7331024,80.7556536 L23.1293114,87.891346 C22.9836264,88.1788644 22.9600175,88.511562 23.0636808,88.8162125 C23.1673441,89.1208631 23.3897833,89.3724975 23.6820401,89.5157313 L23.6820401,89.5157313 C29.6883585,92.4671813 35.6799375,95.4331348 41.7157349,98.3193193 C42.6881491,98.6901631 43.7116931,98.915062 44.7520578,98.9864776 C44.9358451,99.0045075 45.1209992,99.0045075 45.3047865,98.9864776 C47.0074169,98.9510201 48.6379755,98.3035645 49.8887498,97.1662959 C51.2794657,95.7465908 52.3847006,94.0808353 53.1461642,92.2568815 C55.4160367,87.608529 57.6711698,82.6193456 60,78 C60,78 42.4232276,95.4041279 33.0636884,80.5671089 C32.6672972,79.9123884 32.0643045,79.4030852 31.3465446,79.1167649 L31.1328228,79.036996 C29.4351652,78.3920021 27.5189316,79.1405383 26.7331024,80.7556536 Z" id="Path" fill="#E2831B"></path>
            </g>
        </g>
    </g>
</svg>