<svg version="1.1" id="locked-or-unlocked" xmlns="http://www.w3.org/2000/svg" xmlns:xlink="http://www.w3.org/1999/xlink" x="0px" y="0px" viewBox="0 0 12 15.8" style="enable-background:new 0 0 12 15.8;" xml:space="preserve"><g id="icon-lock"><path fill="#FFFFFF" d="M6,12c0.8,0,1.5-0.7,1.5-1.5S6.8,9,6,9s-1.5,0.7-1.5,1.5S5.2,12,6,12z M10.5,5.2H9.8V3.8 C9.8,1.7,8.1,0,6,0S2.2,1.7,2.2,3.8v1.5H1.5C0.7,5.2,0,5.9,0,6.8v7.5c0,0.8,0.7,1.5,1.5,1.5h9c0.8,0,1.5-0.7,1.5-1.5V6.8 C12,5.9,11.3,5.2,10.5,5.2z M3.7,3.8c0-1.3,1-2.3,2.3-2.3s2.3,1,2.3,2.3v1.5H3.7V3.8z M10.5,14.2h-9V6.8h9V14.2z"/></g><g id="icon-chevron-white"><polygon fill="#FFFFFF" points="1.5,2 7.4,7.9 1.5,13.8 3,15.4 10.5,7.9 3,0.4 "/></g></svg>