<?xml version="1.0" encoding="UTF-8"?>
<svg width="144px" height="144px" viewBox="0 0 144 144" version="1.1" xmlns="http://www.w3.org/2000/svg" xmlns:xlink="http://www.w3.org/1999/xlink">
    <!-- Generator: Sketch 51.3 (57544) - http://www.bohemiancoding.com/sketch -->
    <title>wheel</title>
    <desc>Created with Sketch.</desc>
    <defs>
        <path d="M97.8139535,165.474698 C66.0602791,163.400093 40.5990698,137.938884 38.5253023,106.186047 L89.2811163,106.186047 C90.6064186,110.21386 93.7861395,113.393581 97.8139535,114.718884 L97.8139535,165.474698 Z M106.186047,165.474698 L106.186047,114.718884 C110.214698,113.393581 113.393581,110.21386 114.718884,106.186047 L165.474698,106.186047 C163.40093,137.938884 137.939721,163.400093 106.186047,165.474698 Z M102,107.023256 C99.2296744,107.023256 96.9767442,104.769488 96.9767442,102 C96.9767442,99.2296744 99.2296744,96.9767442 102,96.9767442 C104.770326,96.9767442 107.023256,99.2296744 107.023256,102 C107.023256,104.769488 104.770326,107.023256 102,107.023256 Z M38.5253023,97.8139535 C40.5990698,66.0602791 66.0602791,40.5990698 97.8139535,38.5244651 L97.8139535,89.2802791 C93.7861395,90.6055814 90.6064186,93.7853023 89.2811163,97.8139535 L38.5253023,97.8139535 Z M114.718884,97.8139535 C113.393581,93.7853023 110.214698,90.6055814 106.186047,89.2802791 L106.186047,38.5244651 C137.939721,40.5990698 163.40093,66.0602791 165.474698,97.8139535 L114.718884,97.8139535 Z M102,30 C62.2350698,30 30,62.235907 30,102 C30,141.764093 62.2350698,174 102,174 C141.764093,174 174,141.764093 174,102 C174,62.235907 141.764093,30 102,30 Z" id="path-1"></path>
    </defs>
    <g id="wheel" stroke="none" stroke-width="1" fill="none" fill-rule="evenodd">
        <g id="Group-22" transform="translate(-30.000000, -30.000000)">
            <ellipse id="Oval-2" fill="#AEBBC2" cx="102.016071" cy="102.085727" rx="9.21135789" ry="9.22026745"></ellipse>
            <g id="Fill-1" transform="translate(102.000000, 102.000000) rotate(45.000000) translate(-102.000000, -102.000000) ">
                <use fill="#6DAF3D" xlink:href="#path-1"></use>
                <use fill="#343435" xlink:href="#path-1"></use>
            </g>
        </g>
    </g>
</svg>