<?xml version="1.0" encoding="UTF-8"?>
<svg width="52px" height="40px" viewBox="0 0 52 40" version="1.1" xmlns="http://www.w3.org/2000/svg" xmlns:xlink="http://www.w3.org/1999/xlink">
    <title>“</title>
    <g id="Page-1" stroke="none" stroke-width="1" fill="none" fill-rule="evenodd">
        <g id="Artboard" transform="translate(-239.000000, -522.000000)" fill="#E4CB90" fill-rule="nonzero">
            <path d="M250.5,562 C253.67619,562 256.386905,560.888889 258.632143,558.666667 C260.877381,556.444444 262,553.761518 262,550.617886 C262,547.474255 260.877381,544.791328 258.632143,542.569106 C256.386905,540.346883 253.730952,539.235772 250.664286,539.235772 C249.569048,539.235772 248.638095,539.398374 247.871429,539.723577 L247.871429,539.723577 L247.871429,535.658537 C247.871429,532.406504 249.35,530.780488 252.307143,530.780488 L252.307143,530.780488 L260.028571,530.780488 L260.028571,522 L251.65,522 C247.92619,522 244.886905,523.192412 242.532143,525.577236 C240.177381,527.96206 239,530.99729 239,534.682927 L239,534.682927 L239,550.617886 C239,553.761518 240.122619,556.444444 242.367857,558.666667 C244.613095,560.888889 247.32381,562 250.5,562 Z M279.5,562 C282.67619,562 285.386905,560.888889 287.632143,558.666667 C289.877381,556.444444 291,553.761518 291,550.617886 C291,547.474255 289.877381,544.791328 287.632143,542.569106 C285.386905,540.346883 282.730952,539.235772 279.664286,539.235772 C278.569048,539.235772 277.638095,539.398374 276.871429,539.723577 L276.871429,539.723577 L276.871429,535.658537 C276.871429,532.406504 278.35,530.780488 281.307143,530.780488 L281.307143,530.780488 L289.028571,530.780488 L289.028571,522 L280.65,522 C276.92619,522 273.886905,523.192412 271.532143,525.577236 C269.177381,527.96206 268,530.99729 268,534.682927 L268,534.682927 L268,550.617886 C268,553.761518 269.122619,556.444444 271.367857,558.666667 C273.613095,560.888889 276.32381,562 279.5,562 Z" id="“"></path>
        </g>
    </g>
</svg>